<svg width="14" height="13" viewBox="0 0 14 13" fill="none" xmlns="http://www.w3.org/2000/svg">
<path fill-rule="evenodd" clip-rule="evenodd" d="M5.125 0.25C5.39402 0.25 5.63286 0.422144 5.71793 0.677358L8.875 10.1486L10.1571 6.30236C10.2421 6.04714 10.481 5.875 10.75 5.875H13.25C13.5952 5.875 13.875 6.15482 13.875 6.5C13.875 6.84518 13.5952 7.125 13.25 7.125H11.2005L9.46793 12.3226C9.38286 12.5779 9.14402 12.75 8.875 12.75C8.60598 12.75 8.36714 12.5779 8.28207 12.3226L5.125 2.85142L3.84293 6.69764C3.75786 6.95286 3.51902 7.125 3.25 7.125H0.75C0.404822 7.125 0.125 6.84518 0.125 6.5C0.125 6.15482 0.404822 5.875 0.75 5.875H2.79953L4.53207 0.677358C4.61714 0.422144 4.85598 0.25 5.125 0.25Z" fill="#556685"/>
</svg>
