<svg width="16" height="16" viewBox="0 0 16 16" fill="none" xmlns="http://www.w3.org/2000/svg">
<g clip-path="url(#clip0_27:2113)">
<path fill-rule="evenodd" clip-rule="evenodd" d="M1.66529 10.1653C2.25134 9.57924 3.0462 9.25 3.875 9.25H8.25C9.0788 9.25 9.87366 9.57924 10.4597 10.1653C11.0458 10.7513 11.375 11.5462 11.375 12.375V13.625C11.375 13.9702 11.0952 14.25 10.75 14.25C10.4048 14.25 10.125 13.9702 10.125 13.625V12.375C10.125 11.8777 9.92746 11.4008 9.57583 11.0492C9.22419 10.6975 8.74728 10.5 8.25 10.5H3.875C3.37772 10.5 2.90081 10.6975 2.54917 11.0492C2.19754 11.4008 2 11.8777 2 12.375V13.625C2 13.9702 1.72018 14.25 1.375 14.25C1.02982 14.25 0.75 13.9702 0.75 13.625V12.375C0.75 11.5462 1.07924 10.7513 1.66529 10.1653Z" fill="#556685"/>
<path fill-rule="evenodd" clip-rule="evenodd" d="M6.0625 3C5.02697 3 4.1875 3.83947 4.1875 4.875C4.1875 5.91053 5.02697 6.75 6.0625 6.75C7.09803 6.75 7.9375 5.91053 7.9375 4.875C7.9375 3.83947 7.09803 3 6.0625 3ZM2.9375 4.875C2.9375 3.14911 4.33661 1.75 6.0625 1.75C7.78839 1.75 9.1875 3.14911 9.1875 4.875C9.1875 6.60089 7.78839 8 6.0625 8C4.33661 8 2.9375 6.60089 2.9375 4.875Z" fill="#556685"/>
<path fill-rule="evenodd" clip-rule="evenodd" d="M15.5669 5.68306C15.811 5.92714 15.811 6.32286 15.5669 6.56694L13.0669 9.06694C12.8229 9.31102 12.4271 9.31102 12.1831 9.06694L10.9331 7.81694C10.689 7.57286 10.689 7.17714 10.9331 6.93306C11.1771 6.68898 11.5729 6.68898 11.8169 6.93306L12.625 7.74112L14.6831 5.68306C14.9271 5.43898 15.3229 5.43898 15.5669 5.68306Z" fill="#556685"/>
</g>
<defs>
<clipPath id="clip0_27:2113">
<rect width="15" height="15" fill="white" transform="translate(0.75 0.5)"/>
</clipPath>
</defs>
</svg>
