<svg width="16" height="18" viewBox="0 0 16 18" fill="none" xmlns="http://www.w3.org/2000/svg">
<path fill-rule="evenodd" clip-rule="evenodd" d="M11.8047 5.19526C12.0651 5.45561 12.0651 5.87772 11.8047 6.13807L5.13807 12.8047C4.87772 13.0651 4.45561 13.0651 4.19526 12.8047C3.93491 12.5444 3.93491 12.1223 4.19526 11.8619L10.8619 5.19526C11.1223 4.93491 11.5444 4.93491 11.8047 5.19526Z" fill="#6B66B3"/>
<path fill-rule="evenodd" clip-rule="evenodd" d="M4 5.66667C4 5.29848 4.29848 5 4.66667 5H11.3333C11.7015 5 12 5.29848 12 5.66667V12.3333C12 12.7015 11.7015 13 11.3333 13C10.9651 13 10.6667 12.7015 10.6667 12.3333V6.33333H4.66667C4.29848 6.33333 4 6.03486 4 5.66667Z" fill="#6B66B3"/>
</svg>
