<svg width="17" height="16" viewBox="0 0 17 16" fill="none" xmlns="http://www.w3.org/2000/svg">
<path fill-rule="evenodd" clip-rule="evenodd" d="M1.83301 6.66667C1.83301 6.29848 2.13148 6 2.49967 6H11.833C12.2012 6 12.4997 6.29848 12.4997 6.66667C12.4997 7.03486 12.2012 7.33333 11.833 7.33333H2.49967C2.13148 7.33333 1.83301 7.03486 1.83301 6.66667Z" fill="white"/>
<path fill-rule="evenodd" clip-rule="evenodd" d="M1.83301 4C1.83301 3.63181 2.13148 3.33333 2.49967 3.33333H14.4997C14.8679 3.33333 15.1663 3.63181 15.1663 4C15.1663 4.36819 14.8679 4.66667 14.4997 4.66667H2.49967C2.13148 4.66667 1.83301 4.36819 1.83301 4Z" fill="white"/>
<path fill-rule="evenodd" clip-rule="evenodd" d="M1.83301 9.33333C1.83301 8.96514 2.13148 8.66667 2.49967 8.66667H14.4997C14.8679 8.66667 15.1663 8.96514 15.1663 9.33333C15.1663 9.70152 14.8679 10 14.4997 10H2.49967C2.13148 10 1.83301 9.70152 1.83301 9.33333Z" fill="white"/>
<path fill-rule="evenodd" clip-rule="evenodd" d="M1.83301 12C1.83301 11.6318 2.13148 11.3333 2.49967 11.3333H11.833C12.2012 11.3333 12.4997 11.6318 12.4997 12C12.4997 12.3682 12.2012 12.6667 11.833 12.6667H2.49967C2.13148 12.6667 1.83301 12.3682 1.83301 12Z" fill="white"/>
</svg>
