<svg width="16" height="16" viewBox="0 0 16 16" fill="none" xmlns="http://www.w3.org/2000/svg">
<g clip-path="url(#clip0_212:13952)">
<path fill-rule="evenodd" clip-rule="evenodd" d="M1.04041 10.1653C1.62646 9.57924 2.42132 9.25 3.25012 9.25H8.25012C9.07892 9.25 9.87378 9.57924 10.4598 10.1653C11.0459 10.7513 11.3751 11.5462 11.3751 12.375V13.625C11.3751 13.9702 11.0953 14.25 10.7501 14.25C10.4049 14.25 10.1251 13.9702 10.1251 13.625V12.375C10.1251 11.8777 9.92758 11.4008 9.57595 11.0492C9.22432 10.6975 8.7474 10.5 8.25012 10.5H3.25012C2.75284 10.5 2.27593 10.6975 1.9243 11.0492C1.57267 11.4008 1.37512 11.8777 1.37512 12.375V13.625C1.37512 13.9702 1.0953 14.25 0.750122 14.25C0.404944 14.25 0.125122 13.9702 0.125122 13.625V12.375C0.125122 11.5462 0.454362 10.7513 1.04041 10.1653Z" fill="#556685"/>
<path fill-rule="evenodd" clip-rule="evenodd" d="M5.75012 3C4.71459 3 3.87512 3.83947 3.87512 4.875C3.87512 5.91053 4.71459 6.75 5.75012 6.75C6.78566 6.75 7.62512 5.91053 7.62512 4.875C7.62512 3.83947 6.78566 3 5.75012 3ZM2.62512 4.875C2.62512 3.14911 4.02423 1.75 5.75012 1.75C7.47601 1.75 8.87512 3.14911 8.87512 4.875C8.87512 6.60089 7.47601 8 5.75012 8C4.02423 8 2.62512 6.60089 2.62512 4.875Z" fill="#556685"/>
<path fill-rule="evenodd" clip-rule="evenodd" d="M12.02 9.79996C12.1063 9.46574 12.4472 9.26476 12.7814 9.35105C13.4518 9.52415 14.0457 9.915 14.4699 10.4622C14.8941 11.0095 15.1246 11.6821 15.1251 12.3745L15.1251 13.625C15.1251 13.9701 14.8453 14.25 14.5001 14.25C14.1549 14.25 13.8751 13.9701 13.8751 13.625L13.8751 12.3754C13.8751 12.3754 13.8751 12.3755 13.8751 12.3754C13.8748 11.96 13.7365 11.5564 13.482 11.2281C13.2275 10.8997 12.8711 10.6652 12.4689 10.5614C12.1347 10.4751 11.9337 10.1342 12.02 9.79996Z" fill="#556685"/>
<path fill-rule="evenodd" clip-rule="evenodd" d="M9.51965 2.30118C9.60527 1.96679 9.94575 1.76512 10.2801 1.85074C10.9523 2.02285 11.5481 2.41378 11.9736 2.96192C12.3991 3.51005 12.63 4.1842 12.63 4.87808C12.63 5.57196 12.3991 6.24611 11.9736 6.79424C11.5481 7.34238 10.9523 7.73331 10.2801 7.90542C9.94575 7.99104 9.60527 7.78937 9.51965 7.45498C9.43403 7.12059 9.6357 6.7801 9.9701 6.69449C10.3734 6.59122 10.7309 6.35666 10.9862 6.02778C11.2415 5.6989 11.38 5.29441 11.38 4.87808C11.38 4.46175 11.2415 4.05726 10.9862 3.72838C10.7309 3.3995 10.3734 3.16494 9.9701 3.06167C9.6357 2.97606 9.43403 2.63557 9.51965 2.30118Z" fill="#556685"/>
</g>
<defs>
<clipPath id="clip0_212:13952">
<rect width="15" height="15" fill="white" transform="translate(0.125122 0.5)"/>
</clipPath>
</defs>
</svg>
