<svg width="16" height="15" viewBox="0 0 16 15" fill="none" xmlns="http://www.w3.org/2000/svg">
<path fill-rule="evenodd" clip-rule="evenodd" d="M4.90646 1.90641C5.72693 1.08594 6.83973 0.625 8.00005 0.625C9.16037 0.625 10.2732 1.08594 11.0936 1.90641C11.9141 2.72688 12.375 3.83968 12.375 5C12.375 7.09541 12.8232 8.39664 13.2362 9.15384C13.4436 9.53402 13.6455 9.78343 13.7858 9.93149C13.8561 10.0057 13.9113 10.0549 13.9446 10.0826C13.9612 10.0965 13.9724 10.105 13.9772 10.1086C13.978 10.1091 13.9786 10.1096 13.979 10.1099C14.203 10.2638 14.3022 10.5453 14.2232 10.8061C14.1434 11.0697 13.9005 11.25 13.625 11.25H2.37505C2.09963 11.25 1.85668 11.0697 1.77687 10.8061C1.6979 10.5453 1.79705 10.2638 2.0211 10.1099C2.02154 10.1096 2.02214 10.1091 2.02289 10.1086C2.0277 10.105 2.03886 10.0965 2.0555 10.0826C2.08876 10.0549 2.144 10.0057 2.2143 9.93149C2.35456 9.78343 2.55649 9.53402 2.76386 9.15384C3.17688 8.39664 3.62505 7.09541 3.62505 5C3.62505 3.83968 4.08598 2.72688 4.90646 1.90641ZM2.02742 10.1056C2.02747 10.1056 2.02752 10.1055 2.02757 10.1055C2.02757 10.1055 2.02756 10.1055 2.02756 10.1055L2.02742 10.1056ZM3.71838 10H12.2817C12.2342 9.92208 12.1864 9.8396 12.1389 9.75241C11.6144 8.79086 11.125 7.27959 11.125 5C11.125 4.1712 10.7958 3.37634 10.2098 2.79029C9.62371 2.20424 8.82885 1.875 8.00005 1.875C7.17125 1.875 6.37639 2.20424 5.79034 2.79029C5.20429 3.37634 4.87505 4.1712 4.87505 5C4.87505 7.27959 4.38572 8.79086 3.86123 9.75241C3.81367 9.8396 3.76593 9.92208 3.71838 10Z" fill="#556685"/>
<path fill-rule="evenodd" clip-rule="evenodd" d="M6.60495 12.5844C6.90353 12.4112 7.28598 12.5128 7.45919 12.8114C7.51413 12.9061 7.59298 12.9847 7.68786 13.0394C7.78274 13.094 7.89032 13.1228 7.99981 13.1228C8.1093 13.1228 8.21688 13.094 8.31176 13.0394C8.40664 12.9847 8.48549 12.9061 8.54044 12.8114C8.71364 12.5128 9.09609 12.4112 9.39467 12.5844C9.69325 12.7576 9.79489 13.14 9.62169 13.4386C9.45686 13.7227 9.22029 13.9586 8.93565 14.1225C8.65101 14.2865 8.32829 14.3728 7.99981 14.3728C7.67133 14.3728 7.34861 14.2865 7.06397 14.1225C6.77933 13.9586 6.54276 13.7227 6.37794 13.4386C6.20473 13.14 6.30637 12.7576 6.60495 12.5844Z" fill="#556685"/>
</svg>
