<svg width="100" height="116" viewBox="0 0 100 116" fill="none" xmlns="http://www.w3.org/2000/svg">
<path fill-rule="evenodd" clip-rule="evenodd" d="M27.5033 77.5042C30.0561 79.0864 31.2033 82.2835 33.1839 84.4961C37.2136 89.2428 38.6957 95.6962 42.5428 100.444C44.793 101.738 45.5424 104.49 47.3413 106.279C48.3458 107.463 53.8766 114.57 51.2687 115.187C48.582 116.692 46.3234 113.773 43.8005 113.31C37.0586 113.422 30.353 112.456 23.6095 112.553C17.7697 112.47 12.0802 113.817 6.28347 114.392C-2.0532 114.634 10.2629 106.285 7.75518 103.182C4.77612 97.3508 17.2482 92.077 19.7243 87.616C20.8171 84.7505 24.2373 82.8837 24.709 79.9608C24.4857 78.4138 26.5618 78.2696 27.5033 77.5042Z" fill="#29A399"/>
<path fill-rule="evenodd" clip-rule="evenodd" d="M44.8579 23.7041C44.5339 23.1361 43.8587 22.5103 43.2301 22.7644C42.661 23.3249 44.5438 25.3389 44.8579 23.7041ZM27.2875 42.5434C23.3726 40.5785 21.7019 35.3313 19.3636 31.7375C17.0214 27.1578 13.312 23.5519 10.0285 19.6078C9.71015 19.1496 9.40671 18.7174 8.75064 18.7229C7.06397 17.8439 8.81906 14.8231 10.298 14.3328C16.5545 11.4528 20.8262 5.29579 28.1033 4.52513C33.7894 1.78411 39.7383 19.2503 42.1343 19.0165C46.8279 18.6741 49.6707 22.6632 46.6985 26.6688C45.4052 28.2777 48.3345 30.5008 46.1076 31.7614C39.008 33.9436 34.1788 40.2379 27.2875 42.5434Z" fill="#FEBB5B"/>
<path fill-rule="evenodd" clip-rule="evenodd" d="M56.3757 45.9615C56.5023 45.2768 56.5384 44.6803 55.7693 44.2487C54.3382 42.265 57.1284 39.9003 58.6652 38.8236C60.3927 37.8868 62.2811 35.7891 64.3768 36.6732C67.0161 37.2869 70.0172 35.9996 71.9416 38.629C76.3375 45.5383 78.7532 52.6234 67.6797 52.7828C61.7753 53.3121 56.6403 53.262 56.3757 45.9615Z" fill="#FB5854"/>
<path fill-rule="evenodd" clip-rule="evenodd" d="M89.7077 107.904C87.6672 107.149 84.7471 108.201 83.7163 105.872C83.1335 104.564 81.7452 104.104 81.055 102.952C80.573 102.524 79.5848 102.8 78.9662 102.704C77.3383 102.494 76.4796 101.291 76.8487 99.6324C76.9549 98.1873 75.2205 97.1858 76.9221 96.093C78.1538 95.135 87.9292 89.46 88.3143 91.9389C89.2929 92.6 90.3777 91.6843 90.5411 93.4503C91.4742 96.1724 94.1153 92.0181 95.3773 94.7057C97.0118 95.9024 95.9129 98.927 98.3537 98.3287C98.5857 98.3542 98.9468 98.4379 99.0062 98.5908C99.3814 99.6308 100.663 101.002 99.5219 101.98C96.5589 104.295 93.217 106.569 89.7077 107.904Z" fill="#8C88C4"/>
<path fill-rule="evenodd" clip-rule="evenodd" d="M76.4874 83.0838C73.7837 81.8344 70.2418 80.4841 69.4335 77.2963C69.395 77.0971 69.0257 76.8368 68.7993 76.8264C67.3065 76.9408 65.7913 77.2198 64.2856 77.2202C61.515 76.7679 63.2131 73.3559 64.9347 72.5904C68.1739 71.1339 70.8846 68.4697 74.5256 68.2218C75.854 67.8546 77.3116 69.9379 76.6121 71.1078C76.4001 71.4395 76.3078 71.7339 76.8777 71.8833C78.2409 72.4295 79.4899 74.4278 77.8737 75.4022C75.101 77.3155 83.986 81.2698 76.4874 83.0838Z" fill="#FEBB5B"/>
<path fill-rule="evenodd" clip-rule="evenodd" d="M19.9512 73.4115C12.9961 71.3023 37.1515 53.9421 40.0036 51.8035C41.0133 50.982 42.3811 52.0857 41.8958 53.2705C40.6202 56.5386 37.193 58.2782 34.8569 60.7367C29.8993 64.7155 25.6352 70.7719 19.9512 73.4115Z" fill="#8C88C4"/>
<path fill-rule="evenodd" clip-rule="evenodd" d="M15.6469 68.7237C11.31 67.6702 18.969 60.8996 20.2505 59.2086C24.1966 53.849 49.3201 39.0107 31.3868 54.1322C29.0947 56.0276 26.7006 57.8121 24.5279 59.835C21.3579 62.4703 19.2572 66.7339 15.6469 68.7237Z" fill="#8C88C4"/>
<path fill-rule="evenodd" clip-rule="evenodd" d="M27.5033 77.5041C14.9214 80.9833 41.6873 60.3539 43.5001 58.5871C51.1427 58.1843 28.6008 75.0173 27.5033 77.5041Z" fill="#8C88C4"/>
<path fill-rule="evenodd" clip-rule="evenodd" d="M27.9913 44.9374C31.4492 45.5841 22.8348 52.0119 21.8877 53.3068C19.2688 55.4978 17.5424 58.5199 15.1679 60.8852C14.2904 61.6422 12.7362 60.2936 13.2758 59.2594C16.7086 53.3336 22.5367 48.8641 27.9913 44.9374Z" fill="#8C88C4"/>
<path fill-rule="evenodd" clip-rule="evenodd" d="M26.715 3.09504C23.2022 5.83858 19.496 8.2683 15.7302 10.6604C13.1947 12.4207 10.2973 13.7196 8.02549 15.8275C6.76789 17.0543 9.04339 17.9807 9.63639 18.9203C15.898 26.3468 22.105 33.8071 28.3599 41.2249C28.7512 41.7382 29.212 41.3269 29.5295 40.9221C34.3086 35.2482 40.0925 30.4856 44.7052 24.6939C46.6088 23.5265 38.9331 17.6791 37.9511 16.2042C33.3797 12.5555 30.6391 7.28788 26.715 3.09504ZM25.844 45.2578C12.1571 44.2048 7.44888 59.2896 15.0935 68.9985C16.1608 70.9494 25.1799 75.1975 27.1841 74.3788C28.8657 73.7136 29.7065 76.2421 31.4005 75.9534C52.8493 75.3313 48.713 44.5346 25.844 45.2578ZM27.9688 112.282C33.4099 112.313 42.4702 112.351 48.8161 111.938C49.2851 111.918 49.4581 111.591 49.2132 111.197C46.521 107.156 44.4334 102.707 41.5065 98.8233C36.9389 92.2246 31.8809 86.0075 27.6376 79.1938C26.6774 77.976 23.666 83.3207 22.6063 83.998C15.3991 92.5245 9.69477 102.242 3.6525 111.607C3.13527 112.285 3.85072 112.658 4.49893 112.577C12.7916 112.734 18.6206 112.476 27.9688 112.282ZM47.0613 26.2282C42.2335 31.3725 37.1669 36.2835 32.2868 41.4054C31.3701 42.2418 30.9271 42.9895 32.491 43.2841C51.8694 47.5063 52.9212 76.6841 31.9131 78.4017C34.8301 84.462 39.8016 89.3213 43.0178 95.2597C47.0687 100.466 49.2194 107.116 53.3127 112.131C53.7545 112.247 53.7123 112.87 53.593 113.246C54.2342 114.492 52.8553 115.206 51.7914 115.028C46.0024 115.059 40.1575 114.965 34.3727 115.369C25.059 115.209 15.6827 115.784 6.34652 115.061C4.73864 114.597 -0.452521 115.485 0.0317507 113.005C5.67021 99.8167 15.232 88.8334 23.9273 77.6503C25.2207 75.5772 14.1626 74.922 11.7193 68.4035C5.07102 56.3914 10.0265 42.7786 24.9071 42.5502C26.97 42.2421 18.7449 34.8887 17.9287 33.9864C13.6534 29.4202 10.2214 24.1325 5.8298 19.6553C1.66238 15.8193 7.89602 12.2567 10.9755 10.4653C16.0488 7.36031 21.2828 4.50938 26.2324 1.21132C26.8027 0.827414 28.4919 -0.290008 28.483 0.965586C28.3179 1.43397 28.3532 1.78257 28.7264 2.0984C30.7886 3.84378 32.221 6.13148 33.9112 8.19219C37.6146 12.4601 42.012 16.0185 45.6627 20.3273C47.4462 22.0633 49.7128 24.3481 49.9502 26.8506C49.3624 28.7511 47.7294 27.3178 47.0613 26.2282Z" fill="#152540"/>
<path fill-rule="evenodd" clip-rule="evenodd" d="M96.3344 98.8934C94.7375 97.285 90.0511 90.1299 88.0486 90.987C86.3975 91.5146 74.6427 95.3036 76.0303 96.854C79.9623 99.9635 83.6304 103.498 87.9266 106.099C88.4629 106.332 88.9218 105.82 89.2764 105.468C91.5459 103.222 94.4082 101.402 96.3344 98.8934ZM100 98.5671C97.7649 101.48 94.2211 103.428 91.5398 106.011C90.0971 106.756 89.7366 109.841 87.6434 108.483C82.754 105.75 78.5766 101.985 74.6434 98.0378C73.548 96.6797 72.8085 98.0075 71.7764 97.6776C72.6405 94.2399 80.972 90.2376 84.2341 88.7015C85.8954 88.1143 88.255 86.7975 89.8834 87.9251C93.7054 91.0266 96.8409 94.8212 100 98.5671Z" fill="#152540"/>
<path fill-rule="evenodd" clip-rule="evenodd" d="M64.0044 36.792C53.8113 36.5618 54.2897 53.0533 66.7581 51.1246C76.0596 50.8236 71.6112 35.8872 64.0044 36.792ZM65.2059 53.3965C58.5541 54.1023 52.9765 48.1601 55.4133 41.4749C55.4773 41.2622 55.5307 40.8501 55.4636 40.8212C52.7549 39.4343 60.3984 34.0315 62.0641 34.8003C74.3159 29.8231 81.6125 54.1337 65.2059 53.3965Z" fill="#152540"/>
<path fill-rule="evenodd" clip-rule="evenodd" d="M76.1384 68.0222C76.6304 65.7521 66.2927 72.4461 64.9075 72.7455C64.2356 73.0974 64.2238 73.3955 64.8506 73.7281C66.7394 74.7299 68.4396 75.9996 70.0692 77.3672C80.8092 85.4593 73.4844 78.0183 76.1384 68.0222ZM78.9066 66.2616C75.0302 77.3691 84.7974 90.2159 66.9507 77.75C65.309 76.4542 63.4003 75.6911 61.5195 74.8296C58.4959 72.5274 63.6377 70.0727 65.5495 69.2689C67.7247 69.0098 79.8537 61.6564 78.9066 66.2616Z" fill="#152540"/>
</svg>
