<svg width="13" height="13" viewBox="0 0 13 13" fill="none" xmlns="http://www.w3.org/2000/svg">
<rect width="13" height="13" fill="#E5E5E5"/>
<g clip-path="url(#clip0_1:34)">
<rect width="1680" height="1200" transform="translate(-301 -142)" fill="#FAFAFD"/>
<path fill-rule="evenodd" clip-rule="evenodd" d="M2.125 1.625C1.77982 1.625 1.5 1.90482 1.5 2.25V11C1.5 11.3452 1.77982 11.625 2.125 11.625H10.875C11.2202 11.625 11.5 11.3452 11.5 11V2.25C11.5 1.90482 11.2202 1.625 10.875 1.625H2.125ZM0.25 2.25C0.25 1.21447 1.08947 0.375 2.125 0.375H10.875C11.9105 0.375 12.75 1.21447 12.75 2.25V11C12.75 12.0355 11.9105 12.875 10.875 12.875H2.125C1.08947 12.875 0.25 12.0355 0.25 11V2.25Z" fill="#556685"/>
<path fill-rule="evenodd" clip-rule="evenodd" d="M9 -0.875C9.34518 -0.875 9.625 -0.595178 9.625 -0.25V2.25C9.625 2.59518 9.34518 2.875 9 2.875C8.65482 2.875 8.375 2.59518 8.375 2.25V-0.25C8.375 -0.595178 8.65482 -0.875 9 -0.875Z" fill="#556685"/>
<path fill-rule="evenodd" clip-rule="evenodd" d="M4 -0.875C4.34518 -0.875 4.625 -0.595178 4.625 -0.25V2.25C4.625 2.59518 4.34518 2.875 4 2.875C3.65482 2.875 3.375 2.59518 3.375 2.25V-0.25C3.375 -0.595178 3.65482 -0.875 4 -0.875Z" fill="#556685"/>
<path fill-rule="evenodd" clip-rule="evenodd" d="M0.25 4.75C0.25 4.40482 0.529822 4.125 0.875 4.125H12.125C12.4702 4.125 12.75 4.40482 12.75 4.75C12.75 5.09518 12.4702 5.375 12.125 5.375H0.875C0.529822 5.375 0.25 5.09518 0.25 4.75Z" fill="#556685"/>
</g>
<defs>
<clipPath id="clip0_1:34">
<rect width="1680" height="1200" fill="white" transform="translate(-301 -142)"/>
</clipPath>
</defs>
</svg>
