<svg width="16" height="16" viewBox="0 0 16 16" fill="none" xmlns="http://www.w3.org/2000/svg">
<g clip-path="url(#clip0_748_38456)">
<path fill-rule="evenodd" clip-rule="evenodd" d="M7.6665 2C5.59544 2 3.9165 3.67893 3.9165 5.75C3.9165 7.82107 5.59544 9.5 7.6665 9.5C9.73757 9.5 11.4165 7.82107 11.4165 5.75C11.4165 3.67893 9.73757 2 7.6665 2ZM2.6665 5.75C2.6665 2.98858 4.90508 0.75 7.6665 0.75C10.4279 0.75 12.6665 2.98858 12.6665 5.75C12.6665 8.51142 10.4279 10.75 7.6665 10.75C4.90508 10.75 2.6665 8.51142 2.6665 5.75Z" fill="#3B4B66"/>
<path fill-rule="evenodd" clip-rule="evenodd" d="M9.95307 8.80543C10.2952 8.76003 10.6094 9.00062 10.6548 9.3428L11.4111 15.0428C11.4427 15.2807 11.3352 15.5157 11.1346 15.6474C10.934 15.7791 10.6757 15.7844 10.47 15.6609L7.66652 13.9789L4.86308 15.6609C4.65728 15.7844 4.39896 15.7791 4.19837 15.6474C3.99778 15.5156 3.89036 15.2806 3.92196 15.0427L4.67821 9.34896C4.72366 9.00679 5.03789 8.76624 5.38006 8.81169C5.72223 8.85714 5.96278 9.17137 5.91733 9.51354L5.3318 13.922L7.34496 12.7141C7.54289 12.5953 7.79015 12.5953 7.98808 12.7141L10.0014 13.9221L9.4157 9.5072C9.3703 9.16502 9.61089 8.85083 9.95307 8.80543Z" fill="#3B4B66"/>
</g>
<defs>
<clipPath id="clip0_748_38456">
<rect width="15" height="15" fill="white" transform="translate(0.166504 0.75)"/>
</clipPath>
</defs>
</svg>
