<svg width="16" height="15" viewBox="0 0 16 15" fill="none" xmlns="http://www.w3.org/2000/svg">
<path fill-rule="evenodd" clip-rule="evenodd" d="M7.75034 0.666687C8.00409 0.666687 8.23584 0.810735 8.34815 1.03827L10.2532 4.89766L14.5134 5.52036C14.7645 5.55706 14.9729 5.73306 15.0512 5.9744C15.1294 6.21574 15.0639 6.48057 14.8822 6.65759L11.8 9.6596L12.5274 13.9007C12.5703 14.1508 12.4675 14.4036 12.2622 14.5527C12.0568 14.7019 11.7847 14.7215 11.56 14.6034L7.75034 12.5999L3.94065 14.6034C3.71604 14.7215 3.44384 14.7019 3.23852 14.5527C3.0332 14.4036 2.93037 14.1508 2.97327 13.9007L3.70066 9.6596L0.618523 6.65759C0.436778 6.48057 0.371262 6.21574 0.449514 5.9744C0.527766 5.73306 0.736219 5.55706 0.987259 5.52036L5.2475 4.89766L7.15254 1.03827C7.26485 0.810735 7.4966 0.666687 7.75034 0.666687Z" fill="#5A55AB"/>
</svg>
