<svg width="42" height="43" viewBox="0 0 42 43" fill="none" xmlns="http://www.w3.org/2000/svg">
<path d="M17.2009 1.6751C19.3191 -0.374003 22.6807 -0.374004 24.7988 1.6751C26.0101 2.84687 27.6943 3.39411 29.363 3.15808C32.281 2.74534 35.0006 4.72123 35.5098 7.62401C35.8009 9.28394 36.8418 10.7166 38.3306 11.5065C40.9339 12.8878 41.9727 16.0848 40.6784 18.7325C39.9383 20.2466 39.9383 22.0175 40.6784 23.5315C41.9727 26.1792 40.9339 29.3763 38.3306 30.7576C36.8418 31.5474 35.8009 32.9801 35.5098 34.6401C35.0006 37.5428 32.281 39.5187 29.363 39.106C27.6943 38.8699 26.0101 39.4172 24.7988 40.589C22.6807 42.6381 19.3191 42.6381 17.2009 40.589C15.9897 39.4172 14.3055 38.8699 12.6368 39.106C9.71872 39.5187 6.99915 37.5428 6.48996 34.64C6.19879 32.9801 5.15788 31.5474 3.66917 30.7576C1.06581 29.3763 0.0270224 26.1792 1.32129 23.5315C2.06141 22.0175 2.06141 20.2466 1.32129 18.7325C0.0270225 16.0848 1.06581 12.8878 3.66917 11.5065C5.15788 10.7166 6.19879 9.28394 6.48996 7.62401C6.99915 4.72123 9.71872 2.74534 12.6368 3.15808C14.3055 3.39411 15.9897 2.84687 17.2009 1.6751Z" fill="#5A55AB"/>
</svg>
