<svg width="21" height="20" viewBox="0 0 21 20" fill="none" xmlns="http://www.w3.org/2000/svg">
<path fill-rule="evenodd" clip-rule="evenodd" d="M19.5547 2.74408C19.8802 3.06951 19.8802 3.59715 19.5547 3.92259L11.2214 12.2559C10.896 12.5814 10.3683 12.5814 10.0429 12.2559L7.54291 9.75592C7.21747 9.43049 7.21747 8.90285 7.54291 8.57741C7.86834 8.25197 8.39598 8.25197 8.72142 8.57741L10.6322 10.4882L18.3762 2.74408C18.7017 2.41864 19.2293 2.41864 19.5547 2.74408Z" fill="#556685"/>
<path fill-rule="evenodd" clip-rule="evenodd" d="M4.79883 3.33341C4.57781 3.33341 4.36585 3.42121 4.20957 3.57749C4.05329 3.73377 3.96549 3.94573 3.96549 4.16675V15.8334C3.96549 16.0544 4.05329 16.2664 4.20957 16.4227C4.36585 16.579 4.57781 16.6667 4.79883 16.6667H16.4655C16.6865 16.6667 16.8985 16.579 17.0548 16.4227C17.211 16.2664 17.2988 16.0544 17.2988 15.8334V10.0001C17.2988 9.53984 17.6719 9.16675 18.1322 9.16675C18.5924 9.16675 18.9655 9.53984 18.9655 10.0001V15.8334C18.9655 16.4965 18.7021 17.1323 18.2333 17.6012C17.7644 18.07 17.1285 18.3334 16.4655 18.3334H4.79883C4.13579 18.3334 3.4999 18.07 3.03106 17.6012C2.56222 17.1323 2.29883 16.4965 2.29883 15.8334V4.16675C2.29883 3.50371 2.56222 2.86782 3.03106 2.39898C3.4999 1.93014 4.13579 1.66675 4.79883 1.66675H13.9655C14.4257 1.66675 14.7988 2.03984 14.7988 2.50008C14.7988 2.96032 14.4257 3.33341 13.9655 3.33341H4.79883Z" fill="#556685"/>
</svg>
