<svg width="16" height="16" viewBox="0 0 16 16" fill="none" xmlns="http://www.w3.org/2000/svg">
<path fill-rule="evenodd" clip-rule="evenodd" d="M10.442 2.51561C9.26015 1.98901 7.93975 1.85856 6.6777 2.1437C5.41566 2.42884 4.2796 3.1143 3.43896 4.09785C2.59831 5.08141 2.09813 6.31035 2.013 7.6014C1.92787 8.89245 2.26235 10.1764 2.96657 11.2619C3.67078 12.3473 4.707 13.176 5.92067 13.6244C7.13435 14.0728 8.46045 14.1168 9.70121 13.75C10.942 13.3831 12.0309 12.625 12.8056 11.5887C13.5803 10.5524 13.9993 9.29346 14 7.99961V7.38666C14 7.01847 14.2985 6.71999 14.6667 6.71999C15.0348 6.71999 15.3333 7.01847 15.3333 7.38666V7.99999C15.3324 9.58137 14.8204 11.1205 13.8735 12.387C12.9266 13.6536 11.5957 14.5802 10.0793 15.0286C8.56277 15.4769 6.94198 15.4231 5.4586 14.8751C3.97522 14.327 2.70874 13.3142 1.84803 11.9876C0.987318 10.6609 0.578503 9.09162 0.682553 7.51367C0.786602 5.93572 1.39794 4.43368 2.42539 3.23156C3.45285 2.02944 4.84137 1.19165 6.38386 0.843146C7.92636 0.49464 9.54019 0.654086 10.9847 1.29771C11.321 1.44756 11.4721 1.84168 11.3223 2.17799C11.1724 2.51431 10.7783 2.66546 10.442 2.51561Z" fill="#1CB55C"/>
<path fill-rule="evenodd" clip-rule="evenodd" d="M15.1378 2.19503C15.3983 2.45525 15.3985 2.87736 15.1383 3.13784L8.47165 9.81117C8.34665 9.9363 8.17705 10.0066 8.00018 10.0067C7.82331 10.0067 7.65367 9.93647 7.52861 9.8114L5.52861 7.8114C5.26826 7.55106 5.26826 7.12895 5.52861 6.8686C5.78896 6.60825 6.21107 6.60825 6.47141 6.8686L7.99977 8.39696L14.195 2.1955C14.4553 1.93502 14.8774 1.93481 15.1378 2.19503Z" fill="#1CB55C"/>
</svg>
