<svg width="16" height="18" viewBox="0 0 16 18" fill="none" xmlns="http://www.w3.org/2000/svg">
<path fill-rule="evenodd" clip-rule="evenodd" d="M15.138 3.19526C15.3983 3.45561 15.3983 3.87772 15.138 4.13807L8.47132 10.8047C8.21097 11.0651 7.78886 11.0651 7.52851 10.8047L5.52851 8.80474C5.26816 8.54439 5.26816 8.12228 5.52851 7.86193C5.78886 7.60158 6.21097 7.60158 6.47132 7.86193L7.99992 9.39052L14.1952 3.19526C14.4555 2.93491 14.8776 2.93491 15.138 3.19526Z" fill="white"/>
<path fill-rule="evenodd" clip-rule="evenodd" d="M3.33325 3.66659C3.15644 3.66659 2.98687 3.73682 2.86185 3.86185C2.73682 3.98687 2.66659 4.15644 2.66659 4.33325V13.6666C2.66659 13.8434 2.73682 14.013 2.86185 14.138C2.98687 14.263 3.15644 14.3333 3.33325 14.3333H12.6666C12.8434 14.3333 13.013 14.263 13.138 14.138C13.263 14.013 13.3333 13.8434 13.3333 13.6666V8.99992C13.3333 8.63173 13.6317 8.33325 13.9999 8.33325C14.3681 8.33325 14.6666 8.63173 14.6666 8.99992V13.6666C14.6666 14.197 14.4559 14.7057 14.0808 15.0808C13.7057 15.4559 13.197 15.6666 12.6666 15.6666H3.33325C2.80282 15.6666 2.29411 15.4559 1.91904 15.0808C1.54397 14.7057 1.33325 14.197 1.33325 13.6666V4.33325C1.33325 3.80282 1.54397 3.29411 1.91904 2.91904C2.29411 2.54397 2.80282 2.33325 3.33325 2.33325H10.6666C11.0348 2.33325 11.3333 2.63173 11.3333 2.99992C11.3333 3.36811 11.0348 3.66659 10.6666 3.66659H3.33325Z" fill="white"/>
</svg>
