<svg width="16" height="16" viewBox="0 0 16 16" fill="none" xmlns="http://www.w3.org/2000/svg">
<g clip-path="url(#clip0_212:14382)">
<path fill-rule="evenodd" clip-rule="evenodd" d="M10.7476 2.85831C9.63965 2.36462 8.40177 2.24232 7.21861 2.50964C6.03545 2.77696 4.97039 3.41958 4.18229 4.34166C3.39418 5.26374 2.92526 6.41588 2.84545 7.62623C2.76564 8.83659 3.07922 10.0403 3.73942 11.0579C4.39962 12.0755 5.37107 12.8524 6.50889 13.2728C7.64671 13.6931 8.88993 13.7344 10.0531 13.3905C11.2164 13.0466 12.2372 12.3359 12.9635 11.3643C13.6898 10.3928 14.0826 9.21254 14.0833 7.99956V7.42492C14.0833 7.07974 14.3631 6.79992 14.7083 6.79992C15.0534 6.79992 15.3333 7.07974 15.3333 7.42492V7.99992C15.3324 9.48246 14.8523 10.9254 13.9647 12.1128C13.077 13.3002 11.8293 14.1689 10.4076 14.5892C8.98586 15.0096 7.46637 14.9591 6.0757 14.4453C4.68503 13.9315 3.4977 12.982 2.69079 11.7383C1.88387 10.4945 1.50061 9.02332 1.59815 7.54399C1.6957 6.06466 2.26883 4.6565 3.23207 3.52951C4.19531 2.40252 5.49704 1.6171 6.94313 1.29037C8.38922 0.963648 9.90219 1.11313 11.2564 1.71652C11.5717 1.85701 11.7134 2.2265 11.5729 2.54179C11.4324 2.85709 11.0629 2.9988 10.7476 2.85831Z" fill="#556685"/>
<path fill-rule="evenodd" clip-rule="evenodd" d="M15.15 2.55784C15.3942 2.80179 15.3944 3.19752 15.1504 3.44172L8.90041 9.69797C8.78322 9.81528 8.62422 9.88121 8.45841 9.88125C8.29259 9.88129 8.13356 9.81544 8.01631 9.69819L6.14131 7.82319C5.89723 7.57911 5.89723 7.18339 6.14131 6.93931C6.38539 6.69523 6.78112 6.69523 7.02519 6.93931L8.45803 8.37215L14.2661 2.55828C14.51 2.31408 14.9058 2.31388 15.15 2.55784Z" fill="#556685"/>
</g>
<defs>
<clipPath id="clip0_212:14382">
<rect width="15" height="15" fill="white" transform="translate(0.958252 0.5)"/>
</clipPath>
</defs>
</svg>
