<svg width="16" height="18" viewBox="0 0 16 18" fill="none" xmlns="http://www.w3.org/2000/svg">
<path fill-rule="evenodd" clip-rule="evenodd" d="M15.1382 3.19526C15.3986 3.45561 15.3986 3.87772 15.1382 4.13807L8.47157 10.8047C8.21122 11.0651 7.78911 11.0651 7.52876 10.8047L5.52876 8.80474C5.26841 8.54439 5.26841 8.12228 5.52876 7.86193C5.78911 7.60158 6.21122 7.60158 6.47157 7.86193L8.00016 9.39052L14.1954 3.19526C14.4558 2.93491 14.8779 2.93491 15.1382 3.19526Z" fill="#6B66B3"/>
<path fill-rule="evenodd" clip-rule="evenodd" d="M3.3335 3.66659C3.15668 3.66659 2.98712 3.73682 2.86209 3.86185C2.73707 3.98687 2.66683 4.15644 2.66683 4.33325V13.6666C2.66683 13.8434 2.73707 14.013 2.86209 14.138C2.98712 14.263 3.15669 14.3333 3.3335 14.3333H12.6668C12.8436 14.3333 13.0132 14.263 13.1382 14.138C13.2633 14.013 13.3335 13.8434 13.3335 13.6666V8.99992C13.3335 8.63173 13.632 8.33325 14.0002 8.33325C14.3684 8.33325 14.6668 8.63173 14.6668 8.99992V13.6666C14.6668 14.197 14.4561 14.7057 14.081 15.0808C13.706 15.4559 13.1973 15.6666 12.6668 15.6666H3.3335C2.80306 15.6666 2.29436 15.4559 1.91928 15.0808C1.54421 14.7057 1.3335 14.197 1.3335 13.6666V4.33325C1.3335 3.80282 1.54421 3.29411 1.91928 2.91904C2.29436 2.54397 2.80306 2.33325 3.3335 2.33325H10.6668C11.035 2.33325 11.3335 2.63173 11.3335 2.99992C11.3335 3.36811 11.035 3.66659 10.6668 3.66659H3.3335Z" fill="#6B66B3"/>
</svg>
