<svg width="16" height="16" viewBox="0 0 16 16" fill="none" xmlns="http://www.w3.org/2000/svg">
<g clip-path="url(#clip0_748_38462)">
<path fill-rule="evenodd" clip-rule="evenodd" d="M7.6665 2.625C4.5599 2.625 2.0415 5.1434 2.0415 8.25C2.0415 11.3566 4.5599 13.875 7.6665 13.875C10.7731 13.875 13.2915 11.3566 13.2915 8.25C13.2915 5.1434 10.7731 2.625 7.6665 2.625ZM0.791504 8.25C0.791504 4.45304 3.86955 1.375 7.6665 1.375C11.4635 1.375 14.5415 4.45304 14.5415 8.25C14.5415 12.047 11.4635 15.125 7.6665 15.125C3.86955 15.125 0.791504 12.047 0.791504 8.25Z" fill="#3B4B66"/>
<path fill-rule="evenodd" clip-rule="evenodd" d="M7.6665 3.875C8.01168 3.875 8.2915 4.15482 8.2915 4.5V7.86373L10.446 8.94098C10.7547 9.09535 10.8799 9.47077 10.7255 9.77951C10.5712 10.0882 10.1957 10.2134 9.887 10.059L7.387 8.80902C7.17526 8.70315 7.0415 8.48673 7.0415 8.25V4.5C7.0415 4.15482 7.32133 3.875 7.6665 3.875Z" fill="#3B4B66"/>
</g>
<defs>
<clipPath id="clip0_748_38462">
<rect width="15" height="15" fill="white" transform="translate(0.166504 0.75)"/>
</clipPath>
</defs>
</svg>
