<svg width="20" height="20" viewBox="0 0 20 20" fill="none" xmlns="http://www.w3.org/2000/svg">
<path fill-rule="evenodd" clip-rule="evenodd" d="M10.0002 2.49992C5.85803 2.49992 2.50016 5.85778 2.50016 9.99992C2.50016 14.1421 5.85803 17.4999 10.0002 17.4999C14.1423 17.4999 17.5002 14.1421 17.5002 9.99992C17.5002 5.85778 14.1423 2.49992 10.0002 2.49992ZM0.833496 9.99992C0.833496 4.93731 4.93755 0.833252 10.0002 0.833252C15.0628 0.833252 19.1668 4.93731 19.1668 9.99992C19.1668 15.0625 15.0628 19.1666 10.0002 19.1666C4.93755 19.1666 0.833496 15.0625 0.833496 9.99992Z" fill="#556685"/>
<path fill-rule="evenodd" clip-rule="evenodd" d="M14.1226 5.8774C14.3458 6.10059 14.4237 6.43073 14.3239 6.73018L12.5572 12.0302C12.4743 12.279 12.279 12.4743 12.0302 12.5572L6.73018 14.3239C6.43073 14.4237 6.10059 14.3458 5.8774 14.1226C5.65421 13.8994 5.57627 13.5692 5.67609 13.2698L7.44275 7.9698C7.5257 7.72096 7.72096 7.5257 7.9698 7.44275L13.2698 5.67609C13.5692 5.57627 13.8994 5.65421 14.1226 5.8774ZM8.89213 8.89213L7.78427 12.2157L11.1078 11.1078L12.2157 7.78427L8.89213 8.89213Z" fill="#556685"/>
</svg>
