<svg width="15" height="16" viewBox="0 0 15 16" fill="none" xmlns="http://www.w3.org/2000/svg">
<g clip-path="url(#clip0_748_38734)">
<path fill-rule="evenodd" clip-rule="evenodd" d="M6.875 7C6.52982 7 6.25 7.27982 6.25 7.625V13.25C6.25 13.5952 6.52982 13.875 6.875 13.875H12.5C12.8452 13.875 13.125 13.5952 13.125 13.25V7.625C13.125 7.27982 12.8452 7 12.5 7H6.875ZM5 7.625C5 6.58947 5.83947 5.75 6.875 5.75H12.5C13.5355 5.75 14.375 6.58947 14.375 7.625V13.25C14.375 14.2855 13.5355 15.125 12.5 15.125H6.875C5.83947 15.125 5 14.2855 5 13.25V7.625Z" fill="#3B4B66"/>
<path fill-rule="evenodd" clip-rule="evenodd" d="M2.5 2.625C2.33424 2.625 2.17527 2.69085 2.05806 2.80806C1.94085 2.92527 1.875 3.08424 1.875 3.25V8.875C1.875 9.04076 1.94085 9.19973 2.05806 9.31694C2.17527 9.43415 2.33424 9.5 2.5 9.5H3.125C3.47018 9.5 3.75 9.77982 3.75 10.125C3.75 10.4702 3.47018 10.75 3.125 10.75H2.5C2.00272 10.75 1.52581 10.5525 1.17417 10.2008C0.822544 9.84919 0.625 9.37228 0.625 8.875V3.25C0.625 2.75272 0.822544 2.27581 1.17417 1.92417C1.52581 1.57254 2.00272 1.375 2.5 1.375H8.125C8.62228 1.375 9.09919 1.57254 9.45082 1.92417C9.80245 2.27581 10 2.75272 10 3.25V3.875C10 4.22018 9.72018 4.5 9.375 4.5C9.02982 4.5 8.75 4.22018 8.75 3.875V3.25C8.75 3.08424 8.68415 2.92527 8.56694 2.80806C8.44973 2.69085 8.29076 2.625 8.125 2.625H2.5Z" fill="#3B4B66"/>
</g>
<defs>
<clipPath id="clip0_748_38734">
<rect width="15" height="15" fill="white" transform="translate(0 0.75)"/>
</clipPath>
</defs>
</svg>
