<svg width="25" height="25" viewBox="0 0 25 25" fill="none" xmlns="http://www.w3.org/2000/svg">
<path fill-rule="evenodd" clip-rule="evenodd" d="M8.70964 3.79289C9.10017 3.40237 9.73333 3.40237 10.1239 3.79289L15.1239 8.79289C15.5144 9.18342 15.5144 9.81658 15.1239 10.2071C14.7333 10.5976 14.1002 10.5976 13.7096 10.2071L9.41675 5.91421L5.12385 10.2071C4.73333 10.5976 4.10017 10.5976 3.70964 10.2071C3.31912 9.81658 3.31912 9.18342 3.70964 8.79289L8.70964 3.79289Z" fill="#556685"/>
<path fill-rule="evenodd" clip-rule="evenodd" d="M9.41675 3.5C9.96903 3.5 10.4167 3.94772 10.4167 4.5V16.5C10.4167 17.2956 10.7328 18.0587 11.2954 18.6213C11.858 19.1839 12.6211 19.5 13.4167 19.5H20.4167C20.969 19.5 21.4167 19.9477 21.4167 20.5C21.4167 21.0523 20.969 21.5 20.4167 21.5H13.4167C12.0907 21.5 10.8189 20.9732 9.88121 20.0355C8.94353 19.0979 8.41675 17.8261 8.41675 16.5V4.5C8.41675 3.94772 8.86446 3.5 9.41675 3.5Z" fill="#556685"/>
</svg>
