<svg width="17" height="16" viewBox="0 0 17 16" fill="none" xmlns="http://www.w3.org/2000/svg">
<path fill-rule="evenodd" clip-rule="evenodd" d="M8.50033 1.99996C5.18662 1.99996 2.50033 4.68625 2.50033 7.99996C2.50033 11.3137 5.18662 14 8.50033 14C11.814 14 14.5003 11.3137 14.5003 7.99996C14.5003 4.68625 11.814 1.99996 8.50033 1.99996ZM1.16699 7.99996C1.16699 3.94987 4.45024 0.666626 8.50033 0.666626C12.5504 0.666626 15.8337 3.94987 15.8337 7.99996C15.8337 12.05 12.5504 15.3333 8.50033 15.3333C4.45024 15.3333 1.16699 12.05 1.16699 7.99996Z" fill="white"/>
<path fill-rule="evenodd" clip-rule="evenodd" d="M11.7983 4.70187C11.9768 4.88043 12.0392 5.14454 11.9593 5.3841L10.546 9.62409C10.4796 9.82316 10.3234 9.97937 10.1243 10.0457L5.88434 11.4591C5.64478 11.5389 5.38067 11.4766 5.20212 11.298C5.02356 11.1195 4.96121 10.8553 5.04107 10.6158L6.4544 6.37579C6.52076 6.17672 6.67697 6.02051 6.87604 5.95415L11.116 4.54082C11.3556 4.46097 11.6197 4.52332 11.7983 4.70187ZM7.6139 7.11366L6.72761 9.77252L9.38647 8.88623L10.2728 6.22737L7.6139 7.11366Z" fill="white"/>
</svg>
