<svg width="20" height="20" viewBox="0 0 20 20" fill="none" xmlns="http://www.w3.org/2000/svg">
<path fill-rule="evenodd" clip-rule="evenodd" d="M10 2.49998C5.8579 2.49998 2.50004 5.85784 2.50004 9.99998C2.50004 14.1421 5.8579 17.5 10 17.5C14.1422 17.5 17.5 14.1421 17.5 9.99998C17.5 5.85784 14.1422 2.49998 10 2.49998ZM0.833374 9.99998C0.833374 4.93737 4.93743 0.833313 10 0.833313C15.0626 0.833313 19.1667 4.93737 19.1667 9.99998C19.1667 15.0626 15.0626 19.1666 10 19.1666C4.93743 19.1666 0.833374 15.0626 0.833374 9.99998Z" fill="white"/>
<path fill-rule="evenodd" clip-rule="evenodd" d="M13.0892 6.91076C13.4147 7.2362 13.4147 7.76384 13.0892 8.08928L8.08922 13.0893C7.76378 13.4147 7.23614 13.4147 6.9107 13.0893C6.58527 12.7638 6.58527 12.2362 6.9107 11.9108L11.9107 6.91076C12.2361 6.58533 12.7638 6.58533 13.0892 6.91076Z" fill="white"/>
<path fill-rule="evenodd" clip-rule="evenodd" d="M6.9107 6.91076C7.23614 6.58533 7.76378 6.58533 8.08922 6.91076L13.0892 11.9108C13.4147 12.2362 13.4147 12.7638 13.0892 13.0893C12.7638 13.4147 12.2361 13.4147 11.9107 13.0893L6.9107 8.08928C6.58527 7.76384 6.58527 7.2362 6.9107 6.91076Z" fill="white"/>
</svg>
