<svg width="57" height="19" viewBox="0 0 57 19" fill="none" xmlns="http://www.w3.org/2000/svg">
<path fill-rule="evenodd" clip-rule="evenodd" d="M53.4714 5.02861C53.7318 5.28896 53.7318 5.71107 53.4714 5.97141L45.4714 13.9714C45.2111 14.2318 44.789 14.2318 44.5286 13.9714C44.2683 13.7111 44.2683 13.289 44.5286 13.0286L52.5286 5.02861C52.789 4.76826 53.2111 4.76826 53.4714 5.02861Z" fill="white"/>
<path fill-rule="evenodd" clip-rule="evenodd" d="M44.5286 5.02861C44.789 4.76826 45.2111 4.76826 45.4714 5.02861L53.4714 13.0286C53.7318 13.289 53.7318 13.7111 53.4714 13.9714C53.2111 14.2318 52.789 14.2318 52.5286 13.9714L44.5286 5.97141C44.2683 5.71107 44.2683 5.28896 44.5286 5.02861Z" fill="white"/>
<path d="M3.528 5.136C4.44 5.136 5.228 5.308 5.892 5.652C6.564 5.988 7.076 6.472 7.428 7.104C7.788 7.736 7.968 8.48 7.968 9.336C7.968 10.192 7.788 10.936 7.428 11.568C7.076 12.192 6.564 12.672 5.892 13.008C5.228 13.336 4.44 13.5 3.528 13.5H0.924V5.136H3.528ZM3.528 12.6C4.608 12.6 5.432 12.316 6 11.748C6.568 11.172 6.852 10.368 6.852 9.336C6.852 8.296 6.564 7.484 5.988 6.9C5.42 6.316 4.6 6.024 3.528 6.024H2.016V12.6H3.528ZM15.4084 9.96C15.4084 10.168 15.3964 10.388 15.3724 10.62H10.1164C10.1564 11.268 10.3764 11.776 10.7764 12.144C11.1844 12.504 11.6764 12.684 12.2524 12.684C12.7244 12.684 13.1164 12.576 13.4284 12.36C13.7484 12.136 13.9724 11.84 14.1004 11.472H15.2764C15.1004 12.104 14.7484 12.62 14.2204 13.02C13.6924 13.412 13.0364 13.608 12.2524 13.608C11.6284 13.608 11.0684 13.468 10.5724 13.188C10.0844 12.908 9.70038 12.512 9.42038 12C9.14038 11.48 9.00038 10.88 9.00038 10.2C9.00038 9.52 9.13638 8.924 9.40838 8.412C9.68038 7.9 10.0604 7.508 10.5484 7.236C11.0444 6.956 11.6124 6.816 12.2524 6.816C12.8764 6.816 13.4284 6.952 13.9084 7.224C14.3884 7.496 14.7564 7.872 15.0124 8.352C15.2764 8.824 15.4084 9.36 15.4084 9.96ZM14.2804 9.732C14.2804 9.316 14.1884 8.96 14.0044 8.664C13.8204 8.36 13.5684 8.132 13.2484 7.98C12.9364 7.82 12.5884 7.74 12.2044 7.74C11.6524 7.74 11.1804 7.916 10.7884 8.268C10.4044 8.62 10.1844 9.108 10.1284 9.732H14.2804ZM17.9418 4.62V13.5H16.8498V4.62H17.9418ZM25.8029 9.96C25.8029 10.168 25.7909 10.388 25.7669 10.62H20.5109C20.5509 11.268 20.7709 11.776 21.1709 12.144C21.5789 12.504 22.0709 12.684 22.6469 12.684C23.1189 12.684 23.5109 12.576 23.8229 12.36C24.1429 12.136 24.3669 11.84 24.4949 11.472H25.6709C25.4949 12.104 25.1429 12.62 24.6149 13.02C24.0869 13.412 23.4309 13.608 22.6469 13.608C22.0229 13.608 21.4629 13.468 20.9669 13.188C20.4789 12.908 20.0949 12.512 19.8149 12C19.5349 11.48 19.3949 10.88 19.3949 10.2C19.3949 9.52 19.5309 8.924 19.8029 8.412C20.0749 7.9 20.4549 7.508 20.9429 7.236C21.4389 6.956 22.0069 6.816 22.6469 6.816C23.2709 6.816 23.8229 6.952 24.3029 7.224C24.7829 7.496 25.1509 7.872 25.4069 8.352C25.6709 8.824 25.8029 9.36 25.8029 9.96ZM24.6749 9.732C24.6749 9.316 24.5829 8.96 24.3989 8.664C24.2149 8.36 23.9629 8.132 23.6429 7.98C23.3309 7.82 22.9829 7.74 22.5989 7.74C22.0469 7.74 21.5749 7.916 21.1829 8.268C20.7989 8.62 20.5789 9.108 20.5229 9.732H24.6749ZM28.5763 7.824V11.7C28.5763 12.02 28.6443 12.248 28.7803 12.384C28.9163 12.512 29.1523 12.576 29.4883 12.576H30.2923V13.5H29.3083C28.7003 13.5 28.2443 13.36 27.9403 13.08C27.6363 12.8 27.4843 12.34 27.4843 11.7V7.824H26.6323V6.924H27.4843V5.268H28.5763V6.924H30.2923V7.824H28.5763ZM37.6154 9.96C37.6154 10.168 37.6034 10.388 37.5794 10.62H32.3234C32.3634 11.268 32.5834 11.776 32.9834 12.144C33.3914 12.504 33.8834 12.684 34.4594 12.684C34.9314 12.684 35.3234 12.576 35.6354 12.36C35.9554 12.136 36.1794 11.84 36.3074 11.472H37.4834C37.3074 12.104 36.9554 12.62 36.4274 13.02C35.8994 13.412 35.2434 13.608 34.4594 13.608C33.8354 13.608 33.2754 13.468 32.7794 13.188C32.2914 12.908 31.9074 12.512 31.6274 12C31.3474 11.48 31.2074 10.88 31.2074 10.2C31.2074 9.52 31.3434 8.924 31.6154 8.412C31.8874 7.9 32.2674 7.508 32.7554 7.236C33.2514 6.956 33.8194 6.816 34.4594 6.816C35.0834 6.816 35.6354 6.952 36.1154 7.224C36.5954 7.496 36.9634 7.872 37.2194 8.352C37.4834 8.824 37.6154 9.36 37.6154 9.96ZM36.4874 9.732C36.4874 9.316 36.3954 8.96 36.2114 8.664C36.0274 8.36 35.7754 8.132 35.4554 7.98C35.1434 7.82 34.7954 7.74 34.4114 7.74C33.8594 7.74 33.3874 7.916 32.9954 8.268C32.6114 8.62 32.3914 9.108 32.3354 9.732H36.4874Z" fill="white"/>
</svg>

