<svg width="21" height="21" viewBox="0 0 21 21" fill="none" xmlns="http://www.w3.org/2000/svg">
<path fill-rule="evenodd" clip-rule="evenodd" d="M2.17432 5.66665C2.17432 5.20641 2.54741 4.83331 3.00765 4.83331H18.0077C18.4679 4.83331 18.841 5.20641 18.841 5.66665C18.841 6.12688 18.4679 6.49998 18.0077 6.49998H3.00765C2.54741 6.49998 2.17432 6.12688 2.17432 5.66665Z" fill="#556685"/>
<path fill-rule="evenodd" clip-rule="evenodd" d="M8.84131 3.16661C8.62029 3.16661 8.40833 3.2544 8.25205 3.41068C8.09577 3.56696 8.00797 3.77893 8.00797 3.99994V4.83327H13.008V3.99994C13.008 3.77893 12.9202 3.56696 12.7639 3.41068C12.6076 3.2544 12.3957 3.16661 12.1746 3.16661H8.84131ZM14.6746 4.83327V3.99994C14.6746 3.3369 14.4112 2.70101 13.9424 2.23217C13.4736 1.76333 12.8377 1.49994 12.1746 1.49994H8.84131C8.17827 1.49994 7.54238 1.76333 7.07354 2.23217C6.6047 2.70101 6.34131 3.3369 6.34131 3.99994V4.83327H4.67464C4.2144 4.83327 3.84131 5.20637 3.84131 5.6666V17.3333C3.84131 17.9963 4.1047 18.6322 4.57354 19.101C5.04238 19.5699 5.67827 19.8333 6.34131 19.8333H14.6746C15.3377 19.8333 15.9736 19.5699 16.4424 19.101C16.9112 18.6322 17.1746 17.9963 17.1746 17.3333V5.6666C17.1746 5.20637 16.8015 4.83327 16.3413 4.83327H14.6746ZM5.50798 6.49994V17.3333C5.50798 17.5543 5.59577 17.7662 5.75205 17.9225C5.90833 18.0788 6.1203 18.1666 6.34131 18.1666H14.6746C14.8957 18.1666 15.1076 18.0788 15.2639 17.9225C15.4202 17.7662 15.508 17.5543 15.508 17.3333V6.49994H5.50798Z" fill="#556685"/>
<path fill-rule="evenodd" clip-rule="evenodd" d="M8.84115 8.99994C9.30138 8.99994 9.67448 9.37304 9.67448 9.83327V14.8333C9.67448 15.2935 9.30138 15.6666 8.84115 15.6666C8.38091 15.6666 8.00781 15.2935 8.00781 14.8333V9.83327C8.00781 9.37304 8.38091 8.99994 8.84115 8.99994Z" fill="#556685"/>
<path fill-rule="evenodd" clip-rule="evenodd" d="M12.1746 8.99994C12.6349 8.99994 13.008 9.37304 13.008 9.83327V14.8333C13.008 15.2935 12.6349 15.6666 12.1746 15.6666C11.7144 15.6666 11.3413 15.2935 11.3413 14.8333V9.83327C11.3413 9.37304 11.7144 8.99994 12.1746 8.99994Z" fill="#556685"/>
</svg>
