<svg width="21" height="21" viewBox="0 0 21 21" fill="none" xmlns="http://www.w3.org/2000/svg">
<path fill-rule="evenodd" clip-rule="evenodd" d="M2.07354 3.89886C2.54238 3.43002 3.17827 3.16663 3.84131 3.16663H9.67464C10.1349 3.16663 10.508 3.53972 10.508 3.99996C10.508 4.4602 10.1349 4.83329 9.67464 4.83329H3.84131C3.62029 4.83329 3.40833 4.92109 3.25205 5.07737C3.09577 5.23365 3.00798 5.44561 3.00798 5.66663V17.3333C3.00798 17.5543 3.09577 17.7663 3.25205 17.9225C3.40833 18.0788 3.6203 18.1666 3.84131 18.1666H15.508C15.729 18.1666 15.9409 18.0788 16.0972 17.9225C16.2535 17.7663 16.3413 17.5543 16.3413 17.3333V11.5C16.3413 11.0397 16.7144 10.6666 17.1746 10.6666C17.6349 10.6666 18.008 11.0397 18.008 11.5V17.3333C18.008 17.9963 17.7446 18.6322 17.2757 19.1011C16.8069 19.5699 16.171 19.8333 15.508 19.8333H3.84131C3.17827 19.8333 2.54238 19.5699 2.07354 19.1011C1.6047 18.6322 1.34131 17.9963 1.34131 17.3333V5.66663C1.34131 5.00358 1.6047 4.3677 2.07354 3.89886Z" fill="#556685"/>
<path fill-rule="evenodd" clip-rule="evenodd" d="M17.1747 3.06553C16.9268 3.06553 16.6892 3.16398 16.5139 3.33922L8.76046 11.0927L8.31997 12.8547L10.082 12.4142L17.8354 4.66071C18.0106 4.48547 18.1091 4.24779 18.1091 3.99996C18.1091 3.75214 18.0106 3.51446 17.8354 3.33922C17.6602 3.16398 17.4225 3.06553 17.1747 3.06553ZM15.3354 2.16071C15.8232 1.67291 16.4848 1.39886 17.1747 1.39886C17.8645 1.39886 18.5261 1.67291 19.0139 2.16071C19.5017 2.64851 19.7758 3.31011 19.7758 3.99996C19.7758 4.68982 19.5017 5.35142 19.0139 5.83922L11.0972 13.7559C10.9904 13.8627 10.8566 13.9385 10.7101 13.9751L7.37677 14.8084C7.09279 14.8794 6.79239 14.7962 6.5854 14.5892C6.37842 14.3822 6.29521 14.0818 6.36621 13.7979L7.19954 10.4645C7.23617 10.318 7.31194 10.1842 7.41874 10.0774L15.3354 2.16071Z" fill="#556685"/>
</svg>
