<svg width="12" height="12" viewBox="0 0 12 12" fill="none" xmlns="http://www.w3.org/2000/svg">
<path d="M8.375 10.0625C6.80625 10.0625 5.45 9.175 4.775 7.875H7.75C8.09518 7.875 8.375 7.59518 8.375 7.25C8.375 6.90482 8.09518 6.625 7.75 6.625H4.3625C4.33125 6.41875 4.3125 6.2125 4.3125 6C4.3125 5.7875 4.33125 5.58125 4.3625 5.375H7.75C8.09518 5.375 8.375 5.09518 8.375 4.75C8.375 4.40482 8.09518 4.125 7.75 4.125H4.775C5.45 2.825 6.8125 1.9375 8.375 1.9375C9.12033 1.9375 9.82108 2.13981 10.4239 2.49363C10.7801 2.70266 11.2444 2.69307 11.5364 2.40107C11.8563 2.08118 11.8446 1.55325 11.4672 1.3037C10.5796 0.716748 9.51462 0.375 8.375 0.375C5.925 0.375 3.85 1.94375 3.075 4.125H1.5C1.15482 4.125 0.875 4.40482 0.875 4.75C0.875 5.09518 1.15482 5.375 1.5 5.375H2.7875C2.7625 5.58125 2.75 5.7875 2.75 6C2.75 6.2125 2.7625 6.41875 2.7875 6.625H1.5C1.15482 6.625 0.875 6.90482 0.875 7.25C0.875 7.59518 1.15482 7.875 1.5 7.875H3.075C3.85 10.0562 5.925 11.625 8.375 11.625C9.51837 11.625 10.5794 11.284 11.465 10.6982C11.8433 10.4479 11.8544 9.91838 11.5327 9.59857C11.2394 9.30689 10.7741 9.29912 10.4177 9.50908C9.81991 9.86122 9.12304 10.0625 8.375 10.0625Z" fill="#556685"/>
</svg>
