<svg xmlns="http://www.w3.org/2000/svg" viewBox="0 0 NaN NaN"><title>favorite</title><g transform="translate(NaN NaN)"><g class="nc-icon-favorite" fill="#5a55ab"><path fill="#5a55ab" d="M56.5 238.364C52.65 237.554 45.239 234.833 40.032 232.317C31.97 228.422 29.21 226.388 21.447 218.622C13.731 210.902 11.617 208.04 7.693 200C-2.566 178.981 -2.592 157.268 7.616 136L12.175 126.5L40.915 98C56.722 82.325 82.086 57.463 97.28 42.75C121.348 19.444 125.304 16 128.005 16C130.713 16 134.857 19.64 160.739 44.75C177.038 60.562 202.384 85.425 217.062 100C243.606 126.356 243.776 126.552 248.324 136C258.587 157.323 258.581 178.95 248.307 200C244.383 208.04 242.269 210.902 234.553 218.622C226.784 226.395 224.036 228.419 215.968 232.311C188.396 245.614 157.366 241.227 135.662 220.958L128 213.802L120.338 220.958C103.499 236.684 79.551 243.214 56.5 238.364M86.43 222.018C99.464 218.684 110.95 210.235 118.508 198.42C124.848 188.509 129.711 187.848 135.737 196.079C144.011 207.379 146.907 210.449 153.299 214.699C175.706 229.595 205.401 226.236 224.189 206.681C243.652 186.424 245.177 154.159 227.664 133.197C222.955 127.56 129.059 36 127.988 36C127.106 36 34.115 126.508 29.126 132.222C14.601 148.859 11.959 173.809 22.583 194.026C34.705 217.095 60.854 228.559 86.43 222.018"/></g></g></svg>