<svg width="20" height="18" viewBox="0 0 20 18" fill="none" xmlns="http://www.w3.org/2000/svg">
<path fill-rule="evenodd" clip-rule="evenodd" d="M0.910787 1.39929C1.04734 1.10499 1.34228 0.916687 1.66672 0.916687H18.3334C18.6578 0.916687 18.9528 1.10499 19.0893 1.39929C19.2259 1.69359 19.1792 2.04039 18.9697 2.28812L12.5001 9.93848V16.75C12.5001 17.0388 12.3505 17.3071 12.1048 17.4589C11.8591 17.6107 11.5524 17.6245 11.294 17.4954L7.96071 15.8287C7.67839 15.6876 7.50005 15.399 7.50005 15.0834V9.93848L1.03041 2.28812C0.820912 2.04039 0.774238 1.69359 0.910787 1.39929ZM3.4628 2.58335L8.96969 9.09525C9.09691 9.24569 9.16672 9.43634 9.16672 9.63336V14.5683L10.8334 15.4017V9.63336C10.8334 9.43634 10.9032 9.24569 11.0304 9.09525L16.5373 2.58335H3.4628Z" fill="#152540"/>
</svg>
