<?xml version="1.0" encoding="UTF-8"?>
<svg width="16px" height="16px" viewBox="0 0 16 16" version="1.1" xmlns="http://www.w3.org/2000/svg" xmlns:xlink="http://www.w3.org/1999/xlink">
    <!-- Generator: Sketch 58 (84663) - https://sketch.com -->
    <title>goal</title>
    <desc>Created with Sketch.</desc>
    <g id="Symbols" stroke="none" stroke-width="1" fill="none" fill-rule="evenodd">
        <g id="icons-/-goal" transform="translate(-4.000000, -4.000000)" fill="#5A55AB">
            <g id="archery-target" transform="translate(4.000000, 4.000000)">
                <path d="M7.14990079,5.25199921 C7.41334105,5.33478713 7.55978871,5.61546053 7.47700079,5.87890079 C7.39421287,6.14234105 7.11353947,6.28878871 6.85009921,6.20600079 C4.87293707,5.58466394 2.72709695,6.39404319 1.65278262,8.16635195 C0.578468297,9.9386607 0.85353733,12.2155142 2.31901159,13.6809884 C3.78448585,15.1464627 6.0613393,15.4215317 7.83364805,14.3472174 C9.60595681,13.2729031 10.4153361,11.1270629 9.79399921,9.14990079 C9.71121129,8.88646053 9.85765895,8.60578713 10.1210992,8.52299921 C10.3845395,8.44021129 10.6652129,8.58665895 10.7480008,8.85009921 C11.5074125,11.2666307 10.5181712,13.8893242 8.35201604,15.202375 C6.18586089,16.5154259 3.40304001,16.1792304 1.61190481,14.3880952 C-0.179230397,12.59696 -0.515425882,9.81413911 0.797624959,7.64798396 C2.1106758,5.48182881 4.73336928,4.49258751 7.14990079,5.25199921 Z M11.9743416,0.341886117 L12.7178743,2.57378091 L14.1464466,1.14644661 C14.320013,0.972880258 14.5894374,0.953595107 14.7843055,1.08859116 L14.8535534,1.14644661 C15.0488155,1.34170876 15.0488155,1.65829124 14.8535534,1.85355339 L14.8535534,1.85355339 L13.4248743,3.28078091 L15.6581139,4.02565835 C16.0107309,4.14319737 16.1163786,4.59072816 15.8535534,4.85355339 L13.8535534,6.85355339 C13.7196372,6.98746954 13.5215535,7.03423077 13.3418861,6.97434165 L10.6348743,6.07178091 L5.85355339,10.8535534 C5.67998704,11.0271197 5.41056264,11.0464049 5.2156945,10.9114088 L5.14644661,10.8535534 C4.95118446,10.6582912 4.95118446,10.3417088 5.14644661,10.1464466 L5.14644661,10.1464466 L9.9268743,5.36478091 L9.02565835,2.65811388 C8.96576923,2.47844652 9.01253046,2.28036275 9.14644661,2.14644661 L11.1464466,0.146446609 C11.4092718,-0.116378625 11.8568026,-0.0107309368 11.9743416,0.341886117 Z M12.6348743,4.07178091 L11.4248743,5.28078091 L13.3649546,5.9279386 L14.5743852,4.71850801 L12.6348743,4.07178091 Z M11.281492,1.42561479 L10.0720614,2.63504538 L10.7178743,4.57378091 L11.9268743,3.36478091 L11.281492,1.42561479 Z" id="goal"></path>
            </g>
        </g>
    </g>
</svg>