<svg width="15" height="21" viewBox="0 0 15 21" fill="none" xmlns="http://www.w3.org/2000/svg">
<path d="M4.13583 15.5564C4.75776 16.3304 5.32379 17.1457 5.82984 17.9964C6.26191 18.7965 6.44203 19.339 6.75779 20.303C6.95144 20.8356 7.12646 20.9946 7.50275 20.9946C7.91279 20.9946 8.09882 20.7241 8.24255 20.3059C8.54103 19.3955 8.77523 18.7007 9.14472 18.0443C9.86976 16.7768 10.7707 15.6505 11.6559 14.5681C11.8956 14.2617 13.445 12.477 14.1426 11.0687C14.1426 11.0687 14.9999 9.52175 14.9999 7.36126C14.9999 5.34034 14.1544 3.93872 14.1544 3.93872L11.7201 4.57536L10.2418 8.37773L9.87609 8.90204L9.80296 8.99703L9.7057 9.11594L9.53495 9.30585L9.29097 9.54406L7.97454 10.5914L4.68333 12.4472L4.13583 15.5564Z" fill="#34A853"/>
<path d="M0.738983 10.8086C1.54224 12.6004 3.09123 14.1755 4.13924 15.5577L9.7057 9.1184C9.7057 9.1184 8.92148 10.12 7.49894 10.12C5.91439 10.12 4.6343 8.88431 4.6343 7.32619C4.6343 6.25771 5.29254 5.52368 5.29254 5.52368L1.51389 6.51246L0.738983 10.8086V10.8086Z" fill="#FBBC04"/>
<path d="M9.76787 0.331112C11.6166 0.913218 13.199 2.13528 14.1561 3.93733L9.7074 9.11455C9.7074 9.11455 10.3656 8.36724 10.3656 7.3054C10.3656 5.711 8.99086 4.5199 7.50568 4.5199C6.10125 4.5199 5.29465 5.51983 5.29465 5.51983V2.25825L9.76787 0.331055V0.331112Z" fill="#4285F4"/>
<path d="M1.7587 2.61871C2.8629 1.32855 4.80587 0 7.48454 0C8.78415 0 9.76325 0.333196 9.76325 0.333196L5.29044 5.52271H2.12139L1.7587 2.61876V2.61871Z" fill="#1A73E8"/>
<path d="M0.738984 10.8085C0.738984 10.8085 0 9.39524 0 7.34789C0 5.41285 0.770273 3.72141 1.75869 2.61865L5.29295 5.52312L0.738984 10.8085Z" fill="#EA4335"/>
</svg>
