<svg width="41" height="40" viewBox="0 0 41 40" fill="none" xmlns="http://www.w3.org/2000/svg">
<g clip-path="url(#clip0_389_16559)">
<path d="M30.5518 9.47363H9.49927V30.5261H30.5518V9.47363Z" fill="white"/>
<path d="M30.5515 40.0001L40.0253 30.5264L35.2884 29.7183L30.5515 30.5264L29.687 34.8592L30.5515 40.0001Z" fill="#EA4335"/>
<path d="M0.0253906 30.5264V36.8422C0.0253906 38.587 1.43852 40.0001 3.1832 40.0001H9.49914L10.4718 35.2633L9.49914 30.5264L4.33773 29.7183L0.0253906 30.5264Z" fill="#188038"/>
<path d="M40.0253 9.47375V3.15781C40.0253 1.41312 38.6122 0 36.8675 0H30.5515C29.9753 2.34937 29.687 4.07828 29.687 5.18687C29.687 6.29531 29.9753 7.72437 30.5515 9.47375C32.6469 10.0737 34.2258 10.3737 35.2884 10.3737C36.3511 10.3737 37.93 10.0737 40.0253 9.47375Z" fill="#1967D2"/>
<path d="M40.0253 9.47363H30.5515V30.5261H40.0253V9.47363Z" fill="#FBBC04"/>
<path d="M30.5518 30.5264H9.49927V40.0001H30.5518V30.5264Z" fill="#34A853"/>
<path d="M30.5516 0H3.18336C1.43852 0 0.0253906 1.41312 0.0253906 3.15781V30.5262H9.49914V9.47375H30.5516V0Z" fill="#4285F4"/>
<path d="M13.8175 25.8053C13.0307 25.2738 12.4858 24.4975 12.1885 23.471L14.0149 22.7185C14.1805 23.35 14.47 23.8396 14.8833 24.1869C15.2938 24.5342 15.7938 24.7053 16.378 24.7053C16.9754 24.7053 17.4885 24.5238 17.9174 24.1605C18.3464 23.7974 18.5622 23.3342 18.5622 22.7738C18.5622 22.2 18.3358 21.7316 17.8833 21.3685C17.4307 21.0053 16.8622 20.8238 16.1833 20.8238H15.128V19.016H16.0754C16.6596 19.016 17.1516 18.858 17.5516 18.5421C17.9516 18.2264 18.1516 17.7947 18.1516 17.2447C18.1516 16.7553 17.9727 16.3658 17.6149 16.0738C17.2571 15.7816 16.8043 15.6342 16.2543 15.6342C15.7174 15.6342 15.2911 15.7764 14.9754 16.0631C14.6597 16.3508 14.4225 16.7139 14.2858 17.1185L12.478 16.3658C12.7174 15.6869 13.1569 15.0869 13.8016 14.5685C14.4464 14.05 15.27 13.7896 16.27 13.7896C17.0096 13.7896 17.6754 13.9317 18.2649 14.2185C18.8543 14.5053 19.3174 14.9027 19.6516 15.408C19.986 15.9158 20.1516 16.4842 20.1516 17.1158C20.1516 17.7605 19.9964 18.3053 19.686 18.7527C19.3754 19.2 18.9938 19.5421 18.5411 19.7816V19.8894C19.1256 20.1304 19.6333 20.5262 20.0096 21.0342C20.3911 21.5474 20.5833 22.1605 20.5833 22.8764C20.5833 23.5921 20.4016 24.2316 20.0385 24.7921C19.6754 25.3527 19.1729 25.7947 18.5358 26.1158C17.8964 26.4369 17.178 26.6002 16.3807 26.6002C15.4569 26.6027 14.6043 26.3369 13.8174 25.8053H13.8175ZM25.0358 16.7421L23.0307 18.1921L22.028 16.6711L25.6254 14.0763H27.0043V26.3158H25.0358V16.7422V16.7421Z" fill="#4285F4"/>
</g>
<defs>
<clipPath id="clip0_389_16559">
<rect width="40" height="40" fill="white" transform="translate(0.0253906)"/>
</clipPath>
</defs>
</svg>
