<svg width="21" height="17" viewBox="0 0 21 17" fill="none" xmlns="http://www.w3.org/2000/svg">
<path d="M18.4658 1.75002C17.4658 0.75002 16.1325 0.166687 14.7158 0.166687C13.2992 0.166687 11.8825 0.75002 10.8825 1.75002L10.5492 2.08335L10.2158 1.75002C9.21582 0.75002 7.88249 0.166687 6.38249 0.166687C4.96582 0.166687 3.63249 0.75002 2.63249 1.75002C1.63249 2.75002 0.96582 4.16669 0.96582 5.58335C0.96582 7.00002 1.54915 8.41669 2.54915 9.41669L9.88249 16.75C10.0492 16.9167 10.2158 17 10.4658 17C10.7158 17 10.8825 16.9167 11.0492 16.75L18.3825 9.41669C20.6325 7.33335 20.6325 3.83335 18.4658 1.75002ZM17.2992 8.25002L10.5492 15L3.79915 8.25002C2.29915 6.75002 2.29915 4.41669 3.79915 2.91669C4.46582 2.16669 5.46582 1.83335 6.38249 1.83335C7.38249 1.83335 8.29915 2.16669 9.04915 2.91669L9.96582 3.83335C10.2992 4.16669 10.7992 4.16669 11.1325 3.83335L11.9658 2.91669C12.7158 2.25002 13.6325 1.83335 14.7158 1.83335C15.7158 1.83335 16.6325 2.25002 17.3825 2.91669C18.0492 3.66669 18.4658 4.58335 18.4658 5.58335C18.4658 6.58335 18.0492 7.50002 17.2992 8.25002Z" fill="#556685"/>
</svg>
