<svg width="31" height="30" viewBox="0 0 31 30" fill="none" xmlns="http://www.w3.org/2000/svg">
<path fill-rule="evenodd" clip-rule="evenodd" d="M15.8645 3.75C9.6513 3.75 4.6145 8.7868 4.6145 15C4.6145 21.2132 9.6513 26.25 15.8645 26.25C22.0777 26.25 27.1145 21.2132 27.1145 15C27.1145 8.7868 22.0777 3.75 15.8645 3.75ZM2.1145 15C2.1145 7.40608 8.27059 1.25 15.8645 1.25C23.4584 1.25 29.6145 7.40608 29.6145 15C29.6145 22.5939 23.4584 28.75 15.8645 28.75C8.27059 28.75 2.1145 22.5939 2.1145 15ZM16.1871 10.0304C15.6052 9.93059 15.0068 10.0399 14.4978 10.3391C13.9888 10.6382 13.6021 11.1079 13.4062 11.6648C13.1771 12.316 12.4634 12.6583 11.8122 12.4292C11.161 12.2001 10.8187 11.4864 11.0478 10.8352C11.4397 9.72131 12.2131 8.78204 13.2311 8.18375C14.2491 7.58546 15.446 7.36676 16.6098 7.56638C17.7736 7.766 18.8292 8.37107 19.5896 9.27441C20.3499 10.1776 20.7661 11.3206 20.7645 12.5011C20.7639 14.4141 19.3457 15.6774 18.3329 16.3526C17.7883 16.7156 17.2527 16.9825 16.8581 17.1579C16.659 17.2464 16.4914 17.3135 16.3706 17.3595C16.3101 17.3826 16.2611 17.4004 16.2254 17.4131L16.182 17.4283L16.1681 17.433L16.1633 17.4347L16.1613 17.4353C16.161 17.4355 16.1598 17.4359 15.7645 16.25L16.1598 17.4359C15.5049 17.6542 14.797 17.3002 14.5786 16.6453C14.3605 15.9908 14.7138 15.2834 15.3679 15.0646L15.3878 15.0576C15.4071 15.0507 15.4386 15.0393 15.4806 15.0233C15.5649 14.9912 15.6903 14.9411 15.8428 14.8734C16.1513 14.7362 16.5532 14.5344 16.9461 14.2724C17.8081 13.6978 18.2645 13.0864 18.2645 12.5V12.4981C18.2654 11.9077 18.0573 11.3361 17.6771 10.8844C17.2968 10.4327 16.769 10.1302 16.1871 10.0304ZM15.8645 20C15.1741 20 14.6145 20.5596 14.6145 21.25C14.6145 21.9404 15.1741 22.5 15.8645 22.5H15.877C16.5674 22.5 17.127 21.9404 17.127 21.25C17.127 20.5596 16.5674 20 15.877 20H15.8645Z" fill="#5A55AB"/>
</svg>
