<svg className="svg-fill" width="26" height="26" viewBox="0 0 26 26" fill="none" xmlns="http://www.w3.org/2000/svg">
<path fill-rule="evenodd" clip-rule="evenodd" d="M13.0001 3.24998C7.82241 3.24998 3.62508 7.6152 3.62508 13C3.62508 18.3848 7.82241 22.75 13.0001 22.75C18.1778 22.75 22.3751 18.3848 22.3751 13C22.3751 7.6152 18.1778 3.24998 13.0001 3.24998ZM1.54175 13C1.54175 6.41859 6.67182 1.08331 13.0001 1.08331C19.3283 1.08331 24.4584 6.41859 24.4584 13C24.4584 19.5814 19.3283 24.9166 13.0001 24.9166C6.67182 24.9166 1.54175 19.5814 1.54175 13ZM13.2689 8.69299C12.784 8.60649 12.2853 8.70126 11.8612 8.96052C11.437 9.21978 11.1147 9.62679 10.9515 10.1095C10.7606 10.6739 10.1659 10.9705 9.62316 10.7719C9.08046 10.5734 8.79528 9.95489 8.98619 9.39048C9.31272 8.42511 9.95723 7.61108 10.8056 7.09256C11.6539 6.57404 12.6513 6.3845 13.6212 6.55751C14.591 6.73052 15.4707 7.25491 16.1043 8.0378C16.7379 8.82053 17.0847 9.81117 17.0834 10.8343C17.0829 12.4922 15.9011 13.587 15.0571 14.1722C14.6033 14.4868 14.1569 14.7182 13.8281 14.8701C13.6622 14.9468 13.5225 15.005 13.4218 15.0449C13.3714 15.0649 13.3306 15.0803 13.3008 15.0913L13.2646 15.1045L13.2531 15.1086L13.249 15.11L13.2474 15.1106C13.2471 15.1107 13.2461 15.1111 12.9167 14.0833L13.2461 15.1111C12.7004 15.3003 12.1105 14.9935 11.9285 14.4259C11.7467 13.8587 12.0412 13.2456 12.5862 13.056L12.6029 13.0499C12.6189 13.044 12.6452 13.034 12.6802 13.0202C12.7504 12.9923 12.8549 12.949 12.982 12.8902C13.2391 12.7714 13.574 12.5965 13.9014 12.3694C14.6198 11.8714 15.0001 11.3415 15.0001 10.8333L15.0001 10.8317C15.0008 10.32 14.8274 9.82458 14.5105 9.43314C14.1937 9.04169 13.7539 8.77949 13.2689 8.69299ZM13.0001 17.3333C12.4248 17.3333 11.9584 17.8183 11.9584 18.4166C11.9584 19.015 12.4248 19.5 13.0001 19.5H13.0105C13.5858 19.5 14.0522 19.015 14.0522 18.4166C14.0522 17.8183 13.5858 17.3333 13.0105 17.3333H13.0001Z" fill="#556685"/>
</svg>
