<svg width="378" height="378" viewBox="0 0 378 378" fill="none" xmlns="http://www.w3.org/2000/svg">
<path fill-rule="evenodd" clip-rule="evenodd" d="M237.191 1.42886C222.461 2.2604 208.449 20.8159 228.839 27.7089C211.444 36.2142 180.724 67.3977 221.08 61.9463C220.254 63.1941 219.125 64.6617 217.888 66.27C213.177 72.3951 206.897 80.561 209.765 86.4C204.692 91.361 210.822 104.264 217.51 105.63C228.952 108.066 236.584 99.8456 244.102 91.748C247.858 87.7026 251.586 83.6878 255.746 81.0475C256.766 80.4923 257.144 81.9638 257.159 82.7695C258.095 87.0804 258.896 93.066 259.785 99.7125V99.7128L259.785 99.7138C262.213 117.86 265.3 140.932 273.581 148.294C275.199 150.453 279.43 147.654 283.611 144.889C288.035 141.964 292.401 139.077 293.554 142.138C294.541 143.531 295.526 144.959 296.52 146.401L296.521 146.402C302.632 155.265 309.107 164.656 318.588 169.699C318.863 169.817 319.137 169.935 319.411 170.053C326.279 173.008 333.181 175.978 340.9 175.944C342.326 175.954 342.165 177.374 341.725 178.308C337.367 188.756 335.492 199.864 333.616 210.98L333.616 210.981L333.616 210.981C332.014 220.469 330.412 229.963 327.264 239.06C317.125 269.219 291.4 276.206 264.21 277.577C259.979 273.294 241.261 270.764 237.031 270.193H237.031L236.735 270.153C221.466 271.024 227.788 274.642 238.055 277.741L237.9 277.738C234.889 277.69 231.918 277.643 229.006 277.621C220.412 277.985 211.861 277.523 203.324 276.771C203.947 274.183 204.303 271.87 204.342 270.412C202.436 258.701 198.147 258.09 195.221 270.63C194.796 272.361 194.123 274.078 193.385 275.794C192.057 275.654 190.729 275.512 189.401 275.37L189.346 275.364L189.344 275.364L189.341 275.364C186.757 275.087 184.173 274.811 181.588 274.55C179.372 239.373 175.13 237.296 147.435 223.732C141.285 220.72 133.978 217.142 125.281 212.509C123.272 211.769 123.281 209.932 123.29 208.209C123.292 207.776 123.294 207.35 123.264 206.951C122.854 200.128 122.062 193.351 120.224 186.711C117.335 175.625 104.465 163.746 91.7955 170.863C79.8095 176.413 72.9883 187.778 68.7695 199.078C67.5996 200.766 67.2264 203.007 66.8577 205.22C66.3099 208.509 65.7719 211.738 62.6474 213.011C58.4353 214.434 54.1939 215.795 49.9515 217.156L49.9512 217.156C38.059 220.973 26.1592 224.791 14.8758 229.978C-0.558492 236.825 3.97332 271.668 7.26825 297.002C8.40868 305.77 9.40094 313.399 9.36586 318.333C10.3915 323.473 18.4198 327.413 25.6506 330.961C29.2475 332.726 32.6472 334.394 34.8891 336.065C49.2555 343.55 63.8988 350.599 78.544 357.613C80.1297 358.742 82.0396 358.764 83.9063 358.786C85.0566 358.799 86.1904 358.812 87.2218 359.084C90.0113 360.298 92.8957 359.13 95.7889 357.958C97.5972 357.225 99.4089 356.492 101.203 356.337C113.802 353.766 126.521 350.8 139.183 347.847L139.183 347.847L139.183 347.847L139.184 347.847L139.184 347.847L139.184 347.847L139.185 347.847L139.185 347.847L139.185 347.847L139.186 347.847L139.186 347.846L139.187 347.846L139.187 347.846L139.187 347.846L139.188 347.846L139.188 347.846L139.188 347.846L139.189 347.846L139.189 347.846L139.19 347.846L139.19 347.846L139.19 347.845L139.191 347.845L139.191 347.845L139.191 347.845L139.192 347.845L139.192 347.845L139.192 347.845L139.193 347.845L139.193 347.845L139.194 347.845L139.194 347.845L139.194 347.844L139.195 347.844L139.198 347.844C149.705 345.394 160.172 342.953 170.498 340.755C176.885 342.021 183.303 343.043 189.858 343.013C203.464 344.412 217.166 344.635 230.864 344.859H230.865C237.51 344.967 244.154 345.075 250.784 345.318C255.765 345.129 261.55 345.082 267.847 345.031H267.85C302.527 344.749 352.725 344.341 369.459 319.429C370.192 318.048 371.152 316.538 372.162 314.947L372.162 314.947C376.37 308.324 381.455 300.317 374.747 294.563C374.588 294.395 374.115 294.234 374.101 294.258C373.669 294.981 373.027 294.932 372.379 294.883C371.858 294.844 371.334 294.804 370.914 295.164C368.46 296.789 367.832 299.542 367.219 302.233C367.123 302.653 367.027 303.073 366.925 303.486C365.787 310.441 362.239 316.313 357.918 321.74C343.567 335.374 315.255 336.173 293.197 336.795C289.055 336.912 285.133 337.023 281.565 337.211C268.017 337.672 254.523 338.13 241.025 338.191C238.835 331.935 231.465 329.682 224.139 327.441C219.544 326.036 214.967 324.636 211.695 322.258C210.34 321.274 207.729 321.859 207.997 323.662C210.642 329.602 216.685 332.278 222.733 334.957C224.995 335.959 227.258 336.962 229.345 338.136C223.166 338.044 216.983 337.846 210.79 337.504C201.177 336.981 191.628 335.725 182.114 334.328C182.187 334.117 182.258 333.905 182.329 333.694C182.796 332.309 183.247 330.971 183.885 330.101C184.27 329.045 183.418 328.811 182.51 328.561C181.551 328.297 180.531 328.016 180.841 326.734C181.49 320.166 181.637 312.647 181.779 305.333V305.333V305.332C181.892 299.584 182.001 293.963 182.35 289.03C182.221 286.244 182.094 283.613 181.964 281.125C183.326 281.309 184.688 281.496 186.05 281.682L186.077 281.686C187.598 281.894 189.118 282.103 190.638 282.306C189.782 284.711 189.24 287.141 189.5 289.627C194.318 295.789 198.51 290.414 201.199 283.584C206.055 284.081 210.887 284.412 215.676 284.417C219.694 284.321 223.712 284.246 227.729 284.171L227.74 284.171H227.741C246.243 283.826 264.722 283.481 283.15 281.02C302.579 279.593 320.276 266.536 328.961 249.372C329.724 247.51 330.372 245.878 330.938 244.453C333.164 238.851 334.122 236.44 335.769 235.798C337.013 235.313 338.65 235.837 341.525 236.757C345.989 238.186 353.437 240.57 367.03 241.612C369.083 241.953 369.15 240.274 369.213 238.686C369.235 238.131 369.257 237.587 369.363 237.145C369.11 235.074 366.828 235.019 364.611 234.966C363.433 234.937 362.273 234.909 361.446 234.579C356.933 233.822 353.187 233.273 350.094 232.821C341.929 231.626 338.318 231.098 337.188 229.139C336.293 227.586 336.954 225.135 338.14 220.742L338.14 220.742C339.203 216.807 340.686 211.314 341.847 203.513C342.193 201.947 342.515 200.039 342.867 197.952L342.867 197.949L342.867 197.948C344.411 188.797 346.538 176.184 353.841 173.642C353.697 173.083 353.394 172.652 353.112 172.25C352.558 171.461 352.083 170.786 353.041 169.486C353.999 167.915 354.926 166.325 355.853 164.735L355.854 164.733L355.854 164.733L355.854 164.733C357.522 161.872 359.19 159.012 361.03 156.267C361.316 155.924 361.619 155.546 361.94 155.147C364.916 151.439 369.323 145.95 373.758 150.246C373.889 150.369 374.011 150.515 374.136 150.666C374.569 151.187 375.047 151.763 376.093 151.616C371.403 136.559 357.128 150.733 352.751 158.613C351.62 160.33 350.707 161.955 349.884 163.421L349.884 163.421C346.418 169.595 344.531 172.956 334.523 168.535C314.313 159.52 315.79 159.043 322.289 156.943C329.061 154.754 341.288 150.803 340.118 133.594C340.042 133.239 339.996 132.796 339.947 132.322C339.768 130.579 339.544 128.41 337.576 128.613C337.168 128.761 336.626 128.811 336.068 128.862C334.766 128.982 333.374 129.109 333.384 130.521C333.919 134.775 334.331 138.894 333.304 143.095C333.174 149.208 316.303 157.396 312.262 153.072C310.718 151.032 309.097 149.047 307.475 147.062L307.475 147.061L307.474 147.061L307.474 147.06C304.918 143.93 302.362 140.801 300.107 137.456C299.601 136.648 299.501 135.816 299.646 134.821C300.502 131.413 295.951 130.08 293.695 131.772C290.752 133.58 288.283 135.161 286.204 136.493L286.204 136.493C280.336 140.251 277.581 142.015 276.074 141.267C274.74 140.604 274.383 137.974 273.71 133.015L273.71 133.015C273.222 129.42 272.568 124.601 271.256 118.421C269.437 104.816 267.507 91.2497 264.292 77.8864C264.252 75.4022 262.68 74.7243 261.118 74.0509C259.883 73.5183 258.655 72.9886 258.195 71.5707C258.114 70.3607 257.356 68.4198 255.884 69.4335C251.812 73.3781 247.974 77.5501 244.14 81.7174C238.794 87.5282 233.456 93.3298 227.507 98.4926C208.846 108.224 212.276 80.6319 220.805 72.2794C226.309 64.9936 233.086 59.3437 241.496 55.607C242.783 54.9351 242.338 53.8464 241.868 52.6971C241.555 51.9314 241.231 51.1389 241.4 50.4247C240.183 48.0089 232.551 50.7026 226.961 52.6755C224.712 53.4695 222.793 54.1467 221.756 54.3272C191.71 64.6122 216.65 42.4859 227.439 36.3058C234.901 32.8167 242.777 29.1997 251.215 29.5298C253.387 29.6622 255.349 29.1651 256.991 27.7173C256.398 21.7103 254.731 21.7445 249.204 21.9899C242.743 22.3786 215.83 23.7348 228.756 12.1851C242.616 4.35702 261.422 6.26597 277.271 7.87468C278.453 7.99471 279.619 8.11306 280.766 8.22558C298.214 9.2931 314.069 15.651 329.742 22.9822C333.342 24.1937 336.665 26.1893 339.949 28.1608C342.8 29.873 345.622 31.5672 348.567 32.7138C344.979 23.5743 334.952 19.0386 325.614 14.8146C322.537 13.4225 319.534 12.0642 316.861 10.586C292.355 -0.54875 263.631 -1.52392 237.191 1.42886ZM171.014 273.602C170.998 268.541 171.147 263.479 171.296 258.417C171.369 255.93 171.442 253.442 171.495 250.954C171.83 247.23 167.963 248.235 165.016 249.001C164.311 249.184 163.659 249.354 163.13 249.442C153.345 252.704 143.209 254.701 133.065 256.699L133.064 256.699C129.842 257.333 126.62 257.968 123.408 258.644C119.358 259.489 115.316 260.367 111.274 261.245L111.266 261.247L111.263 261.247L111.261 261.248L111.259 261.248L111.258 261.248L111.256 261.249L111.255 261.249L111.253 261.25L111.252 261.25L111.25 261.25L111.248 261.251L111.247 261.251L111.245 261.251L111.244 261.252L111.242 261.252L111.241 261.253L111.239 261.253L111.237 261.253L111.236 261.254L111.234 261.254L111.233 261.254L111.231 261.255L111.229 261.255L111.228 261.255L111.226 261.256L111.225 261.256L111.223 261.257L111.222 261.257L111.22 261.257L111.218 261.258L111.217 261.258L111.215 261.258L111.214 261.259L111.212 261.259L111.21 261.259L111.209 261.26C106.966 262.181 102.722 263.103 98.4697 263.986C94.637 264.692 94.5617 268.175 94.4941 271.298C94.4751 272.179 94.4566 273.032 94.3546 273.785C96.6993 308.857 92.7007 329.164 90.5578 340.046C89.3937 345.959 88.7772 349.089 90.0232 350.294C91.4255 351.651 95.1868 350.569 103.181 348.269L103.182 348.268C112.562 345.569 127.772 341.193 151.838 337.113C150.58 336.922 149.318 336.752 148.054 336.61C141.472 336.558 131.709 331.822 134.03 325.093C129.894 325.338 126.535 325.388 125.128 325.32C123.838 325.12 121.98 325.395 120.051 325.68C116.264 326.24 112.208 326.84 111.664 323.962C111.074 322.527 110.897 320.6 112.797 319.938C119.23 318.696 125.766 318.044 132.311 317.392C135.819 317.042 139.329 316.692 142.827 316.251C112.595 314.237 128.127 302.726 146.52 296.008C143.374 294.441 140.261 293.667 137.169 292.898C133.949 292.098 130.752 291.303 127.56 289.624C125.681 288.197 124.509 286.864 123.909 285.625C124.233 287.431 124.35 289.251 124.348 290.967C126.843 301.088 115.884 305.545 112.583 295.036C111.971 290.804 112.162 274.649 118.439 275.651C121.054 277.72 122.575 280.516 123.417 283.485C123.665 276.681 141.835 273.296 148.099 273.185L148.203 273.179C148.269 273.175 148.335 273.172 148.402 273.169C149.209 270.874 150.407 269.634 152.192 270.36C154.287 271.123 155.497 271.988 156.2 272.981C161.148 272.992 166.084 273.233 171.014 273.602ZM157.246 278.938C161.848 278.987 166.48 279.321 171.126 279.803C171.175 281.194 171.241 282.586 171.328 283.977C171.396 283.977 171.464 283.976 171.531 283.975C171.446 287.973 171.432 291.969 171.465 295.963C169.497 293.949 163.384 292.422 156.447 291.04C156.765 288.857 156.946 286.594 157.101 284.656L157.101 284.655C157.213 283.254 157.311 282.023 157.438 281.115C157.325 280.351 157.274 279.626 157.246 278.938ZM147.201 279.343C141.492 279.899 135.85 281.063 130.306 283.109C129.461 285.686 137.48 287.453 146.717 289.199C146.762 286.067 146.868 282.52 147.201 279.343ZM171.497 298.795C171.454 298.845 171.409 298.896 171.361 298.947C166.988 300.218 162.418 300.538 157.839 300.858C150.892 301.344 143.923 301.831 137.587 305.644C132.034 308.364 132.611 309.369 138.801 309.661C140.05 309.748 141.299 309.828 142.548 309.909H142.548C149.334 310.345 156.106 310.78 162.758 312.345C170.249 316.172 166.146 318.123 160.786 319.153C158.333 322.047 149.354 323.686 140.932 324.541C139.895 325.657 139.92 326.857 142.032 327.969C144.583 329.251 147.306 329.333 150.018 329.415C152.699 329.495 155.368 329.575 157.849 330.816C161.833 331.323 165.82 331.895 169.81 332.487C170.961 331.757 171.834 330.806 172.273 329.526C172.182 325.517 172.064 321.508 171.947 317.501L171.947 317.499C171.764 311.265 171.581 305.031 171.497 298.795ZM14.4148 78.7985L14.4144 78.7984C8.73638 77.4957 5.41808 76.7343 14.906 73.7592C17.4685 71.6933 20.0973 72.1287 22.7363 72.5657C23.5701 72.7038 24.4049 72.8421 25.239 72.9017C31.7762 76.0518 20.7345 79.6138 17.2643 79.473C16.2828 79.227 15.3189 79.0059 14.4148 78.7985ZM53.0381 112.608L53.0387 112.608C53.8797 112.851 54.6249 113.066 55.2392 113.254C57.1447 113.657 58.642 113.382 59.6884 112.731C59.3945 121.418 60.1993 130.213 62.1877 138.667C62.1526 139.201 62.1894 139.731 62.3065 140.252C62.4195 140.414 62.5466 140.558 62.6868 140.685C63.2265 142.766 63.8393 144.823 64.5265 146.851L64.6992 147.146C65.484 148.489 66.3559 149.98 67.3241 151.463C66.1957 151.188 65.0906 150.996 64.0522 150.893C50.9725 153.651 76.4901 165.564 80.7184 161.799C80.6384 161.271 80.4955 160.757 80.2969 160.258C81.0587 160.141 81.8459 159.92 82.6594 159.58C85.1074 157.806 85.808 154.98 86.5291 152.071C87.0494 149.972 87.5804 147.83 88.7864 146.009C89.0652 146.822 89.3469 147.683 89.6384 148.575L89.6387 148.576C92.2872 156.672 95.7508 167.261 105.293 167.033C110.134 167.206 113.345 164.874 115.721 161.576C116.854 161.468 117.986 161.332 119.115 161.197H119.115L119.117 161.197C120.137 161.075 121.153 160.953 122.165 160.852C124.933 158.421 121.977 157.21 118.56 156.529C119.25 155.024 119.869 153.48 120.464 151.989C123.333 157.942 126.712 164.605 133.319 166.801L133.35 166.782C133.54 166.911 133.721 166.988 133.906 166.999C144.867 171.518 147.42 157.602 146.947 149.36C146.969 146.325 146.98 143.29 146.977 140.256C153.8 142.659 164.212 144.056 165.073 141.622C163.635 136.696 157.266 135.827 151.473 135.036L151.472 135.036C149.884 134.82 148.34 134.609 146.952 134.322C146.881 125.206 146.657 116.097 146.171 107.002C146.15 102 150.405 99.5088 154.447 97.142C155.834 96.33 157.196 95.5327 158.352 94.6537C159.293 93.9169 160.361 93.8633 161.404 93.8109C162.549 93.7535 163.664 93.6974 164.554 92.7426C171.307 88.5121 179.36 85.8328 187.388 86.0524C191.206 86.7352 204.165 82.4637 194.971 79.5902C177.218 80.1185 159.467 85.7939 145.184 96.3277C138.361 101.306 138.988 109.781 139.559 117.508C139.676 119.089 139.791 120.638 139.839 122.12C139.86 126.103 139.836 130.085 139.813 134.068L139.813 134.072C139.795 137.089 139.777 140.106 139.779 143.123C139.771 144.354 139.821 145.837 139.874 147.427V147.427C140.193 156.837 140.638 170.012 129.873 157.065C125.589 151.05 125.328 143.789 125.069 136.605V136.605C124.978 134.054 124.886 131.513 124.615 129.04C124.998 114.917 115.409 113.775 116.451 128.769C116.391 133.125 115.881 147.595 112.452 155.629L112.407 155.62L112.256 155.628C108.369 155.847 99.8315 156.326 104.746 160.759C104.375 160.619 103.992 160.438 103.597 160.212C98.7402 155.766 96.6441 149.191 96.0794 142.806C95.616 139.098 95.3433 135.352 95.0707 131.606V131.606C94.6713 126.118 94.2719 120.63 93.2724 115.26C92.442 111.91 89.1383 112.32 87.2 114.449C85.902 116.413 85.911 118.808 85.9201 121.195C85.9253 122.591 85.9306 123.985 85.674 125.289C85.3383 126.521 85.0165 129.444 84.6224 133.023L84.6224 133.023C83.5533 142.733 81.9526 157.269 78.1024 155.974C73.0899 152.467 69.7589 146.703 68.5718 140.661C76.8375 137.546 88.6293 126.081 80.5638 124.714C76.6261 124.766 71.0393 127.358 67.059 130.83C66.994 130.507 66.9284 130.183 66.8629 129.86C65.8778 124.995 64.8967 120.151 65.7667 115.121C66.4935 77.5828 71.3984 57.5115 108.137 41.1249C144.529 25.083 171.367 25.3539 210.062 28.0165C206.622 23.2169 200.657 22.6653 195.051 22.1469C193.67 22.0192 192.311 21.8936 191.018 21.707C160.355 17.4634 130.443 25.42 102.635 37.9645C71.5677 51.4719 59.1266 73.187 60.0201 106.524C59.4874 106.032 58.8018 105.61 57.9568 105.303C56.2185 104.802 54.1018 103.961 51.8099 103.05L51.8093 103.05L51.8091 103.05C45.1583 100.407 37.0328 97.1778 32.3999 99.9792C31.5087 106.384 45.8107 110.518 53.0381 112.608ZM133.374 166.767L133.35 166.782C133.316 166.76 133.283 166.736 133.249 166.71C133.271 166.72 133.292 166.73 133.314 166.74C133.334 166.749 133.354 166.758 133.374 166.767ZM133.374 166.767C133.553 166.849 133.731 166.926 133.906 166.999C134.101 167.009 134.301 166.946 134.522 166.791C134.124 166.416 133.783 166.519 133.374 166.767ZM34.6256 144.649H34.6254C22.4819 143.771 5.30369 142.528 10.3616 137.539C15.712 135.421 73.8112 140.991 45.2098 145.803C43.8711 145.318 39.6855 145.015 34.6258 144.649H34.6257H34.6256ZM96.2237 215.503C105.227 214.987 93.7974 206.795 92.7262 213.129C92.6517 214.695 94.7745 215.572 96.2237 215.503ZM70.4215 295.889C69.9482 294.436 69.4989 292.85 69.0312 291.199C66.8088 283.354 64.1729 274.048 56.5837 270.711C55.9728 270.966 54.922 271.094 53.7913 271.233C51.2084 271.549 48.2081 271.917 49.0798 273.949C58.6445 282.34 64.0971 296.748 56.2696 307.582C56.1452 307.766 55.9933 307.96 55.8366 308.159C55.1707 309.007 54.4184 309.964 55.3263 310.77C64.5612 313.763 69.7244 302.775 70.4215 295.889ZM36.802 309.079C55.0615 309.8 53.9384 295.684 45.9388 284.966C44.2643 281.34 40.5135 280.688 36.76 280.035L36.7595 280.035C35.1624 279.757 33.5649 279.479 32.1266 278.972C23.2787 276.514 17.7209 286.587 18.1216 293.444C20.1855 301.086 27.3234 309.617 36.802 309.079ZM112.978 214.454C112.918 214.454 112.858 214.454 112.798 214.454C117.491 157.319 76.5622 172.339 75.1503 217.284C75.191 219.304 75.1573 220.902 75.1303 222.183C75.0777 224.673 75.0505 225.962 75.6456 226.818C76.2841 227.736 77.6389 228.157 80.4473 229.029C81.8542 229.466 83.6259 230.016 85.8551 230.799C87.6642 231.381 89.1165 231.238 88.7289 229.25C88.5323 225.517 87.594 221.83 86.6662 218.184C84.6789 210.375 82.7397 202.754 88.2421 195.285C89.2157 193.091 93.9273 192.908 94.1492 195.705C94.0966 196.668 93.5024 198.097 92.874 199.607C91.357 203.254 89.6404 207.38 94.859 206.603C100.514 205.794 109.278 212.549 104.207 217.011C102.877 218.209 100.665 218.406 98.5207 218.597C95.4935 218.866 92.6015 219.123 92.5163 222.171C92.5672 222.662 92.6036 223.211 92.6422 223.794L92.6422 223.794L92.6422 223.794L92.6422 223.795L92.6423 223.795C92.8673 227.193 93.1672 231.722 96.875 232.584C113.523 232.567 113.47 231.345 113.086 222.364C112.993 220.206 112.882 217.6 112.978 214.454ZM123.64 226.48C126.113 249.986 83.9468 241.251 70.5283 234.306C66.1772 229.403 65.5614 225.745 65.1901 223.539C65.0169 222.51 64.8969 221.797 64.4759 221.421C63.5257 220.572 61.042 221.44 52.9525 224.267L52.9502 224.268C50.4201 225.152 47.3417 226.228 43.5905 227.503C42.3943 228.188 39.0598 229.041 35.3018 230.002C28.1613 231.829 19.4919 234.047 21.0578 236.248C27.1402 238.165 33.3362 239.939 39.5507 241.718L39.5508 241.718L39.551 241.718L39.5513 241.718C55.84 246.381 72.2556 251.08 87.0844 258.494L87.2493 258.604L87.3704 258.685L87.3814 258.692L87.3928 258.7C89.4593 260.078 91.5708 261.486 94.2363 260.192C103.101 256.559 112.226 253.566 121.817 252.045C122.523 251.851 124.558 251.459 127.343 250.921L127.345 250.921L127.348 250.921L127.353 250.92L127.357 250.919L127.359 250.918L127.36 250.918L127.361 250.918L127.361 250.918C139.537 248.569 166.009 243.463 158.662 240.091C151.351 237.138 144.585 233.239 137.817 229.34C133.808 227.03 129.798 224.72 125.674 222.605C123.797 221.869 123.728 224.512 123.693 225.814C123.684 226.162 123.678 226.415 123.64 226.48ZM15.1542 280.129C28.2662 271.549 46.8514 262.432 62.8664 265.112C73.4171 271.937 77.4965 285.196 77.6078 296.574C74.5516 316.212 59.9746 316.062 44.129 315.898H44.128H44.1269H44.1258H44.1247H44.1236H44.1225H44.1214H44.1203H44.1192H44.118H44.1169H44.1157H44.1146H44.1134H44.1122H44.111H44.1098H44.1086H44.1074H44.1062H44.105H44.1037H44.1025H44.1012H44.0999H44.0986H44.0973H44.096H44.0946H44.0933H44.0919H44.0904H44.089H44.0875H44.086C41.7205 315.874 39.3269 315.849 36.9394 315.891C30.7494 317.727 25.2451 313.864 21.5817 311.293C19.2056 309.626 17.604 308.502 17.0922 309.829C17.0678 310.203 17.0353 310.585 17.0025 310.97C16.7305 314.161 16.4394 317.578 20.5806 318.642C23.7355 320.324 26.8939 322.001 30.0523 323.678L30.0536 323.678C37.9163 327.852 45.7789 332.026 53.5881 336.283C62.9952 341.798 72.5211 347.123 82.4276 351.85C83.8568 349.01 83.6977 345.669 83.5371 342.296C83.4097 339.622 83.2814 336.927 83.9438 334.445C85.8109 322.385 85.9664 310.229 86.1219 298.071C86.1945 292.398 86.267 286.725 86.5135 281.061C86.0341 279.161 86.558 276.947 87.0748 274.762C87.8138 271.639 88.5383 268.576 86.2951 266.582C70.4456 258.45 52.8775 253.509 35.3996 248.593L35.3995 248.593L35.3979 248.592C28.4788 246.646 21.5739 244.704 14.7953 242.57C12.9736 242.066 12.3318 243.848 12.5588 245.245C13.7906 250.539 13.6297 255.99 13.4695 261.418C13.2816 267.782 13.0947 274.116 15.1542 280.129ZM177.865 210.597C181.428 211.678 186.643 211.78 192.134 211.887C203.204 212.103 215.393 212.341 217.414 220.674C217.635 222.459 215.657 223.95 214.128 222.9C208.009 220.06 201.208 219.39 194.379 218.717C188.367 218.125 182.333 217.531 176.723 215.451C172.806 214.28 173.538 209.904 177.865 210.597ZM31.3573 197.01L31.3575 197.01L31.3577 197.01L31.3579 197.01L31.3581 197.01L31.3582 197.01C35.2183 197.634 38.5841 198.179 40.5072 198.752C45.8527 199.754 46.3836 194.961 42.8005 192.542C42.1425 192.363 41.3275 192.131 40.3882 191.863L40.383 191.862L40.3783 191.861L40.3773 191.86L40.3772 191.86C31.5195 189.34 11.6395 183.683 7.99928 189.275C9.25898 193.436 21.8172 195.467 31.3571 197.01L31.3573 197.01ZM149.347 208.721C155.712 212.096 173.348 189.903 175.981 184.533C171.284 180.589 161.727 190.246 155.088 196.954C152.879 199.187 150.993 201.092 149.717 202.062C148.109 203.888 146.123 207.342 149.347 208.721ZM36.7633 357.747L36.7638 357.746C37.6352 356.611 38.3658 355.66 38.9046 355.03C36.5437 343.76 14.2193 366.876 18.7962 370.771C23.7537 374.69 32.194 363.698 36.7633 357.747ZM47.2676 165.096C46.7475 166.675 46.2909 168.422 45.8184 170.229C44.1702 176.534 42.3291 183.577 36.9305 186.813C25.87 188.779 44.4648 151.679 47.2676 165.096ZM241.947 234.518C244.836 233.582 248.496 229.442 244.16 227.985C239.995 227.579 215.799 240.859 217.12 244.319C222.657 244.596 227.852 241.707 233 238.843L233.001 238.843L233.001 238.843C235.98 237.186 238.943 235.539 241.947 234.518ZM166.117 368.482L166.113 368.481C161.673 368.041 158.092 367.685 154.515 365.361C149.749 366.454 144.54 360.616 145.571 356.475C146.083 355.608 146.931 356.03 147.51 356.363C151.074 358.417 155.05 359.292 159.024 360.167L159.026 360.167L159.027 360.167L159.027 360.167L159.028 360.168L159.029 360.168L159.03 360.168L159.03 360.168L159.031 360.168L159.031 360.168L159.031 360.168L159.032 360.168L159.032 360.168L159.033 360.169L159.033 360.169L159.034 360.169L159.034 360.169L159.035 360.169L159.035 360.169L159.036 360.169L159.036 360.169L159.036 360.169L159.037 360.169L159.037 360.169C160.136 360.411 161.235 360.653 162.325 360.92C165.73 361.119 173.966 367.381 168.129 368.688C167.438 368.613 166.768 368.546 166.117 368.482ZM108.131 109.65C96.4704 98.3801 99.1298 125.255 108.148 126.853C113.435 127.42 111.583 122.185 109.79 117.118C108.753 114.188 107.737 111.315 108.131 109.65ZM275.953 352.255C273.519 356.668 268.553 359.427 263.664 362.144C260.988 363.63 258.335 365.104 256.134 366.829C254.945 367.834 252.761 366.82 253.099 365.383C256.544 360.626 261.42 356.705 266.208 352.856L266.21 352.855L266.21 352.854L266.211 352.854L266.211 352.853L266.217 352.849L266.222 352.845C267.809 351.569 269.386 350.3 270.898 349.012C272.815 347.779 276.244 350.35 275.953 352.255ZM239.3 309.707C239.541 308.565 239.656 307.141 239.779 305.623C240.12 301.4 240.52 296.458 243.848 294.877C249.669 295.063 247.327 306.151 246.037 312.253C245.783 313.455 245.57 314.464 245.468 315.158C241.53 320.491 238.829 313.264 239.3 309.707ZM189.434 368.447C190.814 363.59 195.619 351.413 202.163 352.38C207.572 354.737 191.137 379.387 189.434 368.447ZM12.2315 342.109C8.00763 342.425 -6.31364 340.66 3.2006 336.111C15.8436 331.549 33.558 340.983 12.2315 342.109ZM108.813 371.571C106.52 366.888 118.612 356.811 120.657 363.962C120.791 369.766 108.425 386.053 108.813 371.571ZM206.887 190.558C201.151 199.712 195.397 176.891 195.251 173.035C199.651 167.189 206.089 187.445 206.887 190.558ZM158.757 163.163C158.164 180.751 149.101 166.794 149.846 158.157C150.709 152.389 160.122 154.391 158.757 163.163ZM55.7543 357.875C53.6947 356.277 52.3332 359.245 52.358 360.788C53.1664 366.005 59.4768 373.843 65.7381 372.067C67.601 368.632 63.1245 364.675 59.3638 361.351C57.9235 360.078 56.5883 358.898 55.7543 357.875ZM21.8419 170.891C17.6241 170.832 -1.30675 167.022 7.99233 161.894C12.0186 160.839 33.0337 169.087 21.8419 170.891ZM16.4112 203.978C8.05653 204.674 15.7347 227.779 21.4525 219.731C20.7573 217.903 20.5112 215.776 20.2651 213.65C19.8267 209.863 19.3884 206.076 16.4112 203.978ZM11.9582 102.171C6.48142 103.566 18.64 129.414 19.2708 118.318C19.0534 117.338 18.8883 116.118 18.7085 114.791C18.0067 109.609 17.0825 102.785 11.9582 102.171ZM62.5581 179.617C79.4774 181.297 58.3358 186.483 56.729 182.524C56.5248 180.37 60.2292 179.754 62.5581 179.617ZM303.077 92.5505C283.792 67.8182 296.811 102.969 311.492 99.8064C333.698 99.4592 318.336 68.4545 312.442 76.0501C312.289 78.2561 313.508 79.6948 314.874 81.3069C316.48 83.2022 318.29 85.3371 318.31 89.2399C318.194 96.518 307.187 97.0838 303.077 92.5505Z" fill="#152540"/>
</svg>
