<svg xmlns="http://www.w3.org/2000/svg" width="356" height="231" fill="none" viewBox="0 0 356 231">
    <path fill="#29A399" fill-rule="evenodd" d="M306.983 275.158c5.995-1.416 33.109-13.704 21.809.758-1.694.979-1.374 1.738-.084 2.823.687.579.685 1.516.194 2.425-2.352 5.402-.782 11.473-3.249 17.039-.417 1.815-2.965 4.212.151 4.923 1.596.054 2.202 1.68 2.575 2.945-.289 2.31-.963 3.345 2.133 3.572 3.547.847 1.563 3.715.84 5.927-.139 6.436-24.93 11.282-31.027 15.1-6.637 2.956-13.397 3.797-20.55 3.828-4.588.808-10.164 2.646-13.545-1.832-4.208-3.503-10.108 1.555-11.575-7.334-.208-2.869-2.669-1.293-4.495-1.084-3.843.214-1.599-5.834-2.098-8.217 1.03-22.945 1.859-45.936-.985-68.799-2.49-9.53 6.062-20.915-4.336-27.229-1.74-3.385 10.832-7.57 9.774-2.241-.764 6.956 20.359-6.459 22.964-.57.52 1.549 1.628 1.398 2.856 1.161 10.865-2.002 21.854-.145 32.8-2.364 13.667-.138 4.726 4.047 5.724 11.752-1.768 7.686 14.879-1.855.917 19.624 2.53.415 6.773-2.592 7.47 1.402 10.515 6.323-10.34 10.704-14.081 14.381 6.052-.732 25.681-8.084 11.457 4.306-5.409 2.876-10.375 4.23-15.639 7.704z" clip-rule="evenodd"/>
    <path fill="#8C88C4" fill-rule="evenodd" d="M215.692 177.754c.875 1.567 4.097-.529 4.864-1.983-1.699-.529-3.266 1.428-4.864 1.983zm12.369-39.597c2.101 18.201 3.247 37.088 4.623 55.478.414 2.577.311 5.36 3.355 6.489 6.716 2.524-1.182 5.672-1.46 9.494-.438 4.022-2.304 7.377-6.913 7.134-8.519.401-17.019 1.247-25.514 2.053-5.159.677-10.489 3.704-14.95-.781-13.506-11.917-4.077-29.128-4.524-44.103 1.73-14.927-.571-31.941 7.931-44.987 5.234-6.311 24.992-8.482 33.314-8.837 3.65.1 2.704 3.599 2.546 6.123 1.77 3.725 1.957 7.639 1.592 11.937z" clip-rule="evenodd"/>
    <path fill="#FB5854" fill-rule="evenodd" d="M98.685 19.945C97.547 5.005 105.27.345 119.32 0c6.537.559 16.186-1.1 19.288 6.262 3.843 14.026 10.983 27.565 12.726 41.944-1.808 19.005-25.992 19.232-31.833 1.833-5.046-11.304-21.009-16.746-20.816-30.094zM19.368 150.094c6.276.478 12.56 2.042 18.85.752 1.618-.374 2.982-.053 4.487 1.013 4.304 4.292 11.308.138 15.852 3.263 2.526 2.42 7.223 3.454 3.735 7.63-6.895 8.541-12.194 18.375-21.16 25.079-12.086 9.52-28.472.814-37.35-9.135-10.008-10.786 1.46-30.511 15.586-28.602z" clip-rule="evenodd"/>
    <path fill="#FEBB5B" fill-rule="evenodd" d="M343.162 53.043c5.976-1.05 18.065 2.099 10.332 9.02-12.881 13.056-27.976 24.129-38.727 39.108-2.192 3.781-9.755 4.23-9.966-.924.908-5.064 10.388-9.406 3.492-13.335-3.223-3.468-1.988-9.664-.881-13.755.567-2.368 9.274-10.28 5.259-10.69-21.875-8.996 26.052-8.47 30.491-9.424z" clip-rule="evenodd"/>
    <path fill="#152540" fill-rule="evenodd" d="M235.28 204.609h.009c.15 2.905-1.25 8.639 3.545 7.255 8.911-1.61 17.87-.603 26.809-.443 13.485.482 26.856 2.572 40.37 2.649 2.526-.461 8.069 2.511 8.577-1.142-.744-3.522 1.852-10.124-1.918-11.858-9.708-1.736-19.671-1.112-29.491-1.721-14.704-.52-29.407-1.057-44.109-1.623-4.847-1.183-3.766 3.726-3.792 6.883zm67.422-132.932l.267-.005c-.261-14.6 2.181-29.613-.931-43.995-10.579 2.016-14.709 49.048-14.04 59.422.693 7.856-7.814 8.884-9.295 1.378-3.139-15.764-3.705-31.845-6.364-47.68-5.286-28.575-11.414 2.04-12.109 12.93-3.551 8.133 4.051 46.495-6.099 44.975-7.734-2.89-6.46-30.83-9.452-39.592-2.055-6.737-4.981-48.444-11.282-21.975-8.061 46.663-.217 94.039.903 140.952 0 3.091 0 6.187.155 9.272.273 5.459.324 5.191 5.375 4.808 12.482-.98 24.996-1.122 37.493-.428 45.071-.678 35.065 12.761 36.563-24.921-.285-20.792 37.17-12.095 25.249-19.921-9.991-6.113-21.058-10.867-29.945-18.579-9.87-16.442-4.489-38.162-6.488-56.641zM252.556 57.11c4.231-10.81 1.82-23.654 10.804-32.258 5.209-2.833 6.638-3.994 10.847 1.419 6.103 7.889 5.422 18.66 8.518 27.433 5.411-10.886 5.583-26.023 16.981-33.842 18.809-12.505 11.421 74.267 13.325 84.472.171 14.231-.993 17.57 11.851 24.952 24.597 10.462 38.876 29.265 2.007 33.777-4.729 1.343-5.293 2.299-4.836 7.211 3.562 33.838 4.36 67.877 4.369 101.874.504 14.714.884 29.419 1.509 44.128.563 3.107-3.996 6.634-5.644 2.933-3.125-26.29-5.867-53.362-6.108-79.898-1.169-4.228 1.669-19.296-4.062-18.986-8.934-3.63-2.238 15.376-2.972 19.964.74 6.62.508 13.206-.22 19.81-1.784 14.626-1.668 29.376-2.057 44.083-1.052 4.693 2.801 17.851-3.675 18.141-5.605-2.764-1.404-32.486-2.804-40.245-.341-13.271 2.83-26.405 1.68-39.649-.247-7.058-.919-14.138.973-21.045.132-.716-.21-1.306-.789-1.314-3.603.594-10.955-1.852-12.576 2.032 1.464 15.234 3.011 30.507 1.635 45.81-.414 11.314-.699 22.649-.942 33.972-1.315 5.098 3.861 26.347-3.62 24.62-2.449-1.133-1.931-5.181-2.795-7.465-2.241-13.505-2.097-27.301-2.025-40.944.949-18.502-1.663-37.125.885-55.521.371-4.538-7.183-1.902-10.061-2.609-1.531.02-1.863.587-1.849 2.336.11 13.092.376 26.185.272 39.275-.151 18.403-1.396 36.795-.485 55.195-.488 3.029 1.307 7.693-2.012 9.3-2.225.929-2.391-1.927-2.473-3.445-1.493-15.096-2.801-30.159-2.786-45.357-.335-18.527-2.274-37.129-.174-55.612.179-1.423-.247-2.013-1.569-2.048-2.919.695-9.554-1.989-10.341 1.617 1.253 9.791 2.04 19.624 1.497 29.497-1.308 4.556 5.303 76.198-1.822 64.44-1.22-2.347-2.099-4.874-2.007-7.553-.594-20.888-4.957-41.474-3.958-62.435-1.036-4.429 2.202-26.279-2.187-26.153-3.066-.207-8.257-1.901-7.344 3.061.48 30.145-1.041 60.413 1.085 90.484-.547 37.134-7.059-15.877-5.916-24.618 1.007-72.807-5.218-145.376-5.782-218.121 2.045-12.655-.227-43.508 13.925-47.574 8.154-.05 10.595 27.842 13.728 34.856zM167.16 116.62c.414 3.687-4.09 7.521-6.808 3.789-2.516-3.442-1.596-8.003-3.425-11.726-1.9-4.124-15.108 1.174-19.79-.119-7.606-4.346 12.969-6.79 15.562-7.743 4.291-.762-5.592-15.741 5.065-10.383 2.968 2.672 2.57 9.263 7.617 8.374 3.797.427 11.234-2.635 12.945 1.762 1.127 5.458-7.261 4.018-10.678 5.117-4.139.922.041 7.765-.488 10.929zM184.032 21.027c.228 1.921-2.865 7.994 1.124 8.364 3.307-.203 16.487 7.205 9.447 9.282-15.478-5.637-12.448-6.145-16.88 8.958-.675 1.935-2.351 2.529-4.203 2.613-6.471-.833-2.14-9.61-1.68-13.663 1.724-4.275-1.235-4.803-4.689-5.489-1.626-.115-5.443-2.944-2.741-4.063 5.632-.954 9.833 3.135 12.313-3.84 1.886-3.97 8.413-12.247 7.309-2.162zM80.02 49.062c7.334 2.022 6.855-3.296 9.487-8.352 6.511-10.348 5.485 3.57 4.581 8.289-.556 5.439 8.126 3.472 10.066 7.584.434 4.987-6.687 1.509-9.349 1.17-3.2-1.774-7.433 19.078-11.756 11.83-3.144-4.231-.188-8.52 1.037-12.906.266-4.415-7.827-2.475-10.39-5.253-2.584-3.58 4.453-2.259 6.325-2.465l-.001.102zM46.64 123.667c-6.44-2.385-5.47-14.276-14.033-9.969-1.835.326-10.353 3.389-8.94-.407 10.103-7.19 13.273-1.869 7.736-14.747-.179-.865-.301-1.861.615-2.38 6.306-2.715 7.22 11.322 13.67 7.736 11.792-6.382 15.697 4.152 1.877 5.942-5.35 2.902 10.493 13.852-.925 13.825zM27.686 17.062c3.57.853 27.493 5.088 26.402 8.499-1.768 5.141-5.652 3.782-9.815 2.417-2.952-.878-30.41-9.09-16.587-10.916z" clip-rule="evenodd"/>
</svg>
