<svg xmlns="http://www.w3.org/2000/svg" viewBox="0 0 368.4 72.1"><defs><style>.cls-1{fill:#5a55ab;}</style></defs><title>Zasób 3</title><g id="Warstwa_2" data-name="Warstwa 2"><g id="Warstwa_1-2" data-name="Warstwa 1"><path class="cls-1" d="M15.3,3.6V71H0V3.6Z"/><path class="cls-1" d="M25.8,37.7c0-6.1-.2-11.3-.4-15.6H38.6l.7,6.7h.3A17.9,17.9,0,0,1,54.7,21c10,0,17.5,6.6,17.5,21V71H57V43.9c0-6.3-2.2-10.6-7.7-10.6A8.11,8.11,0,0,0,41.6,39a10.45,10.45,0,0,0-.6,3.8V71H25.8Z"/><path class="cls-1" d="M81.9,37.7c0-6.1-.2-11.3-.4-15.6H94.7l.7,6.7h.3A17.9,17.9,0,0,1,110.8,21c10,0,17.5,6.6,17.5,21V71H113.1V43.9c0-6.3-2.2-10.6-7.7-10.6A8.11,8.11,0,0,0,97.7,39a10.45,10.45,0,0,0-.6,3.8V71H81.9Z"/><path class="cls-1" d="M149.7,51.4c.5,6.3,6.7,9.3,13.8,9.3a43.06,43.06,0,0,0,13.5-2L179,69a48.28,48.28,0,0,1-17.7,3c-16.6,0-26.1-9.6-26.1-24.9,0-12.4,7.7-26.1,24.7-26.1,15.8,0,21.8,12.3,21.8,24.4a36.15,36.15,0,0,1-.5,6ZM167.6,41c0-3.7-1.6-9.9-8.6-9.9-6.4,0-9,5.8-9.4,9.9Z"/><path class="cls-1" d="M188.3,37.7c0-6.1-.2-11.3-.4-15.6h13.2l.7,6.7h.3A17.9,17.9,0,0,1,217.2,21c10,0,17.5,6.6,17.5,21V71H219.5V43.9c0-6.3-2.2-10.6-7.7-10.6a8.11,8.11,0,0,0-7.7,5.7,10.45,10.45,0,0,0-.6,3.8V71H188.3Z"/><path class="cls-1" d="M260.8,8.1v14h10.9V33.3H260.8V51c0,5.9,1.4,8.6,6,8.6a24.81,24.81,0,0,0,4.5-.4l.1,11.5c-2,.8-5.6,1.3-9.9,1.3-4.9,0-9-1.7-11.4-4.2-2.8-2.9-4.2-7.6-4.2-14.5v-20h-6.5V22.1h6.5V11.5Z"/><path class="cls-1" d="M293.7,8.5c0,4.2-3.2,7.6-8.2,7.6-4.8,0-8-3.4-7.9-7.6-.1-4.4,3.1-7.7,8-7.7S293.6,4.1,293.7,8.5ZM278,71V22.1h15.2V71Z"/><path class="cls-1" d="M330.7,71l-.9-4.9h-.3c-3.2,3.9-8.2,6-14,6-9.9,0-15.8-7.2-15.8-15,0-12.7,11.4-18.8,28.7-18.7v-.7c0-2.6-1.4-6.3-8.9-6.3A27.5,27.5,0,0,0,306,35.1l-2.8-9.8c3.4-1.9,10.1-4.3,19-4.3,16.3,0,21.5,9.6,21.5,21.1v17a75.77,75.77,0,0,0,.7,11.9Zm-1.8-23.1c-8-.1-14.2,1.8-14.2,7.7,0,3.9,2.6,5.8,6,5.8a8.3,8.3,0,0,0,7.9-5.6,10.89,10.89,0,0,0,.3-2.6Z"/><path class="cls-1" d="M353.19,0h15.2V71h-15.2Z"/></g></g></svg>
