<svg width="20" height="17" viewBox="0 0 20 17" fill="none" xmlns="http://www.w3.org/2000/svg">
<path d="M14.2985 0.166748C15.7151 0.166748 17.0485 0.750081 18.0485 1.75008C20.2151 3.83341 20.2151 7.33342 17.9651 9.41675L10.6318 16.7501C10.4651 16.9167 10.2985 17.0001 10.0485 17.0001C9.79846 17.0001 9.6318 16.9167 9.46513 16.7501L2.1318 9.41675C1.1318 8.41675 0.548462 7.00008 0.548462 5.58341C0.548462 4.16675 1.21513 2.75008 2.21513 1.75008C3.21513 0.750081 4.54846 0.166748 5.96513 0.166748C7.46513 0.166748 8.79846 0.750081 9.79846 1.75008L10.1318 2.08341L10.4651 1.75008C11.4651 0.750081 12.8818 0.166748 14.2985 0.166748Z" fill="#5A55AB"/>
</svg>
