<svg width="17" height="16" viewBox="0 0 17 16" fill="none" xmlns="http://www.w3.org/2000/svg">
<path fill-rule="evenodd" clip-rule="evenodd" d="M8.49967 0.666626C8.86786 0.666626 9.16634 0.965103 9.16634 1.33329V3.99996C9.16634 4.36815 8.86786 4.66663 8.49967 4.66663C8.13148 4.66663 7.83301 4.36815 7.83301 3.99996V1.33329C7.83301 0.965103 8.13148 0.666626 8.49967 0.666626Z" fill="#FEC97E"/>
<path fill-rule="evenodd" clip-rule="evenodd" d="M8.49967 11.3334C8.86786 11.3334 9.16634 11.6319 9.16634 12V14.6667C9.16634 15.0349 8.86786 15.3334 8.49967 15.3334C8.13148 15.3334 7.83301 15.0349 7.83301 14.6667V12C7.83301 11.6319 8.13148 11.3334 8.49967 11.3334Z" fill="#FEC97E"/>
<path fill-rule="evenodd" clip-rule="evenodd" d="M3.31538 2.81526C3.57573 2.55491 3.99784 2.55491 4.25819 2.81526L6.14486 4.70192C6.40521 4.96227 6.40521 5.38438 6.14486 5.64473C5.88451 5.90508 5.4624 5.90508 5.20205 5.64473L3.31538 3.75807C3.05503 3.49772 3.05503 3.07561 3.31538 2.81526Z" fill="#FEC97E"/>
<path fill-rule="evenodd" clip-rule="evenodd" d="M10.8554 10.3553C11.1158 10.0949 11.5379 10.0949 11.7982 10.3553L13.6849 12.242C13.9452 12.5023 13.9452 12.9244 13.6849 13.1848C13.4245 13.4451 13.0024 13.4451 12.7421 13.1848L10.8554 11.2981C10.5951 11.0378 10.5951 10.6156 10.8554 10.3553Z" fill="#FEC97E"/>
<path fill-rule="evenodd" clip-rule="evenodd" d="M1.16699 8.00004C1.16699 7.63185 1.46547 7.33337 1.83366 7.33337H4.50033C4.86852 7.33337 5.16699 7.63185 5.16699 8.00004C5.16699 8.36823 4.86852 8.66671 4.50033 8.66671H1.83366C1.46547 8.66671 1.16699 8.36823 1.16699 8.00004Z" fill="#FEC97E"/>
<path fill-rule="evenodd" clip-rule="evenodd" d="M11.833 8.00004C11.833 7.63185 12.1315 7.33337 12.4997 7.33337H15.1663C15.5345 7.33337 15.833 7.63185 15.833 8.00004C15.833 8.36823 15.5345 8.66671 15.1663 8.66671H12.4997C12.1315 8.66671 11.833 8.36823 11.833 8.00004Z" fill="#FEC97E"/>
<path fill-rule="evenodd" clip-rule="evenodd" d="M6.14486 10.3553C6.40521 10.6156 6.40521 11.0378 6.14486 11.2981L4.25819 13.1848C3.99784 13.4451 3.57573 13.4451 3.31538 13.1848C3.05503 12.9244 3.05503 12.5023 3.31538 12.242L5.20205 10.3553C5.4624 10.0949 5.88451 10.0949 6.14486 10.3553Z" fill="#FEC97E"/>
<path fill-rule="evenodd" clip-rule="evenodd" d="M13.6849 2.81526C13.9452 3.07561 13.9452 3.49772 13.6849 3.75807L11.7982 5.64473C11.5379 5.90508 11.1158 5.90508 10.8554 5.64473C10.5951 5.38438 10.5951 4.96227 10.8554 4.70192L12.7421 2.81526C13.0024 2.55491 13.4245 2.55491 13.6849 2.81526Z" fill="#FEC97E"/>
</svg>
