<svg width="15" height="16" viewBox="0 0 15 16" fill="none" xmlns="http://www.w3.org/2000/svg">
<path fill-rule="evenodd" clip-rule="evenodd" d="M4.83301 4.66663C4.83301 3.97727 5.06629 3.30757 5.50221 2.8186C5.92751 2.34153 6.57694 1.99996 7.49967 1.99996C8.40245 1.99996 9.04277 2.32692 9.46759 2.78605C9.71764 3.05631 10.1394 3.07268 10.4097 2.82263C10.6799 2.57258 10.6963 2.15079 10.4463 1.88053C9.75747 1.1361 8.75658 0.666626 7.49967 0.666626C6.21327 0.666626 5.19603 1.15839 4.50695 1.93132C3.82849 2.69235 3.49967 3.68932 3.49967 4.66663L3.49968 6.66663H2.83301C1.72844 6.66663 0.833008 7.56206 0.833008 8.66663V13.3333C0.833008 14.4379 1.72844 15.3333 2.83301 15.3333H12.1663C13.2709 15.3333 14.1663 14.4379 14.1663 13.3333V8.66663C14.1663 7.56206 13.2709 6.66663 12.1663 6.66663H4.83301L4.83301 4.66663ZM4.16715 7.99996C4.16688 7.99996 4.16661 7.99996 4.16634 7.99996C4.16607 7.99996 4.1658 7.99996 4.16554 7.99996H2.83301C2.46482 7.99996 2.16634 8.29844 2.16634 8.66663V13.3333C2.16634 13.7015 2.46482 14 2.83301 14H12.1663C12.5345 14 12.833 13.7015 12.833 13.3333V8.66663C12.833 8.29844 12.5345 7.99996 12.1663 7.99996H4.16715Z" fill="#E89C36"/>
</svg>
