<svg width="16" height="17" viewBox="0 0 16 17" fill="none" xmlns="http://www.w3.org/2000/svg">
<path fill-rule="evenodd" clip-rule="evenodd" d="M5.00257 1.25453C5.19611 1.14393 5.43211 1.13738 5.63148 1.23707L10.6457 3.74417L15.0026 1.25453C15.2089 1.13662 15.4624 1.13747 15.668 1.25675C15.8735 1.37603 16 1.59571 16 1.83335V12.5C16 12.7393 15.8718 12.9602 15.6641 13.0788L10.9974 15.7455C10.8039 15.8561 10.5679 15.8627 10.3685 15.763L5.35431 13.2559L0.997426 15.7455C0.791091 15.8634 0.537592 15.8626 0.332049 15.7433C0.126506 15.624 0 15.4043 0 15.1667V4.50002C0 4.26078 0.128191 4.03989 0.335907 3.92119L5.00257 1.25453ZM5.35431 2.5892L1.33333 4.8869V14.0179L5.00257 11.9212C5.19611 11.8106 5.43211 11.8041 5.63148 11.9037L10.6457 14.4108L14.6667 12.1131V2.98214L10.9974 5.07885C10.8039 5.18944 10.5679 5.19599 10.3685 5.09631L5.35431 2.5892Z" fill="#5A55AB"/>
<path fill-rule="evenodd" clip-rule="evenodd" d="M5.33366 1.16669C5.70185 1.16669 6.00033 1.46516 6.00033 1.83335V12.5C6.00033 12.8682 5.70185 13.1667 5.33366 13.1667C4.96547 13.1667 4.66699 12.8682 4.66699 12.5V1.83335C4.66699 1.46516 4.96547 1.16669 5.33366 1.16669Z" fill="#5A55AB"/>
<path fill-rule="evenodd" clip-rule="evenodd" d="M10.6667 3.83331C11.0349 3.83331 11.3333 4.13179 11.3333 4.49998V15.1666C11.3333 15.5348 11.0349 15.8333 10.6667 15.8333C10.2985 15.8333 10 15.5348 10 15.1666V4.49998C10 4.13179 10.2985 3.83331 10.6667 3.83331Z" fill="#5A55AB"/>
</svg>
