<svg width="24" height="24" viewBox="0 0 24 24" fill="none" xmlns="http://www.w3.org/2000/svg">
<path d="M22.0002 10.9C21.7002 6.1 17.9002 2.2 13.0002 2H12.5002C11.0002 2 9.60017 2.3 8.30017 3C5.00017 4.6 3.00017 7.9 3.00017 11.5C3.00017 12.8 3.30017 14.2 3.80017 15.4L2.00017 20.7C1.90017 21.1 2.00017 21.5 2.20017 21.7C2.50017 21.9 2.70017 22 3.00017 22C3.10017 22 3.20017 22 3.30017 21.9L8.60017 20.1C9.80017 20.6 11.1002 20.9 12.5002 20.9C16.1002 20.9 19.4002 18.9 21.0002 15.7C21.7002 14.4 22.0002 12.9 22.0002 11.4V10.9ZM20.0002 11.5C20.0002 12.7 19.7002 13.8 19.2002 14.9C17.9002 17.5 15.4002 19 12.5002 19C11.3002 19 10.2002 18.7 9.20017 18.2C9.00017 18.1 8.70017 18.1 8.40017 18.1L4.60017 19.4L5.90017 15.6C6.00017 15.3 6.00017 15.1 5.80017 14.8C5.30017 13.8 5.00017 12.6 5.00017 11.5C5.00017 8.6 6.60017 6.1 9.20017 4.8C10.2002 4.3 11.4002 4 12.5002 4H12.9002C16.7002 4.2 19.7002 7.2 20.0002 11V11.5Z" fill="#5A55AB"/>
</svg>
