<svg width="15" height="18" viewBox="0 0 15 18" fill="none" xmlns="http://www.w3.org/2000/svg">
<path fill-rule="evenodd" clip-rule="evenodd" d="M8.73535 2.99998C8.73535 2.63179 9.03383 2.33331 9.40202 2.33331H12.7354C13.1035 2.33331 13.402 2.63179 13.402 2.99998V6.33331C13.402 6.7015 13.1035 6.99998 12.7354 6.99998C12.3672 6.99998 12.0687 6.7015 12.0687 6.33331V3.66665H9.40202C9.03383 3.66665 8.73535 3.36817 8.73535 2.99998Z" fill="#556685"/>
<path fill-rule="evenodd" clip-rule="evenodd" d="M13.2068 2.52858C13.4671 2.78892 13.4671 3.21103 13.2068 3.47138L1.87342 14.8047C1.61307 15.0651 1.19096 15.0651 0.930614 14.8047C0.670264 14.5444 0.670264 14.1223 0.930614 13.8619L12.2639 2.52858C12.5243 2.26823 12.9464 2.26823 13.2068 2.52858Z" fill="#556685"/>
<path fill-rule="evenodd" clip-rule="evenodd" d="M12.7354 11C13.1035 11 13.402 11.2985 13.402 11.6667V15C13.402 15.3682 13.1035 15.6667 12.7354 15.6667H9.40202C9.03383 15.6667 8.73535 15.3682 8.73535 15C8.73535 14.6318 9.03383 14.3333 9.40202 14.3333H12.0687V11.6667C12.0687 11.2985 12.3672 11 12.7354 11Z" fill="#556685"/>
<path fill-rule="evenodd" clip-rule="evenodd" d="M8.26387 10.5286C8.52422 10.2682 8.94633 10.2682 9.20667 10.5286L13.2067 14.5286C13.467 14.7889 13.467 15.211 13.2067 15.4714C12.9463 15.7317 12.5242 15.7317 12.2639 15.4714L8.26387 11.4714C8.00352 11.211 8.00352 10.7889 8.26387 10.5286Z" fill="#556685"/>
<path fill-rule="evenodd" clip-rule="evenodd" d="M0.930614 3.19526C1.19096 2.93491 1.61307 2.93491 1.87342 3.19526L5.20676 6.5286C5.46711 6.78894 5.46711 7.21105 5.20676 7.4714C4.94641 7.73175 4.5243 7.73175 4.26395 7.4714L0.930614 4.13807C0.670264 3.87772 0.670264 3.45561 0.930614 3.19526Z" fill="#556685"/>
</svg>
