<svg width="25" height="24" viewBox="0 0 25 24" fill="none" xmlns="http://www.w3.org/2000/svg">
<path fill-rule="evenodd" clip-rule="evenodd" d="M7.13389 3.71045C7.40978 3.23202 8.02129 3.06783 8.49972 3.34372L17.4997 8.53372C17.9782 8.80962 18.1423 9.42113 17.8664 9.89956C17.5906 10.378 16.979 10.5422 16.5006 10.2663L7.50061 5.07629C7.02218 4.80039 6.85799 4.18888 7.13389 3.71045Z" fill="#5A55AB"/>
<path fill-rule="evenodd" clip-rule="evenodd" d="M11.0021 1.40276C11.4577 1.14026 11.9742 1.00208 12.5 1.00208C13.0258 1.00208 13.5424 1.14027 13.9979 1.4028C13.9986 1.4032 13.9993 1.4036 14 1.404L21 5.40399C21.4556 5.66704 21.834 6.04527 22.0973 6.50074C22.3606 6.95621 22.4995 7.47291 22.5 7.999V16.0011C22.4995 16.5271 22.3606 17.0438 22.0973 17.4993C21.834 17.9548 21.4556 18.333 21 18.5961L20.9961 18.5983L14 22.5961C13.9994 22.5964 13.9988 22.5967 13.9982 22.5971C13.5426 22.8597 13.0259 22.998 12.5 22.998C11.9741 22.998 11.4575 22.8597 11.0019 22.5971C11.0012 22.5968 11.0006 22.5964 11 22.5961L4.00386 18.5983L4 18.5961C3.54439 18.333 3.16597 17.9548 2.90269 17.4993C2.63941 17.0438 2.50054 16.5271 2.5 16.0011V7.999C2.50054 7.47291 2.63941 6.95621 2.90269 6.50074C3.16597 6.04527 3.54439 5.66704 4 5.404L4.00386 5.40177L11.0021 1.40276ZM12.5 3.00208C12.3245 3.00208 12.152 3.04828 12 3.13605L11.9961 3.13828L5 7.13605C4.99947 7.13635 4.99895 7.13666 4.99842 7.13696C4.84726 7.2246 4.72169 7.35033 4.63423 7.50163C4.54654 7.65333 4.50025 7.8254 4.5 8.00062V15.9994C4.50025 16.1746 4.54654 16.3467 4.63423 16.4984C4.72169 16.6497 4.84726 16.7754 4.99842 16.8631C4.99895 16.8634 4.99947 16.8637 5 16.864L12 20.864C12.152 20.9518 12.3245 20.998 12.5 20.998C12.6755 20.998 12.848 20.9518 13 20.864L13.0039 20.8618L20 16.864C20.0005 16.8637 20.0011 16.8634 20.0016 16.8631C20.1527 16.7754 20.2783 16.6497 20.3658 16.4984C20.4535 16.3466 20.4998 16.1744 20.5 15.999V8.00105C20.4998 7.82569 20.4535 7.65345 20.3658 7.50163C20.2783 7.35034 20.1527 7.22461 20.0016 7.13697C20.0011 7.13666 20.0005 7.13636 20 7.13605L13 3.13606C12.848 3.04829 12.6755 3.00208 12.5 3.00208Z" fill="#5A55AB"/>
<path fill-rule="evenodd" clip-rule="evenodd" d="M2.90458 6.45928C3.18112 5.98122 3.79285 5.81786 4.27091 6.0944L12.5002 10.8547L20.7295 6.0944C21.2075 5.81786 21.8193 5.98122 22.0958 6.45928C22.3723 6.93734 22.209 7.54907 21.7309 7.82561L13.0009 12.8756C12.6911 13.0548 12.3092 13.0548 11.9995 12.8756L3.26946 7.82561C2.7914 7.54907 2.62804 6.93734 2.90458 6.45928Z" fill="#5A55AB"/>
<path fill-rule="evenodd" clip-rule="evenodd" d="M12.5 11C13.0523 11 13.5 11.4477 13.5 12V22.08C13.5 22.6323 13.0523 23.08 12.5 23.08C11.9477 23.08 11.5 22.6323 11.5 22.08V12C11.5 11.4477 11.9477 11 12.5 11Z" fill="#5A55AB"/>
</svg>
