<svg width="69" height="68" viewBox="0 0 69 68" fill="none" xmlns="http://www.w3.org/2000/svg">
<path d="M0 4.5C0 2.29086 1.79086 0.5 4 0.5H47C49.2091 0.5 51 2.29086 51 4.5V67.5H11C4.92487 67.5 0 62.5751 0 56.5V4.5Z" fill="#556685"/>
<path d="M18.75 58.75C18.75 63.5825 14.8325 67.5 10 67.5H61V67.4683C65.4814 67.0879 69 63.3298 69 58.75C69 54.1702 65.4814 50.4121 61 50.0317V50H10C14.8325 50 18.75 53.9175 18.75 58.75Z" fill="#8494B2"/>
<rect x="7.625" y="12.625" width="35.75" height="5.25" rx="2.625" fill="#D9E1EE"/>
<rect x="7.625" y="23.875" width="23.125" height="5.25" rx="2.625" fill="#D9E1EE"/>
<rect x="7.625" y="35.125" width="35.75" height="5.25" rx="2.625" fill="#D9E1EE"/>
</svg>
