<svg className="svg-fill" width="30" height="30" viewBox="0 0 30 30" fill="none" xmlns="http://www.w3.org/2000/svg">
<path d="M6.9812 3.16166C4.98645 3.49559 3.50784 5.0808 3.24965 7.16091C3.17444 7.76168 3.23362 8.2178 3.45926 8.86857C3.7066 9.59714 4.30879 10.7375 4.9756 11.7609C5.65326 12.801 7.49215 15.2094 7.61027 15.2094C7.67488 15.2094 8.78779 13.8188 9.42229 12.94C10.9384 10.8375 11.7665 9.26347 11.9655 8.07877C12.0515 7.59484 11.9763 6.89407 11.7773 6.23769C11.4439 5.15299 10.5838 4.11855 9.56211 3.58998C8.86842 3.23411 7.72321 3.03946 6.9812 3.16166ZM8.33626 4.80809C9.5515 5.13616 10.46 6.33208 10.46 7.60045C10.46 8.41806 9.65877 9.96985 8.15328 12.0502C7.88449 12.4285 7.64258 12.7344 7.6157 12.7344C7.54591 12.7344 6.59946 11.4273 6.11021 10.6596C5.23379 9.27469 4.8089 8.33464 4.77142 7.70045C4.70138 6.42672 5.62095 5.1586 6.86283 4.81371C7.24999 4.70809 7.94367 4.70248 8.33626 4.80809Z" fill="#556685"/>
<path d="M7.15338 6.15385C6.66955 6.33727 6.3253 6.68778 6.16945 7.1661C5.92753 7.90029 6.33073 8.77912 7.05672 9.10183C7.32551 9.21866 7.89541 9.21866 8.16445 9.10183C9.11608 8.67912 9.4226 7.42197 8.77207 6.63217C8.36863 6.15385 7.70182 5.9536 7.15338 6.15385Z" fill="#556685"/>
<path d="M22.5523 13.0679C21.7405 13.1457 20.8532 13.524 20.2078 14.0691C18.9605 15.1148 18.3421 16.9727 18.7401 18.4577C19.0089 19.459 20.0789 21.3722 21.2993 23.0299C21.9338 23.8921 22.9338 25.1381 22.9929 25.1381C23.0576 25.1381 24.02 23.9199 24.7566 22.9133C26.4074 20.6551 27.2675 18.9475 27.375 17.7516C27.4451 16.9896 27.1491 15.8605 26.6868 15.1263C26.3802 14.6311 25.7243 13.9804 25.2511 13.6913C24.7995 13.4133 24.0627 13.1462 23.6326 13.0962C23.0576 13.0344 22.9555 13.0288 22.5523 13.0679ZM23.9288 14.7865C25.3159 15.2982 26.1548 16.8834 25.7248 18.2018C25.4614 19.0028 24.6171 20.4712 23.5956 21.884C23.2785 22.3289 23.0043 22.6906 22.988 22.6906C22.9397 22.685 21.9987 21.3556 21.5471 20.6549C20.6276 19.2309 20.1383 18.1465 20.1383 17.5288C20.1383 16.7669 20.4234 16.0992 20.9933 15.5153C21.4179 15.0814 21.7676 14.8645 22.2998 14.7087C22.6973 14.5918 23.5039 14.6309 23.9288 14.7865Z" fill="#556685"/>
<path d="M22.7026 16.0215C22.2563 16.1327 21.8262 16.4776 21.6112 16.9059C21.4553 17.2118 21.4713 17.9126 21.6435 18.2575C22.1919 19.381 23.692 19.4034 24.3211 18.3075C24.45 18.0794 24.4663 17.9904 24.4663 17.5733C24.4663 17.0225 24.3748 16.7835 24.0468 16.4442C23.6974 16.0827 23.149 15.9103 22.7026 16.0215Z" fill="#556685"/>
<path d="M7.19639 16.0436C6.94363 16.1548 6.82008 16.4441 6.90072 16.7334C6.99221 17.0393 7.16409 17.1339 7.68565 17.1673C8.25554 17.2061 8.55121 17.1227 8.68586 16.8893C8.74504 16.789 8.79338 16.6556 8.79338 16.5834C8.79338 16.3831 8.64813 16.1385 8.47082 16.0439C8.26639 15.9324 7.43855 15.9324 7.19639 16.0436Z" fill="#556685"/>
<path d="M10.0464 16.2103C9.86907 16.394 9.85822 16.4272 9.8851 16.6665C9.92283 17.0114 10.0895 17.167 10.4713 17.206C11.8747 17.3507 12.0142 17.3563 12.138 17.2894C12.3476 17.1838 12.45 17.0058 12.45 16.7499C12.45 16.5552 12.4177 16.4774 12.2996 16.3494C12.1383 16.1825 12.0631 16.1659 11.0791 16.0713C10.2614 15.9935 10.2562 15.9935 10.0464 16.2103Z" fill="#556685"/>
<path d="M13.6266 16.9559C13.503 17.0839 13.4707 17.1673 13.4707 17.3508C13.4707 17.601 13.5513 17.7066 14.0515 18.1184C14.2182 18.2574 14.2934 18.363 14.3365 18.5523C14.4869 19.1696 15.2075 19.2752 15.4388 18.7135C15.498 18.5579 15.498 18.4855 15.428 18.2074C15.3313 17.8125 15.2129 17.6179 14.9118 17.3173C14.3471 16.7556 13.9331 16.6388 13.6266 16.9559Z" fill="#556685"/>
<path d="M13.3043 19.3749C13.2937 19.3918 12.9334 19.503 12.5031 19.6252C11.6213 19.8754 11.4814 19.9757 11.4814 20.3428C11.4814 20.6043 11.605 20.7877 11.8417 20.8879C12.0139 20.9657 12.0782 20.9548 12.761 20.7711C13.6804 20.5208 13.8471 20.4374 13.9709 20.1759C14.0998 19.9035 14.0192 19.6142 13.7719 19.4583C13.6217 19.364 13.3635 19.3193 13.3043 19.3749Z" fill="#556685"/>
<path d="M9.01346 20.4656C8.59399 20.5768 8.17995 20.7215 8.09931 20.7827C7.62091 21.1498 8.01325 21.9508 8.59942 21.7949C9.48126 21.5725 10.1318 21.3778 10.2287 21.311C10.406 21.1942 10.4921 20.8549 10.406 20.6268C10.3254 20.4378 10.0672 20.2431 9.8953 20.2485C9.83612 20.2485 9.43835 20.3487 9.01346 20.4656Z" fill="#556685"/>
<path d="M6.12098 21.873C5.78758 22.1844 5.61027 22.5793 5.57797 23.0633C5.52964 23.8197 5.76612 24.248 6.22307 24.248C6.38977 24.248 6.47041 24.209 6.59938 24.0811C6.76065 23.9087 6.76065 23.9031 6.72835 23.4804C6.69604 23.0355 6.69604 23.0355 6.94881 22.6293C7.20699 22.2344 7.00799 21.7671 6.55622 21.7061C6.35746 21.6783 6.30913 21.6949 6.12098 21.873Z" fill="#556685"/>
<path d="M7.57796 24.5481C7.28229 24.854 7.3575 25.3045 7.73381 25.4938C7.98657 25.616 9.20156 25.9721 9.36284 25.9721C9.54014 25.9721 9.79833 25.8331 9.86837 25.6997C9.89525 25.6384 9.92213 25.4882 9.92213 25.366C9.92213 24.9933 9.78231 24.8876 9.00798 24.6708C8.63685 24.5652 8.26597 24.454 8.18533 24.4205C7.92221 24.3144 7.77154 24.3478 7.57796 24.5481Z" fill="#556685"/>
<path d="M11.3417 25.2713C10.8578 25.4938 10.8901 26.1892 11.39 26.356C11.4815 26.3838 11.9061 26.456 12.3256 26.5063C12.9601 26.5841 13.116 26.5897 13.2558 26.5284C13.6698 26.3504 13.6804 25.6496 13.2718 25.4828C13.1912 25.4494 12.82 25.3828 12.4492 25.3325C12.0783 25.2881 11.718 25.2379 11.6425 25.2213C11.5676 25.2101 11.4332 25.2325 11.3417 25.2713Z" fill="#556685"/>
<path d="M14.9662 25.6658C14.805 25.7604 14.6543 26.0107 14.6543 26.1941C14.6543 26.3944 14.8156 26.6446 14.9983 26.7224C15.1004 26.7668 15.5144 26.8171 16.0306 26.8393L16.8855 26.8783L17.0577 26.728C17.2673 26.5444 17.321 26.3219 17.2135 26.066C17.1006 25.7768 16.9284 25.7099 16.1329 25.6711C15.7512 25.649 15.364 25.6211 15.2725 25.6046C15.1867 25.5936 15.0469 25.6214 14.9662 25.6658Z" fill="#556685"/>
<path d="M18.6649 25.8883C18.4444 26.0107 18.3692 26.1329 18.3638 26.3778C18.3638 26.8896 18.5196 26.9618 19.7026 26.9842L20.6273 27.0008L20.7886 26.8171C21.0843 26.4778 20.9499 25.9827 20.5252 25.8605C20.2027 25.7717 18.853 25.7883 18.6649 25.8883Z" fill="#556685"/>
<path d="M22.2784 26.0222C22.128 26.1612 22.1008 26.2224 22.1008 26.4393C22.1008 26.6395 22.1331 26.723 22.2513 26.8454C22.3911 26.99 22.4288 27.001 22.9504 27.0179C23.5849 27.04 23.7516 26.99 23.902 26.7398C24.0524 26.4895 24.0149 26.2171 23.7945 26.0112C23.6386 25.8666 23.6117 25.8609 23.0419 25.8609C22.4665 25.8607 22.4505 25.8663 22.2784 26.0222Z" fill="#556685"/>
</svg>
