<?xml version="1.0" encoding="UTF-8"?>
<svg width="16px" height="16px" viewBox="0 0 16 16" version="1.1" xmlns="http://www.w3.org/2000/svg" xmlns:xlink="http://www.w3.org/1999/xlink">
    <!-- Generator: Sketch 58 (84663) - https://sketch.com -->
    <title>pen-01</title>
    <desc>Created with Sketch.</desc>
    <g id="Symbols" stroke="none" stroke-width="1" fill="none" fill-rule="evenodd">
        <g id="icons-/-edit" transform="translate(-4.000000, -4.000000)" fill="#5A55AB">
            <g id="pen-01" transform="translate(4.000000, 4.000000)">
                <path d="M11.8535534,0.146446609 L15.8535534,4.14644661 C16.0488155,4.34170876 16.0488155,4.65829124 15.8535534,4.85355339 L5.85355339,14.8535534 C5.78375312,14.9233537 5.69485363,14.9709312 5.59805807,14.9902903 L0.598058068,15.9902903 C0.2481975,16.0602625 -0.0602624514,15.7518025 0.00970966215,15.4019419 L1.00970966,10.4019419 C1.02906877,10.3051464 1.07664634,10.2162469 1.14644661,10.1464466 L11.1464466,0.146446609 C11.3417088,-0.0488155365 11.6582912,-0.0488155365 11.8535534,0.146446609 Z M8.99972202,3.707 L1.96060074,10.746506 L1.13737744,14.8626226 L5.25349396,14.0393993 L12.292722,7 L8.99972202,3.707 Z M11.5,1.20710678 L9.70672202,3 L12.999722,6.293 L14.7928932,4.5 L11.5,1.20710678 Z" id="Combined-Shape"></path>
            </g>
        </g>
    </g>
</svg>