<svg width="20" height="21" viewBox="0 0 20 21" fill="none" xmlns="http://www.w3.org/2000/svg">
<path fill-rule="evenodd" clip-rule="evenodd" d="M9.99992 2.99998C5.85778 2.99998 2.49992 6.35784 2.49992 10.5C2.49992 14.6421 5.85778 18 9.99992 18C14.1421 18 17.4999 14.6421 17.4999 10.5C17.4999 6.35784 14.1421 2.99998 9.99992 2.99998ZM0.833252 10.5C0.833252 5.43737 4.93731 1.33331 9.99992 1.33331C15.0625 1.33331 19.1666 5.43737 19.1666 10.5C19.1666 15.5626 15.0625 19.6666 9.99992 19.6666C4.93731 19.6666 0.833252 15.5626 0.833252 10.5Z" fill="white"/>
<path fill-rule="evenodd" clip-rule="evenodd" d="M10.0001 6.33331C10.4603 6.33331 10.8334 6.70641 10.8334 7.16665V13.8333C10.8334 14.2936 10.4603 14.6666 10.0001 14.6666C9.53984 14.6666 9.16675 14.2936 9.16675 13.8333V7.16665C9.16675 6.70641 9.53984 6.33331 10.0001 6.33331Z" fill="white"/>
<path fill-rule="evenodd" clip-rule="evenodd" d="M5.83325 10.5C5.83325 10.0398 6.20635 9.66669 6.66659 9.66669H13.3333C13.7935 9.66669 14.1666 10.0398 14.1666 10.5C14.1666 10.9603 13.7935 11.3334 13.3333 11.3334H6.66659C6.20635 11.3334 5.83325 10.9603 5.83325 10.5Z" fill="white"/>
</svg>
