<svg width="20" height="20" viewBox="0 0 20 20" fill="none" xmlns="http://www.w3.org/2000/svg">
<path fill-rule="evenodd" clip-rule="evenodd" d="M10 2.49998C5.85786 2.49998 2.5 5.85784 2.5 9.99998C2.5 14.1421 5.85786 17.5 10 17.5C14.1421 17.5 17.5 14.1421 17.5 9.99998C17.5 5.85784 14.1421 2.49998 10 2.49998ZM0.833334 9.99998C0.833334 4.93737 4.93739 0.833313 10 0.833313C15.0626 0.833313 19.1667 4.93737 19.1667 9.99998C19.1667 15.0626 15.0626 19.1666 10 19.1666C4.93739 19.1666 0.833334 15.0626 0.833334 9.99998Z" fill="#5A55AB"/>
<path fill-rule="evenodd" clip-rule="evenodd" d="M10 5.83331C10.4602 5.83331 10.8333 6.20641 10.8333 6.66665V13.3333C10.8333 13.7936 10.4602 14.1666 10 14.1666C9.53976 14.1666 9.16667 13.7936 9.16667 13.3333V6.66665C9.16667 6.20641 9.53976 5.83331 10 5.83331Z" fill="#6B66B3"/>
<path fill-rule="evenodd" clip-rule="evenodd" d="M5.83333 10C5.83333 9.53978 6.20643 9.16669 6.66667 9.16669H13.3333C13.7936 9.16669 14.1667 9.53978 14.1667 10C14.1667 10.4603 13.7936 10.8334 13.3333 10.8334H6.66667C6.20643 10.8334 5.83333 10.4603 5.83333 10Z" fill="#6B66B3"/>
</svg>
