<svg width="15" height="13" viewBox="0 0 15 13" fill="none" xmlns="http://www.w3.org/2000/svg">
<path fill-rule="evenodd" clip-rule="evenodd" d="M5.7915 0C6.06052 0 6.29936 0.172144 6.38443 0.427358L9.5415 9.89858L10.8236 6.05236C10.9086 5.79714 11.1475 5.625 11.4165 5.625H13.9165C14.2617 5.625 14.5415 5.90482 14.5415 6.25C14.5415 6.59518 14.2617 6.875 13.9165 6.875H11.867L10.1344 12.0726C10.0494 12.3279 9.81052 12.5 9.5415 12.5C9.27248 12.5 9.03365 12.3279 8.94858 12.0726L5.7915 2.60142L4.50943 6.44764C4.42436 6.70286 4.18552 6.875 3.9165 6.875H1.4165C1.07133 6.875 0.791504 6.59518 0.791504 6.25C0.791504 5.90482 1.07133 5.625 1.4165 5.625H3.46603L5.19858 0.427358C5.28365 0.172144 5.52248 0 5.7915 0Z" fill="#3B4B66"/>
</svg>
