<svg width="13" height="14" viewBox="0 0 13 14" fill="none" xmlns="http://www.w3.org/2000/svg">
<rect width="13" height="14" fill="#E5E5E5"/>
<g clip-path="url(#clip0_1:34)">
<rect width="1680" height="1200" transform="translate(-685 -141)" fill="#FAFAFD"/>
<path fill-rule="evenodd" clip-rule="evenodd" d="M5.55261 0.376773C5.83732 0.212708 6.16015 0.126343 6.48877 0.126343C6.8174 0.126343 7.14025 0.212715 7.42496 0.376793C7.4254 0.377043 7.42583 0.377294 7.42627 0.377545L11.8013 2.87754C12.086 3.04195 12.3225 3.27834 12.4871 3.56301C12.6516 3.84768 12.7384 4.17062 12.7388 4.49942V9.5007C12.7384 9.82951 12.6516 10.1524 12.4871 10.4371C12.3225 10.7218 12.086 10.9582 11.8013 11.1226L11.7989 11.124L7.42627 13.6226C7.42589 13.6228 7.42552 13.623 7.42515 13.6232C7.14038 13.7874 6.81747 13.8738 6.48877 13.8738C6.16008 13.8738 5.83718 13.7874 5.55243 13.6232C5.55204 13.623 5.55165 13.6228 5.55127 13.6226L1.17868 11.124L1.17627 11.1226C0.891515 10.9582 0.655001 10.7218 0.490452 10.4371C0.325903 10.1524 0.239107 9.82951 0.23877 9.5007V4.49942C0.239107 4.17061 0.325903 3.84768 0.490452 3.56301C0.655001 3.27834 0.891516 3.04195 1.17627 2.87754L1.17868 2.87615L5.55261 0.376773ZM6.48877 1.37634C6.37906 1.37634 6.27128 1.40522 6.17627 1.46008L6.17386 1.46147L1.80127 3.96008C1.80094 3.96027 1.80061 3.96046 1.80028 3.96065C1.70581 4.01542 1.62732 4.094 1.57266 4.18857C1.51786 4.28338 1.48893 4.39092 1.48877 4.50043V9.49969C1.48893 9.6092 1.51786 9.71674 1.57266 9.81156C1.62732 9.90612 1.70581 9.9847 1.80028 10.0395C1.80061 10.0397 1.80094 10.0399 1.80127 10.04L6.17627 12.54C6.27128 12.5949 6.37906 12.6238 6.48877 12.6238C6.59848 12.6238 6.70626 12.5949 6.80127 12.54L6.80368 12.5387L11.1763 10.04C11.1766 10.0399 11.1769 10.0397 11.1773 10.0395C11.2717 9.9847 11.3502 9.90612 11.4049 9.81156C11.4597 9.71667 11.4887 9.60902 11.4888 9.49942V4.5007C11.4887 4.3911 11.4597 4.28345 11.4049 4.18857C11.3502 4.09401 11.2717 4.01543 11.1773 3.96065C11.1769 3.96046 11.1766 3.96027 11.1763 3.96008L6.80127 1.46008C6.70625 1.40523 6.59848 1.37634 6.48877 1.37634Z" fill="#556685"/>
<path fill-rule="evenodd" clip-rule="evenodd" d="M0.491326 3.53701C0.664165 3.23822 1.04649 3.13611 1.34528 3.30895L6.48858 6.28417L11.6319 3.30895C11.9307 3.13611 12.313 3.23822 12.4858 3.53701C12.6587 3.83579 12.5566 4.21812 12.2578 4.39096L6.80153 7.54721C6.60793 7.6592 6.36923 7.6592 6.17563 7.54721L0.719378 4.39096C0.42059 4.21812 0.318487 3.83579 0.491326 3.53701Z" fill="#556685"/>
<path fill-rule="evenodd" clip-rule="evenodd" d="M6.48877 6.375C6.83395 6.375 7.11377 6.65482 7.11377 7V13.3C7.11377 13.6452 6.83395 13.925 6.48877 13.925C6.14359 13.925 5.86377 13.6452 5.86377 13.3V7C5.86377 6.65482 6.14359 6.375 6.48877 6.375Z" fill="#556685"/>
</g>
<defs>
<clipPath id="clip0_1:34">
<rect width="1680" height="1200" fill="white" transform="translate(-685 -141)"/>
</clipPath>
</defs>
</svg>
