<svg width="20" height="16" viewBox="0 0 20 16" fill="none" xmlns="http://www.w3.org/2000/svg">
<rect width="20" height="16" fill="#E5E5E5"/>
<rect width="1680" height="2331" transform="translate(-466 -1828)" fill="#FAFAFD"/>
<rect x="-231" y="-158.5" width="804" height="351" rx="4" fill="white"/>
<g clip-path="url(#clip0_128:18752)">
<g clip-path="url(#clip1_128:18752)">
<path d="M10.0449 10.7582H8.03589C6.38813 10.7576 4.77154 11.199 3.36089 12.0348C1.95023 12.8705 0.799171 14.0688 0.032145 15.5C0.0105853 15.2344 -0.000137899 14.968 1.33859e-06 14.7015C1.33859e-06 9.25681 4.49709 4.84329 10.0449 4.84329V1.48768C10.0449 0.658411 11.0246 0.199683 11.6814 0.721457L19.6275 7.03453C20.1242 7.42908 20.1242 8.17242 19.6275 8.56697L11.6814 14.88C11.0246 15.4018 10.0449 14.9431 10.0449 14.1138V10.7582ZM8.03589 8.78657L11.6814 8.77366V12.6459L18.0859 7.84003L11.6814 2.78771V6.80202L10.0449 6.81493C8.88996 6.81366 7.7484 7.05726 6.69831 7.52908C5.64821 8.0009 4.71438 8.68979 3.96069 9.54861C5.2578 9.04408 6.64062 8.78551 8.03589 8.78657Z" fill="#556685"/>
</g>
</g>
<defs>
<clipPath id="clip0_128:18752">
<rect x="-1" y="-2.5" width="62" height="22" rx="4" fill="white"/>
</clipPath>
<clipPath id="clip1_128:18752">
<rect width="62" height="22" fill="white" transform="translate(-1 -2.5)"/>
</clipPath>
</defs>
</svg>
