<svg width="17" height="19" viewBox="0 0 17 19" fill="none" xmlns="http://www.w3.org/2000/svg">
<path fill-rule="evenodd" clip-rule="evenodd" d="M1.16667 3.25C1.53486 3.25 1.83333 3.54848 1.83333 3.91667V7.25H5.16667C5.53486 7.25 5.83333 7.54848 5.83333 7.91667C5.83333 8.28486 5.53486 8.58333 5.16667 8.58333H1.16667C0.798477 8.58333 0.5 8.28486 0.5 7.91667V3.91667C0.5 3.54848 0.798477 3.25 1.16667 3.25Z" fill="#6B66B3"/>
<path fill-rule="evenodd" clip-rule="evenodd" d="M7.57024 2.65457C9.00152 2.45319 10.4595 2.72243 11.7244 3.42171C12.9894 4.12099 13.9928 5.21244 14.5835 6.53159C15.1742 7.85074 15.3202 9.32614 14.9995 10.7355C14.6788 12.1448 13.9088 13.4118 12.8054 14.3454C11.702 15.2791 10.3251 15.8288 8.88212 15.9119C7.43913 15.9949 6.00824 15.6068 4.80504 14.8059C3.60184 14.005 2.69151 12.8348 2.21122 11.4715C2.08887 11.1243 2.2712 10.7436 2.61847 10.6212C2.96574 10.4989 3.34644 10.6812 3.46879 11.0285C3.85302 12.1191 4.58128 13.0552 5.54384 13.6959C6.5064 14.3366 7.65112 14.6472 8.80551 14.5807C9.9599 14.5143 11.0614 14.0745 11.9441 13.3276C12.8268 12.5807 13.4429 11.5671 13.6994 10.4396C13.956 9.31216 13.8392 8.13184 13.3666 7.07652C12.8941 6.02119 12.0913 5.14804 11.0794 4.58861C10.0674 4.02919 8.90102 3.8138 7.756 3.9749C6.61098 4.13599 5.54933 4.66485 4.73101 5.48179C4.72625 5.48654 4.72142 5.49122 4.71652 5.49582L1.62319 8.40249C1.35487 8.65462 0.932961 8.64149 0.680833 8.37317C0.428706 8.10485 0.441831 7.68295 0.710151 7.43082L3.79633 4.53088C4.81823 3.51386 6.14238 2.85546 7.57024 2.65457Z" fill="#6B66B3"/>
</svg>
