<svg width="25" height="22" viewBox="0 0 25 22" fill="none" xmlns="http://www.w3.org/2000/svg">
<path fill-rule="evenodd" clip-rule="evenodd" d="M13.0002 3.49998C8.85803 3.49998 5.50016 6.85784 5.50016 11C5.50016 15.1421 8.85803 18.5 13.0002 18.5C17.1423 18.5 20.5002 15.1421 20.5002 11C20.5002 6.85784 17.1423 3.49998 13.0002 3.49998ZM3.8335 11C3.8335 5.93737 7.93755 1.83331 13.0002 1.83331C18.0628 1.83331 22.1668 5.93737 22.1668 11C22.1668 16.0626 18.0628 20.1666 13.0002 20.1666C7.93755 20.1666 3.8335 16.0626 3.8335 11Z" fill="white"/>
<path fill-rule="evenodd" clip-rule="evenodd" d="M12.4106 7.07739C12.736 6.75195 13.2637 6.75195 13.5891 7.07739L16.9224 10.4107C17.2479 10.7362 17.2479 11.2638 16.9224 11.5892L13.5891 14.9226C13.2637 15.248 12.736 15.248 12.4106 14.9226C12.0851 14.5971 12.0851 14.0695 12.4106 13.7441L15.1547 11L12.4106 8.2559C12.0851 7.93047 12.0851 7.40283 12.4106 7.07739Z" fill="white"/>
<path fill-rule="evenodd" clip-rule="evenodd" d="M8.8335 11C8.8335 10.5398 9.20659 10.1667 9.66683 10.1667H16.3335C16.7937 10.1667 17.1668 10.5398 17.1668 11C17.1668 11.4603 16.7937 11.8334 16.3335 11.8334H9.66683C9.20659 11.8334 8.8335 11.4603 8.8335 11Z" fill="white"/>
</svg>
