<svg width="17" height="16" viewBox="0 0 17 16" fill="none" xmlns="http://www.w3.org/2000/svg">
<path fill-rule="evenodd" clip-rule="evenodd" d="M15.6384 0.861888C15.8987 1.12224 15.8987 1.54435 15.6384 1.8047L8.30506 9.13803C8.04471 9.39838 7.6226 9.39838 7.36225 9.13803C7.1019 8.87768 7.1019 8.45557 7.36225 8.19522L14.6956 0.861888C14.9559 0.601539 15.378 0.601539 15.6384 0.861888Z" fill="#5296CA"/>
<path fill-rule="evenodd" clip-rule="evenodd" d="M15.6384 0.861907C15.8195 1.043 15.8808 1.31182 15.7962 1.55354L11.1296 14.8869C11.0393 15.1449 10.8006 15.3216 10.5275 15.3328C10.2544 15.3439 10.0021 15.1872 9.89112 14.9374L7.32859 9.17171L1.5629 6.60919C1.31312 6.49817 1.15641 6.24592 1.16755 5.9728C1.17869 5.69968 1.35543 5.46104 1.61343 5.37074L14.9468 0.704072C15.1885 0.619469 15.4573 0.680815 15.6384 0.861907ZM3.64105 6.07371L8.10442 8.05744C8.25524 8.12447 8.37584 8.24506 8.44287 8.39589L10.4266 12.8593L14.0803 2.41996L3.64105 6.07371Z" fill="#5296CA"/>
</svg>
