<svg width="16" height="19" viewBox="0 0 16 19" fill="none" xmlns="http://www.w3.org/2000/svg">
<path fill-rule="evenodd" clip-rule="evenodd" d="M15.138 2.52868C15.3372 2.7279 15.3897 3.03085 15.2691 3.28547L9.26909 15.9521C9.14855 16.2066 8.88112 16.3579 8.60091 16.3302C8.3207 16.3024 8.08813 16.1016 8.01984 15.8284L6.78352 10.8832L1.83824 9.64684C1.56507 9.57855 1.36426 9.34598 1.33651 9.06577C1.30877 8.78556 1.46007 8.51813 1.71454 8.39759L14.3812 2.39759C14.6358 2.27698 14.9388 2.32945 15.138 2.52868ZM3.96883 8.80512L7.49496 9.68665C7.73382 9.74637 7.92032 9.93287 7.98003 10.1717L8.86156 13.6978L13.265 4.40167L3.96883 8.80512Z" fill="white"/>
</svg>
