<svg width="16" height="16" viewBox="0 0 16 16" fill="none" xmlns="http://www.w3.org/2000/svg">
<g clip-path="url(#clip0_212:13938)">
<path fill-rule="evenodd" clip-rule="evenodd" d="M8.29138 6.75C7.60103 6.75 7.04138 7.30964 7.04138 8C7.04138 8.69036 7.60103 9.25 8.29138 9.25C8.98174 9.25 9.54138 8.69036 9.54138 8C9.54138 7.30964 8.98174 6.75 8.29138 6.75ZM5.79138 8C5.79138 6.61929 6.91067 5.5 8.29138 5.5C9.67209 5.5 10.7914 6.61929 10.7914 8C10.7914 9.38071 9.67209 10.5 8.29138 10.5C6.91067 10.5 5.79138 9.38071 5.79138 8Z" fill="#556685"/>
<path fill-rule="evenodd" clip-rule="evenodd" d="M8.29138 1.75C8.12562 1.75 7.96665 1.81585 7.84944 1.93306C7.73223 2.05027 7.66638 2.20924 7.66638 2.375V2.48374C7.66509 2.80675 7.56938 3.12233 7.39103 3.39163C7.21268 3.66094 6.95948 3.87222 6.66259 3.99946C6.60974 4.02211 6.55414 4.03731 6.49739 4.04473C6.22762 4.1392 5.93721 4.16248 5.65451 4.11123C5.32888 4.05218 5.02841 3.89695 4.79184 3.66554L4.78691 3.66072L4.74944 3.62319C4.69139 3.56508 4.62222 3.51874 4.54634 3.48728C4.47047 3.45583 4.38914 3.43964 4.30701 3.43964C4.22487 3.43964 4.14354 3.45583 4.06767 3.48728C3.9918 3.51874 3.92286 3.56484 3.86482 3.62295L3.86433 3.62344C3.80622 3.68148 3.76012 3.75041 3.72867 3.82629C3.69721 3.90216 3.68102 3.98349 3.68102 4.06562C3.68102 4.14776 3.69721 4.22909 3.72867 4.30496C3.76012 4.38084 3.80622 4.44977 3.86433 4.50781L3.90695 4.55043C4.13836 4.787 4.29357 5.0875 4.35261 5.41313C4.41047 5.73227 4.37334 6.06123 4.24604 6.35923C4.13006 6.66333 3.92699 6.92667 3.66204 7.11618C3.39172 7.30951 3.0695 7.41706 2.73725 7.42483L2.72263 7.425H2.66638C2.50062 7.425 2.34165 7.49085 2.22444 7.60806C2.10723 7.72527 2.04138 7.88424 2.04138 8.05C2.04138 8.21576 2.10723 8.37473 2.22444 8.49194C2.34165 8.60915 2.50062 8.675 2.66638 8.675H2.77512C3.09813 8.67629 3.41371 8.772 3.68302 8.95035C3.95139 9.12808 4.16213 9.38015 4.28951 9.6757C4.42206 9.97766 4.46145 10.3123 4.40261 10.6369C4.34357 10.9625 4.18833 11.263 3.95692 11.4995L3.9521 11.5045L3.91457 11.5419C3.85646 11.6 3.81012 11.6692 3.77867 11.745C3.74721 11.8209 3.73102 11.9022 3.73102 11.9844C3.73102 12.0665 3.74721 12.1478 3.77867 12.2237C3.81012 12.2996 3.85622 12.3685 3.91433 12.4266L3.91482 12.4271C3.97286 12.4852 4.04179 12.5313 4.11767 12.5627C4.19354 12.5942 4.27487 12.6104 4.35701 12.6104C4.43914 12.6104 4.52047 12.5942 4.59634 12.5627C4.67222 12.5313 4.74115 12.4852 4.79919 12.4271L4.84181 12.3844C5.07839 12.153 5.37888 11.9978 5.70451 11.9388C6.02365 11.8809 6.35261 11.918 6.65061 12.0453C6.95471 12.1613 7.21805 12.3644 7.40756 12.6293C7.60089 12.8997 7.70844 13.2219 7.71621 13.5541L7.71638 13.5688V13.625C7.71638 13.7908 7.78223 13.9497 7.89944 14.0669C8.01665 14.1842 8.17562 14.25 8.34138 14.25C8.50714 14.25 8.66611 14.1842 8.78332 14.0669C8.90053 13.9497 8.96638 13.7908 8.96638 13.625V13.5188L8.96639 13.5163C8.96768 13.1933 9.06339 12.8777 9.24173 12.6084C9.41948 12.34 9.67157 12.1292 9.96716 12.0018C10.2691 11.8693 10.6038 11.8299 10.9283 11.8888C11.2539 11.9478 11.5543 12.1031 11.7909 12.3345L11.7958 12.3393L11.8333 12.3768C11.8914 12.4349 11.9605 12.4813 12.0364 12.5127C12.1123 12.5442 12.1936 12.5604 12.2758 12.5604C12.3579 12.5604 12.4392 12.5442 12.5151 12.5127C12.591 12.4813 12.6599 12.4352 12.7179 12.3771L12.7184 12.3766C12.7765 12.3185 12.8226 12.2496 12.8541 12.1737C12.8856 12.0978 12.9017 12.0165 12.9017 11.9344C12.9017 11.8522 12.8856 11.7709 12.8541 11.695C12.8226 11.6192 12.7765 11.5502 12.7184 11.4922L12.6758 11.4496C12.4444 11.213 12.2892 10.9125 12.2302 10.5869C12.1713 10.2624 12.2107 9.92772 12.3432 9.62577C12.4706 9.33019 12.6814 9.07809 12.9497 8.90035C13.2191 8.722 13.5346 8.62629 13.8576 8.625L13.8601 8.625L13.9164 8.625C14.0821 8.625 14.2411 8.55915 14.3583 8.44194C14.4755 8.32473 14.5414 8.16576 14.5414 8C14.5414 7.83424 14.4755 7.67527 14.3583 7.55806C14.2411 7.44085 14.0821 7.375 13.9164 7.375H13.8101L13.8076 7.375C13.4846 7.37371 13.1691 7.278 12.8997 7.09965C12.6304 6.9213 12.4192 6.6681 12.2919 6.37121C12.2693 6.31836 12.2541 6.26276 12.2467 6.20601C12.1522 5.93623 12.1289 5.64583 12.1802 5.36313C12.2392 5.0375 12.3944 4.73703 12.6258 4.50046L12.6307 4.49553L12.6682 4.45806C12.7263 4.40001 12.7726 4.33084 12.8041 4.25496C12.8356 4.17909 12.8517 4.09776 12.8517 4.01562C12.8517 3.93349 12.8356 3.85216 12.8041 3.77629C12.7726 3.70041 12.7265 3.63148 12.6684 3.57344L12.6679 3.57295C12.6099 3.51484 12.541 3.46874 12.4651 3.43728C12.3892 3.40583 12.3079 3.38964 12.2258 3.38964C12.1436 3.38964 12.0623 3.40583 11.9864 3.43728C11.9105 3.46874 11.8416 3.51484 11.7836 3.57295L11.7409 3.61557C11.5044 3.84698 11.2039 4.00218 10.8783 4.06123C10.5537 4.12007 10.219 4.08068 9.91708 3.94813C9.62153 3.82075 9.36946 3.61 9.19173 3.34163C9.01338 3.07233 8.91768 2.75675 8.91639 2.43374L8.91638 2.43125V2.375C8.91638 2.20924 8.85053 2.05027 8.73332 1.93306C8.61611 1.81585 8.45714 1.75 8.29138 1.75ZM12.9164 9.875L13.4882 10.1274C13.4554 10.2016 13.4456 10.284 13.4601 10.3639C13.4744 10.4429 13.5118 10.5158 13.5676 10.5735L13.6018 10.6078C13.6019 10.6079 13.6017 10.6077 13.6018 10.6078C13.776 10.7819 13.9145 10.9888 14.0088 11.2164C14.1032 11.444 14.1517 11.688 14.1517 11.9344C14.1517 12.1808 14.1032 12.4248 14.0088 12.6524C13.9145 12.88 13.7762 13.0868 13.6018 13.2609L13.1601 12.8187L13.6023 13.2604C13.4282 13.4348 13.2214 13.5731 12.9938 13.6674C12.7661 13.7618 12.5222 13.8104 12.2758 13.8104C12.0294 13.8104 11.7854 13.7618 11.5577 13.6674C11.3302 13.5731 11.1235 13.4349 10.9494 13.2607C10.9494 13.2606 10.9495 13.2608 10.9494 13.2607L10.9149 13.2262C10.8572 13.1704 10.7842 13.133 10.7052 13.1187C10.6254 13.1042 10.543 13.114 10.4687 13.1468L10.4626 13.1495C10.3898 13.1807 10.3277 13.2325 10.2839 13.2986C10.2403 13.3644 10.2169 13.4414 10.2164 13.5203V13.625C10.2164 14.1223 10.0188 14.5992 9.66721 14.9508C9.31558 15.3025 8.83866 15.5 8.34138 15.5C7.8441 15.5 7.36719 15.3025 7.01556 14.9508C6.66393 14.5992 6.46638 14.1223 6.46638 13.625V13.5777C6.46342 13.4982 6.43717 13.4213 6.39084 13.3565C6.34342 13.2902 6.27715 13.2397 6.20064 13.2116C6.18829 13.207 6.17607 13.2021 6.16403 13.1968C6.08977 13.164 6.00739 13.1542 5.92752 13.1687C5.84852 13.183 5.77555 13.2205 5.71782 13.2762L5.68357 13.3104C5.68349 13.3105 5.68365 13.3104 5.68357 13.3104C5.50948 13.4847 5.30254 13.6231 5.07502 13.7174C4.8474 13.8118 4.60341 13.8604 4.35701 13.8604C4.1106 13.8604 3.86661 13.8118 3.63899 13.7174C3.41159 13.6232 3.20497 13.485 3.03094 13.3109C2.8566 13.1368 2.71831 12.93 2.62395 12.7024C2.52959 12.4748 2.48102 12.2308 2.48102 11.9844C2.48102 11.738 2.52959 11.494 2.62395 11.2664C2.71831 11.0387 2.8566 10.8319 3.03094 10.6578L3.0652 10.6235C3.12093 10.5658 3.15834 10.4929 3.17266 10.4139C3.18714 10.334 3.17737 10.2516 3.14459 10.1774L3.14189 10.1712C3.11068 10.0984 3.05889 10.0363 2.99283 9.99253C2.92703 9.94896 2.84997 9.9255 2.77107 9.925H2.66638C2.1691 9.925 1.69219 9.72746 1.34056 9.37582C0.988926 9.02419 0.791382 8.54728 0.791382 8.05C0.791382 7.55272 0.988926 7.07581 1.34056 6.72417C1.69219 6.37254 2.1691 6.175 2.66638 6.175H2.71366C2.79315 6.17204 2.87008 6.14579 2.93485 6.09946C3.00115 6.05204 3.05166 5.98577 3.0798 5.90926C3.08434 5.8969 3.08928 5.88469 3.09459 5.87265C3.12737 5.79839 3.13714 5.71601 3.12266 5.63614C3.10834 5.55714 3.07093 5.48417 3.01519 5.42644L2.98094 5.39219C2.80661 5.21805 2.66831 5.01126 2.57395 4.78364C2.47959 4.55602 2.43102 4.31203 2.43102 4.06562C2.43102 3.81922 2.47959 3.57523 2.57395 3.34761C2.66826 3.1201 2.80648 2.91339 2.98069 2.73931C3.15478 2.56509 3.36148 2.42688 3.58899 2.33257C3.81662 2.23821 4.0606 2.18964 4.30701 2.18964C4.55341 2.18964 4.7974 2.23821 5.02502 2.33257C5.25264 2.42693 5.45943 2.56522 5.63357 2.73955L5.66783 2.77381C5.72556 2.82955 5.79852 2.86696 5.87752 2.88128C5.95739 2.89576 6.03977 2.88599 6.11403 2.85321C6.15405 2.83555 6.19571 2.82218 6.2383 2.81326C6.28188 2.78368 6.3195 2.74577 6.34885 2.70145C6.39242 2.63565 6.41589 2.55859 6.41638 2.47969V2.375C6.41638 1.87772 6.61393 1.40081 6.96556 1.04917C7.31719 0.697544 7.7941 0.5 8.29138 0.5C8.78866 0.5 9.26558 0.697544 9.61721 1.04917C9.96884 1.40081 10.1664 1.87772 10.1664 2.375V2.42969C10.1669 2.50859 10.1903 2.58565 10.2339 2.65145C10.2777 2.7175 10.3398 2.76933 10.4126 2.80054L10.4187 2.80318C10.493 2.83595 10.5754 2.84576 10.6552 2.83128C10.7342 2.81696 10.8072 2.77955 10.8649 2.72382L10.8992 2.68955C11.0733 2.51522 11.2801 2.37692 11.5077 2.28257C11.7354 2.18821 11.9794 2.13964 12.2258 2.13964C12.4722 2.13964 12.7161 2.18821 12.9438 2.28257C13.1714 2.37693 13.3782 2.51522 13.5523 2.68955C13.7264 2.86359 13.8645 3.0702 13.9588 3.29761C14.0532 3.52523 14.1017 3.76922 14.1017 4.01562C14.1017 4.26203 14.0532 4.50602 13.9588 4.73364C13.8645 4.96115 13.7263 5.16786 13.5521 5.34194C13.552 5.34202 13.5522 5.34186 13.5521 5.34194L13.5176 5.37644C13.4618 5.43417 13.4244 5.50714 13.4101 5.58614C13.3956 5.66601 13.4054 5.74839 13.4382 5.82265C13.4558 5.86267 13.4692 5.90433 13.4781 5.94692C13.5077 5.99049 13.5456 6.02811 13.5899 6.05747C13.6557 6.10104 13.7328 6.12451 13.8117 6.125H13.9164C14.4137 6.125 14.8906 6.32254 15.2422 6.67418C15.5938 7.02581 15.7914 7.50272 15.7914 8C15.7914 8.49728 15.5938 8.97419 15.2422 9.32582C14.8906 9.67745 14.4137 9.875 13.9164 9.875H13.8617C13.7828 9.87549 13.7057 9.89896 13.6399 9.94253C13.5739 9.98628 13.5221 10.0484 13.4908 10.1212L12.9164 9.875Z" fill="#556685"/>
</g>
<defs>
<clipPath id="clip0_212:13938">
<rect width="15" height="15" fill="white" transform="translate(0.791382 0.5)"/>
</clipPath>
</defs>
</svg>
