<svg width="18" height="19" viewBox="0 0 18 19" fill="none" xmlns="http://www.w3.org/2000/svg">
<path fill-rule="evenodd" clip-rule="evenodd" d="M12.9999 3.66675C12.2635 3.66675 11.6666 4.2637 11.6666 5.00008C11.6666 5.73646 12.2635 6.33341 12.9999 6.33341C13.7363 6.33341 14.3333 5.73646 14.3333 5.00008C14.3333 4.2637 13.7363 3.66675 12.9999 3.66675ZM10.3333 5.00008C10.3333 3.52732 11.5272 2.33341 12.9999 2.33341C14.4727 2.33341 15.6666 3.52732 15.6666 5.00008C15.6666 6.47284 14.4727 7.66675 12.9999 7.66675C11.5272 7.66675 10.3333 6.47284 10.3333 5.00008Z" fill="#556685"/>
<path fill-rule="evenodd" clip-rule="evenodd" d="M4.99992 8.33342C4.26354 8.33342 3.66659 8.93037 3.66659 9.66675C3.66659 10.4031 4.26354 11.0001 4.99992 11.0001C5.7363 11.0001 6.33325 10.4031 6.33325 9.66675C6.33325 8.93037 5.7363 8.33342 4.99992 8.33342ZM2.33325 9.66675C2.33325 8.19399 3.52716 7.00008 4.99992 7.00008C6.47268 7.00008 7.66658 8.19399 7.66658 9.66675C7.66658 11.1395 6.47268 12.3334 4.99992 12.3334C3.52716 12.3334 2.33325 11.1395 2.33325 9.66675Z" fill="#556685"/>
<path fill-rule="evenodd" clip-rule="evenodd" d="M12.9999 13.0001C12.2635 13.0001 11.6666 13.597 11.6666 14.3334C11.6666 15.0698 12.2635 15.6667 12.9999 15.6667C13.7363 15.6667 14.3333 15.0698 14.3333 14.3334C14.3333 13.597 13.7363 13.0001 12.9999 13.0001ZM10.3333 14.3334C10.3333 12.8607 11.5272 11.6667 12.9999 11.6667C14.4727 11.6667 15.6666 12.8607 15.6666 14.3334C15.6666 15.8062 14.4727 17.0001 12.9999 17.0001C11.5272 17.0001 10.3333 15.8062 10.3333 14.3334Z" fill="#556685"/>
<path fill-rule="evenodd" clip-rule="evenodd" d="M6.15058 10.3378C6.33596 10.0196 6.74412 9.91203 7.06224 10.0974L11.6156 12.7507C11.9337 12.9361 12.0413 13.3443 11.8559 13.6624C11.6706 13.9805 11.2624 14.0881 10.9443 13.9028L6.39094 11.2494C6.07282 11.064 5.96521 10.6559 6.15058 10.3378Z" fill="#556685"/>
<path fill-rule="evenodd" clip-rule="evenodd" d="M11.849 5.67073C12.0346 5.98873 11.9273 6.39696 11.6093 6.58254L7.06261 9.23587C6.74461 9.42145 6.33638 9.3141 6.1508 8.9961C5.96522 8.6781 6.07257 8.26987 6.39057 8.08429L10.9372 5.43096C11.2552 5.24538 11.6635 5.35273 11.849 5.67073Z" fill="#556685"/>
</svg>
