<svg width="20" height="20" viewBox="0 0 20 20" fill="none" xmlns="http://www.w3.org/2000/svg">
<path fill-rule="evenodd" clip-rule="evenodd" d="M8.3335 9.99998C8.3335 9.0795 9.07969 8.33331 10.0002 8.33331C10.9206 8.33331 11.6668 9.0795 11.6668 9.99998C11.6668 10.9205 10.9206 11.6666 10.0002 11.6666C9.07969 11.6666 8.3335 10.9205 8.3335 9.99998Z" fill="#556685"/>
<path fill-rule="evenodd" clip-rule="evenodd" d="M14.1665 9.99998C14.1665 9.0795 14.9127 8.33331 15.8332 8.33331C16.7536 8.33331 17.4998 9.0795 17.4998 9.99998C17.4998 10.9205 16.7536 11.6666 15.8332 11.6666C14.9127 11.6666 14.1665 10.9205 14.1665 9.99998Z" fill="#556685"/>
<path fill-rule="evenodd" clip-rule="evenodd" d="M2.5 9.99998C2.5 9.0795 3.24619 8.33331 4.16667 8.33331C5.08714 8.33331 5.83333 9.0795 5.83333 9.99998C5.83333 10.9205 5.08714 11.6666 4.16667 11.6666C3.24619 11.6666 2.5 10.9205 2.5 9.99998Z" fill="#556685"/>
</svg>
