<svg width="21" height="20" viewBox="0 0 21 20" fill="none" xmlns="http://www.w3.org/2000/svg">
<path fill-rule="evenodd" clip-rule="evenodd" d="M3.73223 1.56561C4.20107 1.09677 4.83696 0.833374 5.5 0.833374H12.1667C12.3877 0.833374 12.5996 0.921171 12.7559 1.07745L17.7559 6.07745C17.9122 6.23373 18 6.44569 18 6.66671V16.6667C18 17.3297 17.7366 17.9656 17.2678 18.4345C16.7989 18.9033 16.163 19.1667 15.5 19.1667H5.5C4.83696 19.1667 4.20107 18.9033 3.73223 18.4345C3.26339 17.9656 3 17.3297 3 16.6667V3.33337C3 2.67033 3.26339 2.03445 3.73223 1.56561ZM5.5 2.50004C5.27899 2.50004 5.06702 2.58784 4.91074 2.74412C4.75446 2.9004 4.66667 3.11236 4.66667 3.33337V16.6667C4.66667 16.8877 4.75446 17.0997 4.91074 17.256C5.06702 17.4122 5.27899 17.5 5.5 17.5H15.5C15.721 17.5 15.933 17.4122 16.0893 17.256C16.2455 17.0997 16.3333 16.8877 16.3333 16.6667V7.01188L11.8215 2.50004H5.5Z" fill="white"/>
<path fill-rule="evenodd" clip-rule="evenodd" d="M12.1668 0.833374C12.6271 0.833374 13.0002 1.20647 13.0002 1.66671V5.83337H17.1668C17.6271 5.83337 18.0002 6.20647 18.0002 6.66671C18.0002 7.12694 17.6271 7.50004 17.1668 7.50004H12.1668C11.7066 7.50004 11.3335 7.12694 11.3335 6.66671V1.66671C11.3335 1.20647 11.7066 0.833374 12.1668 0.833374Z" fill="white"/>
<path fill-rule="evenodd" clip-rule="evenodd" d="M6.3335 10.8333C6.3335 10.3731 6.70659 10 7.16683 10H13.8335C14.2937 10 14.6668 10.3731 14.6668 10.8333C14.6668 11.2936 14.2937 11.6667 13.8335 11.6667H7.16683C6.70659 11.6667 6.3335 11.2936 6.3335 10.8333Z" fill="white"/>
<path fill-rule="evenodd" clip-rule="evenodd" d="M6.3335 14.1667C6.3335 13.7065 6.70659 13.3334 7.16683 13.3334H13.8335C14.2937 13.3334 14.6668 13.7065 14.6668 14.1667C14.6668 14.6269 14.2937 15 13.8335 15H7.16683C6.70659 15 6.3335 14.6269 6.3335 14.1667Z" fill="white"/>
<path fill-rule="evenodd" clip-rule="evenodd" d="M6.3335 7.49996C6.3335 7.03972 6.70659 6.66663 7.16683 6.66663H8.8335C9.29373 6.66663 9.66683 7.03972 9.66683 7.49996C9.66683 7.9602 9.29373 8.33329 8.8335 8.33329H7.16683C6.70659 8.33329 6.3335 7.9602 6.3335 7.49996Z" fill="white"/>
</svg>
