<svg width="16" height="17" viewBox="0 0 16 17" fill="none" xmlns="http://www.w3.org/2000/svg">
<path fill-rule="evenodd" clip-rule="evenodd" d="M7.62212 3.23249C7.85309 3.3435 7.99999 3.57709 7.99999 3.83336V13.1667C7.99999 13.423 7.85309 13.6565 7.62212 13.7676C7.39114 13.8786 7.11697 13.8474 6.91686 13.6873L3.76614 11.1667H1.33332C0.965133 11.1667 0.666656 10.8682 0.666656 10.5V6.50003C0.666656 6.13184 0.965133 5.83336 1.33332 5.83336H3.76614L6.91686 3.31278C7.11697 3.15269 7.39114 3.12148 7.62212 3.23249ZM6.66666 5.22044L4.41645 7.02061C4.29824 7.11517 4.15137 7.16669 3.99999 7.16669H1.99999V9.83336H3.99999C4.15137 9.83336 4.29824 9.88488 4.41645 9.97945L6.66666 11.7796V5.22044Z" fill="white"/>
<path fill-rule="evenodd" clip-rule="evenodd" d="M12.242 3.31519C12.5024 3.05488 12.9245 3.05494 13.1848 3.31533C14.5596 4.69053 15.3319 6.55546 15.3319 8.49999C15.3319 10.4445 14.5596 12.3095 13.1848 13.6847C12.9245 13.945 12.5024 13.9451 12.242 13.6848C11.9816 13.4245 11.9815 13.0024 12.2419 12.742C13.3667 11.6168 13.9986 10.091 13.9986 8.49999C13.9986 6.90901 13.3667 5.38316 12.2419 4.258C11.9815 3.99761 11.9816 3.5755 12.242 3.31519ZM9.88866 5.66852C10.1491 5.40821 10.5712 5.40827 10.8315 5.66866C11.5814 6.41877 12.0026 7.436 12.0026 8.49666C12.0026 9.55732 11.5814 10.5746 10.8315 11.3247C10.5712 11.585 10.1491 11.5851 9.88866 11.3248C9.62827 11.0645 9.62821 10.6424 9.88852 10.382C10.3884 9.88192 10.6693 9.20377 10.6693 8.49666C10.6693 7.78956 10.3884 7.1114 9.88852 6.61133C9.62821 6.35094 9.62827 5.92883 9.88866 5.66852Z" fill="white"/>
</svg>
