<svg width="16" height="18" viewBox="0 0 16 18" fill="none" xmlns="http://www.w3.org/2000/svg">
<path d="M14.6666 8.26659C14.4666 5.06659 11.9333 2.46659 8.66662 2.33325H8.33328C7.33328 2.33325 6.39995 2.53325 5.53328 2.99992C3.33328 4.06659 1.99995 6.26659 1.99995 8.66659C1.99995 9.53325 2.19995 10.4666 2.53328 11.2666L1.33328 14.7999C1.26662 15.0666 1.33328 15.3333 1.46662 15.4666C1.66662 15.5999 1.79995 15.6666 1.99995 15.6666C2.06662 15.6666 2.13328 15.6666 2.19995 15.5999L5.73328 14.3999C6.53328 14.7333 7.39995 14.9333 8.33328 14.9333C10.7333 14.9333 12.9333 13.5999 13.9999 11.4666C14.4666 10.5999 14.6666 9.59992 14.6666 8.59992V8.26659ZM13.3333 8.66659C13.3333 9.46659 13.1333 10.1999 12.7999 10.9333C11.9333 12.6666 10.2666 13.6666 8.33328 13.6666C7.53328 13.6666 6.79995 13.4666 6.13328 13.1333C5.99995 13.0666 5.79995 13.0666 5.59995 13.0666L3.06662 13.9333L3.93328 11.3999C3.99995 11.1999 3.99995 11.0666 3.86662 10.8666C3.53328 10.1999 3.33328 9.39992 3.33328 8.66659C3.33328 6.73325 4.39995 5.06659 6.13328 4.19992C6.79995 3.86659 7.59995 3.66659 8.33328 3.66659H8.59995C11.1333 3.79992 13.1333 5.79992 13.3333 8.33325V8.66659Z" fill="#5A55AB"/>
</svg>
