<svg width="14" height="14" viewBox="0 0 14 14" fill="none" xmlns="http://www.w3.org/2000/svg">
<path d="M13.6666 6.26659C13.4666 3.06659 10.9333 0.466585 7.66662 0.333252H7.33328C6.33328 0.333252 5.39995 0.533252 4.53328 0.999919C2.33328 2.06659 0.999949 4.26659 0.999949 6.66659C0.999949 7.53325 1.19995 8.46659 1.53328 9.26659L0.333283 12.7999C0.266616 13.0666 0.333283 13.3333 0.466616 13.4666C0.666616 13.5999 0.799949 13.6666 0.999949 13.6666C1.06662 13.6666 1.13328 13.6666 1.19995 13.5999L4.73328 12.3999C5.53328 12.7333 6.39995 12.9333 7.33328 12.9333C9.73328 12.9333 11.9333 11.5999 12.9999 9.46659C13.4666 8.59992 13.6666 7.59992 13.6666 6.59992V6.26659ZM12.3333 6.66659C12.3333 7.46659 12.1333 8.19992 11.7999 8.93325C10.9333 10.6666 9.26661 11.6666 7.33328 11.6666C6.53328 11.6666 5.79995 11.4666 5.13328 11.1333C4.99995 11.0666 4.79995 11.0666 4.59995 11.0666L2.06662 11.9333L2.93328 9.39992C2.99995 9.19992 2.99995 9.06659 2.86662 8.86659C2.53328 8.19992 2.33328 7.39992 2.33328 6.66659C2.33328 4.73325 3.39995 3.06659 5.13328 2.19992C5.79995 1.86659 6.59995 1.66659 7.33328 1.66659H7.59995C10.1333 1.79992 12.1333 3.79992 12.3333 6.33325V6.66659Z" fill="white"/>
</svg>
