<svg width="21" height="20" viewBox="0 0 21 20" fill="none" xmlns="http://www.w3.org/2000/svg">
<path d="M18.7497 9.08341C18.4997 5.08341 15.333 1.83341 11.2497 1.66675H10.833C9.58298 1.66675 8.41632 1.91675 7.33298 2.50008C4.58299 3.83341 2.91632 6.58342 2.91632 9.58342C2.91632 10.6667 3.16632 11.8334 3.58298 12.8334L2.08299 17.2501C1.99965 17.5834 2.08299 17.9167 2.24965 18.0834C2.49965 18.2501 2.66632 18.3334 2.91632 18.3334C2.99965 18.3334 3.08298 18.3334 3.16632 18.2501L7.58298 16.7501C8.58298 17.1667 9.66632 17.4167 10.833 17.4167C13.833 17.4167 16.583 15.7501 17.9163 13.0834C18.4997 12.0001 18.7497 10.7501 18.7497 9.50008V9.08341ZM17.083 9.58342C17.083 10.5834 16.833 11.5001 16.4163 12.4167C15.333 14.5834 13.2497 15.8334 10.833 15.8334C9.83298 15.8334 8.91632 15.5834 8.08298 15.1667C7.91632 15.0834 7.66632 15.0834 7.41632 15.0834L4.24965 16.1667L5.33299 13.0001C5.41632 12.7501 5.41632 12.5834 5.24965 12.3334C4.83299 11.5001 4.58299 10.5001 4.58299 9.58342C4.58299 7.16675 5.91632 5.08342 8.08298 4.00008C8.91632 3.58341 9.91632 3.33341 10.833 3.33341H11.1663C14.333 3.50008 16.833 6.00008 17.083 9.16675V9.58342Z" fill="#556685"/>
</svg>
