<svg width="15" height="14" viewBox="0 0 15 14" fill="none" xmlns="http://www.w3.org/2000/svg">
<path fill-rule="evenodd" clip-rule="evenodd" d="M0.68306 1.11195C0.785471 0.891224 1.00668 0.75 1.25001 0.75H13.75C13.9933 0.75 14.2145 0.891224 14.317 1.11195C14.4194 1.33268 14.3844 1.59278 14.2272 1.77858L9.37501 7.51634V12.625C9.37501 12.8416 9.26285 13.0428 9.07859 13.1567C8.89433 13.2705 8.66424 13.2809 8.4705 13.184L5.9705 11.934C5.75876 11.8281 5.62501 11.6117 5.62501 11.375V7.51634L0.772777 1.77858C0.615654 1.59278 0.580648 1.33268 0.68306 1.11195ZM2.59707 2L6.72724 6.88392C6.82265 6.99675 6.87501 7.13974 6.87501 7.2875V10.9887L8.12501 11.6137V7.2875C8.12501 7.13974 8.17736 6.99675 8.27278 6.88392L12.4029 2H2.59707Z" fill="#556685"/>
</svg>
