<svg width="19" height="23" viewBox="0 0 19 23" fill="none" xmlns="http://www.w3.org/2000/svg">
<path fill-rule="evenodd" clip-rule="evenodd" d="M0.784505 12.9166C1.24474 12.9166 1.61784 13.2897 1.61784 13.75V17.0833C1.61784 17.3043 1.70564 17.5163 1.86192 17.6725C2.0182 17.8288 2.23016 17.9166 2.45117 17.9166H14.1178C14.3389 17.9166 14.5508 17.8288 14.7071 17.6725C14.8634 17.5163 14.9512 17.3043 14.9512 17.0833V13.75C14.9512 13.2897 15.3243 12.9166 15.7845 12.9166C16.2447 12.9166 16.6178 13.2897 16.6178 13.75V17.0833C16.6178 17.7463 16.3544 18.3822 15.8856 18.8511C15.4168 19.3199 14.7809 19.5833 14.1178 19.5833H2.45117C1.78813 19.5833 1.15225 19.3199 0.683405 18.8511C0.214564 18.3822 -0.0488281 17.7463 -0.0488281 17.0833V13.75C-0.0488281 13.2897 0.324268 12.9166 0.784505 12.9166Z" fill="white"/>
<path fill-rule="evenodd" clip-rule="evenodd" d="M7.69517 3.1607C8.0206 2.83527 8.54824 2.83527 8.87368 3.1607L13.0403 7.32737C13.3658 7.65281 13.3658 8.18044 13.0403 8.50588C12.7149 8.83132 12.1873 8.83132 11.8618 8.50588L8.28442 4.92847L4.70701 8.50588C4.38158 8.83132 3.85394 8.83132 3.5285 8.50588C3.20306 8.18044 3.20306 7.65281 3.5285 7.32737L7.69517 3.1607Z" fill="white"/>
<path fill-rule="evenodd" clip-rule="evenodd" d="M8.28451 2.91663C8.74474 2.91663 9.11784 3.28972 9.11784 3.74996V13.75C9.11784 14.2102 8.74474 14.5833 8.28451 14.5833C7.82427 14.5833 7.45117 14.2102 7.45117 13.75V3.74996C7.45117 3.28972 7.82427 2.91663 8.28451 2.91663Z" fill="white"/>
</svg>
