<svg width="20" height="20" viewBox="0 0 20 20" fill="none" xmlns="http://www.w3.org/2000/svg">
<path fill-rule="evenodd" clip-rule="evenodd" d="M1.22039 12.887C2.00179 12.1056 3.0616 11.6666 4.16667 11.6666H10C11.1051 11.6666 12.1649 12.1056 12.9463 12.887C13.7277 13.6684 14.1667 14.7282 14.1667 15.8333V17.5C14.1667 17.9602 13.7936 18.3333 13.3333 18.3333C12.8731 18.3333 12.5 17.9602 12.5 17.5V15.8333C12.5 15.1703 12.2366 14.5344 11.7678 14.0655C11.2989 13.5967 10.663 13.3333 10 13.3333H4.16667C3.50363 13.3333 2.86774 13.5967 2.3989 14.0655C1.93006 14.5344 1.66667 15.1703 1.66667 15.8333V17.5C1.66667 17.9602 1.29357 18.3333 0.833333 18.3333C0.373096 18.3333 0 17.9602 0 17.5V15.8333C0 14.7282 0.438987 13.6684 1.22039 12.887Z" fill="#556685"/>
<path fill-rule="evenodd" clip-rule="evenodd" d="M7.08329 3.33329C5.70258 3.33329 4.58329 4.45258 4.58329 5.83329C4.58329 7.214 5.70258 8.33329 7.08329 8.33329C8.464 8.33329 9.58329 7.214 9.58329 5.83329C9.58329 4.45258 8.464 3.33329 7.08329 3.33329ZM2.91663 5.83329C2.91663 3.53211 4.78211 1.66663 7.08329 1.66663C9.38448 1.66663 11.25 3.53211 11.25 5.83329C11.25 8.13448 9.38448 9.99996 7.08329 9.99996C4.78211 9.99996 2.91663 8.13448 2.91663 5.83329Z" fill="#556685"/>
<path fill-rule="evenodd" clip-rule="evenodd" d="M16.6667 5.83337C17.1269 5.83337 17.5 6.20647 17.5 6.66671V11.6667C17.5 12.1269 17.1269 12.5 16.6667 12.5C16.2065 12.5 15.8334 12.1269 15.8334 11.6667V6.66671C15.8334 6.20647 16.2065 5.83337 16.6667 5.83337Z" fill="#556685"/>
<path fill-rule="evenodd" clip-rule="evenodd" d="M13.3334 9.16671C13.3334 8.70647 13.7065 8.33337 14.1667 8.33337H19.1667C19.6269 8.33337 20 8.70647 20 9.16671C20 9.62694 19.6269 10 19.1667 10H14.1667C13.7065 10 13.3334 9.62694 13.3334 9.16671Z" fill="#556685"/>
</svg>
