<svg width="17" height="16" viewBox="0 0 17 16" fill="none" xmlns="http://www.w3.org/2000/svg">
<g clip-path="url(#clip0)">
<path fill-rule="evenodd" clip-rule="evenodd" d="M16.1384 4.07389C16.3604 4.18816 16.5 4.41694 16.5 4.66667V11.3333C16.5 11.5831 16.3604 11.8118 16.1384 11.9261C15.9163 12.0404 15.6491 12.021 15.4458 11.8758L10.7792 8.54249C10.604 8.41735 10.5 8.2153 10.5 8C10.5 7.7847 10.604 7.58265 10.7792 7.45751L15.4458 4.12418C15.6491 3.97903 15.9163 3.95962 16.1384 4.07389ZM12.3136 8L15.1667 10.0379V5.96213L12.3136 8Z" fill="#EFEEF7"/>
<path fill-rule="evenodd" clip-rule="evenodd" d="M2.5 4.00001C2.13181 4.00001 1.83333 4.29848 1.83333 4.66667V11.3333C1.83333 11.7015 2.13181 12 2.5 12H9.83333C10.2015 12 10.5 11.7015 10.5 11.3333V4.66667C10.5 4.29848 10.2015 4.00001 9.83333 4.00001H2.5ZM0.5 4.66667C0.5 3.5621 1.39543 2.66667 2.5 2.66667H9.83333C10.9379 2.66667 11.8333 3.5621 11.8333 4.66667V11.3333C11.8333 12.4379 10.9379 13.3333 9.83333 13.3333H2.5C1.39543 13.3333 0.5 12.4379 0.5 11.3333V4.66667Z" fill="#EFEEF7"/>
</g>
<defs>
<clipPath id="clip0">
<rect width="16" height="16" fill="white" transform="translate(0.5)"/>
</clipPath>
</defs>
</svg>
