<svg width="20" height="19" viewBox="0 0 20 19" fill="none" xmlns="http://www.w3.org/2000/svg">
<path fill-rule="evenodd" clip-rule="evenodd" d="M10.0002 2.00004C5.85803 2.00004 2.50016 5.3579 2.50016 9.50004C2.50016 13.6422 5.85803 17 10.0002 17C14.1423 17 17.5002 13.6422 17.5002 9.50004C17.5002 5.3579 14.1423 2.00004 10.0002 2.00004ZM0.833496 9.50004C0.833496 4.43743 4.93755 0.333374 10.0002 0.333374C15.0628 0.333374 19.1668 4.43743 19.1668 9.50004C19.1668 14.5626 15.0628 18.6667 10.0002 18.6667C4.93755 18.6667 0.833496 14.5626 0.833496 9.50004ZM10.0002 5.33337C10.4604 5.33337 10.8335 5.70647 10.8335 6.16671V9.50004C10.8335 9.96028 10.4604 10.3334 10.0002 10.3334C9.53993 10.3334 9.16683 9.96028 9.16683 9.50004V6.16671C9.16683 5.70647 9.53993 5.33337 10.0002 5.33337ZM10.0002 12C9.53993 12 9.16683 12.3731 9.16683 12.8334C9.16683 13.2936 9.53993 13.6667 10.0002 13.6667H10.0085C10.4687 13.6667 10.8418 13.2936 10.8418 12.8334C10.8418 12.3731 10.4687 12 10.0085 12H10.0002Z" fill="#347EB6"/>
</svg>
