<svg xmlns="http://www.w3.org/2000/svg" viewBox="0 0 NaN NaN"><title>exchange</title><g transform="translate(NaN NaN)"><g class="nc-icon-wrapper" fill="#5a55ab"><path data-cap="butt" data-color="color-2" fill="none" stroke="#5fd7cd" stroke-width="2" stroke-miterlimit="10" d="M34,12h12c4.418,0,8,3.582,8,8 v6" stroke-linejoin="round" stroke-linecap="round"/> <polyline data-color="color-2" fill="none" stroke="#5fd7cd" stroke-width="2" stroke-linecap="round" stroke-miterlimit="10" points=" 42,4 34,12 42,20 " stroke-linejoin="round"/> <path data-cap="butt" data-color="color-2" fill="none" stroke="#5fd7cd" stroke-width="2" stroke-miterlimit="10" d="M30,52H18c-4.418,0-8-3.582-8-8 v-6" stroke-linejoin="round" stroke-linecap="round"/> <polyline data-color="color-2" fill="none" stroke="#5fd7cd" stroke-width="2" stroke-linecap="round" stroke-miterlimit="10" points=" 22,60 30,52 22,44 " stroke-linejoin="round"/> <path fill="none" stroke="#5a55ab" stroke-width="2" stroke-linecap="round" stroke-miterlimit="10" d="M26,28v-1.965 c0-1.42-0.745-2.726-1.967-3.449C22.088,21.435,18.716,20,14,20c-4.777,0-8.127,1.426-10.052,2.575C2.736,23.299,2,24.601,2,26.013 V28H26z" stroke-linejoin="round"/> <circle fill="none" stroke="#5a55ab" stroke-width="2" stroke-linecap="round" stroke-miterlimit="10" cx="14" cy="8" r="6" stroke-linejoin="round"/> <path fill="none" stroke="#5a55ab" stroke-width="2" stroke-linecap="round" stroke-miterlimit="10" d="M62,62v-1.965 c0-1.42-0.745-2.726-1.967-3.449C58.088,55.435,54.716,54,50,54c-4.777,0-8.127,1.426-10.052,2.575 C38.736,57.299,38,58.601,38,60.013V62H62z" stroke-linejoin="round"/> <circle fill="none" stroke="#5a55ab" stroke-width="2" stroke-linecap="round" stroke-miterlimit="10" cx="50" cy="42" r="6" stroke-linejoin="round"/></g></g></svg>