<svg xmlns="http://www.w3.org/2000/svg" viewBox="0 0 NaN NaN"><title>multiple 11</title><g transform="translate(NaN NaN)"><g class="nc-icon-wrapper" fill="#5a55ab"><path data-cap="butt" data-color="color-2" fill="none" stroke="#5fd7cd" stroke-width="2" stroke-miterlimit="10" d="M21.427,27.439 C20.464,25.41,18.395,24,16,24H8c-3.314,0-6,2.686-6,6v8l4,2l1,14h11" stroke-linejoin="round" stroke-linecap="round"/> <circle data-color="color-2" fill="none" stroke="#5fd7cd" stroke-width="2" stroke-linecap="round" stroke-miterlimit="10" cx="12" cy="12" r="6" stroke-linejoin="round"/> <path data-cap="butt" data-color="color-2" fill="none" stroke="#5fd7cd" stroke-width="2" stroke-miterlimit="10" d="M42.573,27.439 C43.536,25.41,45.605,24,48,24h8c3.314,0,6,2.686,6,6v8l-4,2l-1,14H46" stroke-linejoin="round" stroke-linecap="round"/> <circle data-color="color-2" fill="none" stroke="#5fd7cd" stroke-width="2" stroke-linecap="round" stroke-miterlimit="10" cx="52" cy="12" r="6" stroke-linejoin="round"/> <path fill="none" stroke="#5a55ab" stroke-width="2" stroke-linecap="round" stroke-miterlimit="10" d="M38,62H26l-1-16l-5-1V32 c0-4.418,3.582-8,8-8h8c4.418,0,8,3.582,8,8v13l-5,1L38,62z" stroke-linejoin="round"/> <circle fill="none" stroke="#5a55ab" stroke-width="2" stroke-linecap="round" stroke-miterlimit="10" cx="32" cy="10" r="8" stroke-linejoin="round"/></g></g></svg>