<?xml version="1.0" standalone="no"?>
<!DOCTYPE svg PUBLIC "-//W3C//DTD SVG 1.1//EN" "http://www.w3.org/Graphics/SVG/1.1/DTD/svg11.dtd" >
<svg xmlns="http://www.w3.org/2000/svg">
<defs>
  <font id="innential" horiz-adv-x="256">
    <font-face font-family="innential"
      units-per-em="256" ascent="256"
      descent="0" />
    <missing-glyph horiz-adv-x="0" />
    <glyph glyph-name="menu-34"
      unicode="&#xEA02;"
      horiz-adv-x="256" d="M18.455 221.545C15.266 218.357 15.265 214.085 18.452 210.646L20.905 208L136 208L251.095 208L253.548 210.646C256.735 214.085 256.734 218.357 253.545 221.545L251.091 224L136 224L20.909 224L18.455 221.545M18.455 125.545C15.266 122.357 15.265 118.085 18.452 114.646L20.905 112L136 112L251.095 112L253.548 114.646C256.735 118.085 256.734 122.357 253.545 125.545L251.091 128L136 128L20.909 128L18.455 125.545M18.455 29.545C15.266 26.357 15.265 22.085 18.452 18.646L20.905 16L136 16L251.095 16L253.548 18.646C256.735 22.085 256.734 26.357 253.545 29.545L251.091 32L136 32L20.909 32L18.455 29.545" />
    <glyph glyph-name="small-down"
      unicode="&#xEA04;"
      horiz-adv-x="256" d="M50.455 157.545C48.854 155.944 48 153.959 48 151.835C48 148.884 51.587 144.988 86.253 110.289C122.002 74.506 124.734 72 128 72C131.266 72 133.998 74.506 169.747 110.289C204.413 144.988 208 148.884 208 151.835C208 156.203 204.201 160 199.829 160C196.878 160 193.303 156.74 162.284 125.769L128 91.539L93.716 125.769C62.697 156.74 59.122 160 56.171 160C54.041 160 52.057 159.148 50.455 157.545" />
    <glyph glyph-name="stre-down"
      unicode="&#xEA05;"
      horiz-adv-x="256" d="M128 64C124.288 64 120.592 65.28 117.584 67.856L-6.56 174.256L14.272 198.56L128 101.072L241.728 198.56L262.56 174.256L138.416 67.856C135.408 65.28 131.712 64 128 64z" />
    <glyph glyph-name="handshake"
      unicode="&#xEA06;"
      horiz-adv-x="256" d="M37.244 210.744C21.16 194.653 8 180.805 8 179.97C8 179.136 11.587 174.887 15.972 170.528L23.943 162.603L24.222 150.159C24.458 139.584 24.763 137.549 26.25 136.612C27.525 135.81 28.475 135.81 29.75 136.612C31.255 137.56 31.539 139.65 31.78 151.554L32.059 165.394L24.793 172.708L17.528 180.023L42.748 205.243L67.968 230.463L73.299 225.198L78.63 219.933L90.458 220.217C100.442 220.456 102.458 220.773 103.388 222.25C104.19 223.524 104.19 224.476 103.388 225.75C102.475 227.202 100.506 227.548 91.831 227.782L81.374 228.064L75.468 234.032C72.22 237.314 68.871 240 68.025 240C67.179 240 53.328 226.835 37.244 210.744M180.5 234L174.563 228L159.965 228C142.796 228 135.839 226.91 127 222.837C121.24 220.182 117.853 217.148 97.24 196.179C72.213 170.718 70.211 167.923 71.282 159.937C72.907 147.822 85.68 141.225 96.663 146.828C98.833 147.935 108.371 153.847 117.857 159.965L135.105 171.09L138.302 168.387C140.061 166.901 143.975 164.551 147 163.164C151.708 161.006 154.034 160.627 163.151 160.53L173.802 160.417L198.816 134.689C220.953 111.92 223.908 108.502 224.504 104.975C225.766 97.508 220.111 91.493 212.662 92.378C209.548 92.747 207.445 94.17 201.518 99.917C194.345 106.872 191.589 108.189 189.2 105.8C186.918 103.518 188.041 101.678 197.75 91.796C207.39 81.984 207.5 81.817 207.5 77.002C207.5 72.994 206.988 71.597 204.609 69.114C198.097 62.316 192.54 63.904 180.497 76.003C171.639 84.902 169.536 86.136 167.2 83.8C164.913 81.513 166.036 79.414 173.521 71.979C181.582 63.972 183.475 60.141 181.967 54.884C180.853 51 179.409 49.263 175.701 47.346C170.401 44.604 166.523 46.251 157.473 55.084C149.361 63.002 147.449 64.049 145.2 61.8C143.098 59.698 143.869 57.909 149.5 51.827C154.551 46.371 155 45.501 155 41.166C155 34.029 151.624 30.311 144 29.051C141.329 28.61 140.423 27.931 140.173 26.181C139.462 21.196 143.901 19.679 150.782 22.553C157.233 25.248 163 32.077 163 37.022C163 39.005 163.353 39.1 168.379 38.472C172.591 37.946 174.707 38.219 178.129 39.733C183.746 42.217 188.688 47.875 190.084 53.418C191.181 57.775 191.192 57.784 195.069 57.264C200.598 56.522 208.827 60.7 212.621 66.175C215.1 69.752 215.5 71.269 215.5 77.1C215.5 83.845 215.512 83.873 218.526 84.439C222.768 85.235 228.916 90.605 231.107 95.429C233.545 100.797 233.477 106.145 230.906 111.184C229.75 113.449 218.093 126.308 204.883 139.889L180.954 164.491L183.727 166.453C185.252 167.532 188.216 170.098 190.314 172.154C193.631 175.405 193.981 176.168 192.999 178.003C191.169 181.421 189.122 181.502 185.684 178.291C171.972 165.485 153.861 164.762 140.867 176.501C138.737 178.426 136.351 180 135.564 180C134.777 180 124.652 173.88 113.064 166.4C89.136 150.955 86.889 150.202 81.784 155.916C78.176 159.954 78.22 163.664 81.935 168.6C88.274 177.023 123.541 211.752 128.5 214.453C136.049 218.567 144.501 219.963 161.969 219.983L177.437 220L182.734 225.232L188.032 230.463L213.252 205.243L238.472 180.023L231.207 172.708L223.941 165.394L224.22 151.554C224.461 139.65 224.745 137.56 226.25 136.612C227.525 135.81 228.475 135.81 229.75 136.612C231.237 137.549 231.542 139.584 231.778 150.159L232.057 162.603L240.028 170.528C244.413 174.887 248 179.141 248 179.983C248 181.978 189.958 240 187.962 240C187.124 240 183.766 237.3 180.5 234M31.272 122.418C26.369 119.917 20.274 112.733 18.982 107.931C16.232 97.719 23.254 85.942 33.026 84.38C36.851 83.768 37 83.601 37 79.937C37 74.574 38.318 71.697 43.222 66.36C48.08 61.074 52.196 59 57.832 59C61.525 59 61.817 58.767 63.436 54.528C64.498 51.748 67.036 48.355 70.145 45.56C74.758 41.412 76.582 40.636 83.964 39.677C84.775 39.571 85.841 37.742 86.352 35.579C87.614 30.245 96.075 21.611 101.654 19.966C103.989 19.277 107.371 19.035 109.379 19.411C116.445 20.737 127.253 31.5 128.571 38.524C129.652 44.291 128.25 48.506 123.485 53.805C118.443 59.414 113.787 62 108.735 62C105.562 62 105.13 62.37 103.588 66.407C101.781 71.14 93.843 79.349 89.462 81.014C88.037 81.556 85.774 82 84.435 82C82.496 82 82 82.516 82 84.532C82 88.817 79.505 93.307 74.64 97.778C69.578 102.429 66.404 104 62.067 104C59.545 104 59.209 104.408 58.719 108.061C58.058 112.99 54.867 117.867 50.222 121.05C45.72 124.135 36.011 124.836 31.272 122.418M46.889 113.44C52.724 108.53 51.97 100.594 45.134 94.959C40.062 90.778 33.937 90.785 30.022 94.976C24.924 100.434 25.308 106.308 31.144 112.144C34.456 115.456 35.624 116 39.423 116C42.71 116 44.628 115.342 46.889 113.44M65.931 94.536C70.539 92.153 74 87.315 74 83.257C74 80.181 73.092 78.759 67.667 73.333C62.241 67.908 60.819 67 57.743 67C51.299 67 44.207 75.113 45.501 81.006C46.704 86.481 56.949 95.892 61.8 95.977C62.514 95.99 64.373 95.341 65.931 94.536M87.329 72.636C92.142 70.625 96 65.573 96 61.28C96 58.348 95.136 56.851 91.143 52.857C85.123 46.837 81.408 46.39 75.801 51.012C71.047 54.931 69.332 59.818 71.353 63.689C73.732 68.243 79.459 72.965 83.782 73.937C83.937 73.971 85.533 73.386 87.329 72.636M113.759 52.005C117.414 49.777 120.991 44.558 120.996 41.444C121.004 36.962 110.986 27 106.47 27C100.739 27 93.04 36.037 94.344 41.233C95.668 46.51 103.97 53.993 108.5 53.993C109.6 53.993 111.967 53.098 113.759 52.005" />
    <glyph glyph-name="send"
      unicode="&#xEA07;"
      horiz-adv-x="256" d="M125.07 207.536C53.144 178.701 3.706 158.357 2.32 157.023C-0.229 154.57 -0.717 150.333 1.25 147.724C3.986 144.093 37.405 120 39.705 120C45.043 120 49.167 125.748 47.53 130.906C47.189 131.98 41.956 136.555 35.901 141.074C29.845 145.593 25.253 149.639 25.695 150.064C26.73 151.059 236.394 234.913 236.82 234.503C236.996 234.333 227.591 186.451 215.921 128.098C200.995 53.469 194.376 22.256 193.601 22.859C192.995 23.33 168.875 41.389 140 62.989C111.125 84.59 87.151 102.576 86.724 102.958C86.297 103.34 100.324 113.228 117.895 124.93C151.248 147.143 153.041 148.715 151.599 154.462C150.949 157.051 146.495 160 143.237 160C141.246 160 67.351 110.95 65.25 108.234C63.514 105.989 63.432 7.935 65.163 4.684C66.851 1.515 69.103 0.068 72.404 0.032C75.874 -0.006 75.533 -0.361 102.5 31.357C113.5 44.295 122.842 54.907 123.259 54.94C123.676 54.973 140.512 42.625 160.672 27.5C186.888 7.831 198.062 0.006 199.913 0.022C201.336 0.034 203.565 0.864 204.867 1.865C207.051 3.545 209.129 13.156 231.694 125.969C245.663 195.807 255.9 249.263 255.562 250.608C254.937 253.101 250.319 256.063 247.3 255.908C246.31 255.857 191.307 234.09 125.07 207.536M109.5 65.011C109.5 64.543 103.65 57.335 96.5 48.993C89.35 40.651 82.723 32.852 81.772 31.663C80.125 29.601 80.043 30.867 80.022 58.766L80 88.032L94.75 76.947C102.862 70.85 109.5 65.479 109.5 65.011" />
    <glyph glyph-name="small-right"
      unicode="&#xEA08;"
      horiz-adv-x="256" d="M98.455 205.545C96.86 203.951 96 201.957 96 199.857C96 196.943 99.387 193.226 130.224 162.305L164.448 127.987L130.224 93.71C100.132 63.571 96 59.062 96 56.362C96 52.042 99.963 48 104.2 48C107.203 48 110.881 51.39 145.747 86.289C181.277 121.853 184 124.824 184 128.025C184 131.226 181.284 134.187 145.735 169.735C110.933 204.538 107.174 208 104.19 208C102.04 208 100.063 207.154 98.455 205.545" />
    <glyph glyph-name="network"
      unicode="&#xEA09;"
      horiz-adv-x="256" d="M122.505 251.321C118.082 250.075 112.136 244.911 109.968 240.434C105.674 231.564 109.102 220.208 117.683 214.873C123.355 211.347 133.121 211.491 138.7 215.183C144.942 219.314 147.5 224.202 147.5 232C147.5 239.798 145.134 244.322 138.897 248.449C134.776 251.177 126.896 252.557 122.505 251.321M136.407 240.055C139.033 237.428 139.5 236.213 139.5 232C139.5 227.73 139.045 226.583 136.231 223.769C133.417 220.955 132.27 220.5 128 220.5C123.73 220.5 122.583 220.955 119.769 223.769C116.966 226.572 116.5 227.738 116.5 231.939C116.5 237.079 119.049 241.142 123.5 243.097C127.239 244.739 133.105 243.357 136.407 240.055M30.505 215.321C26.082 214.075 20.136 208.911 17.968 204.434C13.674 195.564 17.102 184.208 25.683 178.873C31.355 175.347 41.121 175.491 46.7 179.183C52.942 183.314 55.5 188.202 55.5 196C55.5 203.798 53.134 208.322 46.897 212.449C42.776 215.177 34.896 216.557 30.505 215.321M218.505 215.321C214.082 214.075 208.136 208.911 205.968 204.434C201.674 195.564 205.102 184.208 213.683 178.873C219.355 175.347 229.121 175.491 234.7 179.183C240.942 183.314 243.5 188.202 243.5 196C243.5 203.798 241.134 208.322 234.897 212.449C230.776 215.177 222.896 216.557 218.505 215.321M44.407 204.055C47.033 201.428 47.5 200.213 47.5 196C47.5 191.73 47.045 190.583 44.231 187.769C41.417 184.955 40.27 184.5 36 184.5C31.73 184.5 30.583 184.955 27.769 187.769C24.966 190.572 24.5 191.738 24.5 195.939C24.5 201.079 27.049 205.142 31.5 207.097C35.239 208.739 41.105 207.357 44.407 204.055M117 207.127C111.355 205.264 106.012 201.832 102.662 197.918C97.104 191.425 94.156 180.244 97.2 177.2C98.079 176.321 106.311 176 128 176C149.689 176 157.921 176.321 158.8 177.2C161.845 180.245 158.896 191.425 153.334 197.923C147.491 204.749 141.317 207.265 129.5 207.637C124 207.81 118.375 207.581 117 207.127M232.407 204.055C235.033 201.428 235.5 200.213 235.5 196C235.5 191.73 235.045 190.583 232.231 187.769C229.417 184.955 228.27 184.5 224 184.5C219.73 184.5 218.583 184.955 215.769 187.769C212.966 190.572 212.5 191.738 212.5 195.939C212.5 201.079 215.049 205.142 219.5 207.097C223.239 208.739 229.105 207.357 232.407 204.055M142.344 196.805C146.458 194.004 151 188.1 151 185.553C151 184.194 148.127 184 128 184C102.355 184 102.793 183.859 107.406 190.647C109.894 194.308 115.077 198.352 118.525 199.322C119.611 199.628 124.55 199.775 129.5 199.65C137.349 199.451 138.991 199.088 142.344 196.805M25.5 171.124C19.973 169.658 14.245 166.104 10.662 161.918C5.104 155.425 2.156 144.244 5.2 141.2C6.914 139.486 65.086 139.486 66.8 141.2C69.845 144.245 66.896 155.425 61.334 161.923C55.592 168.632 49.28 171.253 38 171.615C32.775 171.782 27.15 171.561 25.5 171.124M213.5 171.124C207.973 169.658 202.245 166.104 198.662 161.918C193.104 155.425 190.156 144.244 193.2 141.2C194.914 139.486 253.086 139.486 254.8 141.2C257.8450000000001 144.245 254.896 155.425 249.334 161.923C243.592 168.632 237.28 171.253 226 171.615C220.775 171.782 215.15 171.561 213.5 171.124M50.344 160.805C54.458 158.004 59 152.1 59 149.553C59 148.194 56.127 148 36 148C10.355 148 10.793 147.859 15.406 154.647C17.894 158.308 23.077 162.352 26.525 163.322C27.611 163.628 32.55 163.775 37.5 163.65C45.349 163.451 46.991 163.088 50.344 160.805M238.344 160.805C242.458 158.004 247 152.1 247 149.553C247 148.194 244.127 148 224 148C202.492 148 201 148.117 201 149.806C201 153.683 209.125 161.803 214.525 163.322C215.611 163.628 220.55 163.775 225.5 163.65C233.349 163.451 234.991 163.088 238.344 160.805M119.932 151.043C109.359 149.133 97.135 139.712 92.15 129.633C86.935 119.088 86.935 104.946 92.15 94.339C95.165 88.206 104.206 79.165 110.339 76.15C117.415 72.672 126.605 71.355 134.44 72.697C143.203 74.198 149.401 77.46 155.97 84.03C162.54 90.599 165.802 96.797 167.303 105.56C171.173 128.155 154.276 149.779 131.5 151.377C127.65 151.648 122.444 151.497 119.932 151.043M141.501 140.628C152.797 135.457 159.452 124.81 159.397 112C159.349 100.914 155.016 92.223 146.483 86.095C130.207 74.407 107.758 80.455 99.158 98.845C93.764 110.379 96.391 125.324 105.396 134.33C114.822 143.756 129.193 146.263 141.501 140.628M102.259 57.992C81.862 52.647 66.561 34.694 64.397 13.568C63.921 8.929 64.092 6.594 64.986 5.517C66.086 4.191 74.023 4 128 4C181.977 4 189.914 4.191 191.014 5.517C191.908 6.594 192.079 8.929 191.603 13.568C189.373 35.339 173.378 53.398 151.825 58.479C142.085 60.776 111.743 60.478 102.259 57.992M149.201 50.891C165.446 47.492 179.841 32.882 182.859 16.728L183.742 12L128 12L72.258 12L73.141 16.728C76.076 32.438 89.784 46.792 105.5 50.614C111.879 52.165 142.193 52.358 149.201 50.891" />
    <glyph glyph-name="language"
      unicode="&#xEA0A;"
      horiz-adv-x="256" d="M37.2 234.8C36.321 233.921 36 225.702 36 204.06L36 174.521L53.18 157.32C68.575 141.906 70.258 139.893 69.385 137.936C68.668 136.331 64.451 134.173 53.455 129.786C45.23 126.504 37.938 123.355 37.25 122.787C36.449 122.126 36 119.008 36 114.103L36 106.451L26.706 101.835C21.595 99.296 15.971 96.005 14.209 94.523C10.153 91.11 7.519 82.839 8.537 76.713C10.004 67.882 13.36 64.558 27.926 57.507L36.176 53.514L35.838 44.274C35.512 35.368 35.382 34.918 32.233 31.768C28.994 28.529 28.863 28.496 17.337 28C7.697 27.585 5.521 27.201 4.61 25.75C3.81 24.478 3.811 23.522 4.612 22.25C5.538 20.779 7.538 20.455 17.143 20.22C27.524 19.966 28.982 20.156 33.036 22.297C35.491 23.593 38.85 26.569 40.5 28.91C43.451 33.098 43.5 33.373 43.5 45.834L43.5 58.5L31.337 64.807C20.992 70.171 18.92 71.648 17.478 74.689C15.308 79.261 16.096 84.551 19.448 87.902C20.828 89.282 26.804 92.907 32.729 95.956L43.5 101.5L44 109.483L44.5 117.467L58.321 123.143C65.923 126.264 72.969 129.567 73.98 130.482C76.903 133.127 78.305 137.56 77.528 141.701C76.937 144.854 74.275 147.91 60.414 161.352L44 177.269L44 205.435C44 234.399 43.79 236 40 236C39.12 236 37.86 235.46 37.2 234.8M128.139 210.87C119.765 208.416 111.895 200.625 109.394 192.313C108.311 188.714 107.999 179.415 107.997 150.591L107.995 113.5L92 93.5C83.203 82.5 76.004 72.768 76.003 71.872C76.001 70.977 76.622 69.729 77.382 69.098C78.401 68.253 98.82 68.024 155.132 68.226L231.5 68.5L237 71.599C243.455 75.236 249.378 82.471 250.923 88.608C251.617 91.365 252 109.73 252 140.261C252 193.405 251.917 194.151 245.144 202.009C243.006 204.488 239.062 207.638 236.379 209.009L231.5 211.5L181.5 211.678C151.059 211.786 130.185 211.47 128.139 210.87M234.803 200.637C237.383 198.849 239.885 195.866 241.467 192.691L244 187.607L243.994 140.554C243.991 111.822 243.594 92.078 242.974 89.848C241.647 85.067 234.812 78.296 230.009 77.002C227.58 76.348 201.75 76.078 157.519 76.243L88.804 76.5L102.4 93.5L115.996 110.5L116.02 149C116.042 184.877 116.176 187.79 117.975 191.754C120.166 196.58 124.097 200.634 128.5 202.607C130.904 203.684 141.344 203.906 181.086 203.725L230.673 203.5L234.803 200.637M149.214 162.814C147.601 161.201 147.674 158.515 149.371 157.107C150.344 156.3 159.381 156.047 180.512 156.235C207.607 156.476 210.382 156.657 211.386 158.25C212.191 159.526 212.191 160.474 211.386 161.75C210.382 163.343 207.6 163.524 180.356 163.764C157.917 163.963 150.125 163.725 149.214 162.814M149.214 122.814C147.601 121.201 147.674 118.515 149.371 117.107C150.344 116.3 159.381 116.047 180.512 116.235C207.607 116.476 210.382 116.657 211.386 118.25C212.191 119.526 212.191 120.474 211.386 121.75C210.382 123.343 207.6 123.524 180.356 123.764C157.917 123.963 150.125 123.725 149.214 122.814" />
    <glyph glyph-name="exchange"
      unicode="&#xEA0B;"
      horiz-adv-x="256" d="M49.5 251.12C36.867 247.785 28 236.6 28 224C28 208.942 40.942 196 56 196C71.058 196 84 208.942 84 224C84 238.362 72.756 250.359 58.254 251.471C55.089 251.714 51.15 251.556 49.5 251.12M66.531 240.673C68.542 239.306 71.379 236.458 72.835 234.344C75.036 231.147 75.48 229.406 75.471 224C75.461 218.514 75.013 216.837 72.596 213.249C68.285 206.849 63.83 204.5 56 204.5C48.17 204.5 43.715 206.849 39.404 213.249C36.987 216.837 36.539 218.514 36.529 224C36.52 229.406 36.964 231.147 39.165 234.344C41.873 238.276 46.999 242.329 50.525 243.325C54.741 244.515 62.854 243.171 66.531 240.673M149.239 226.74C139.758 217.246 132 208.804 132 207.979C132 205.997 166.074 172 168.06 172C170.035 172 172 173.964 172 175.937C172 176.782 166.037 183.465 158.75 190.788L145.5 204.103L168.5 203.801C190.744 203.51 191.66 203.418 196.379 201.008C201.759 198.261 207.379 192.399 209.809 187C210.95 184.465 211.538 178.842 211.942 166.606C212.425 151.978 212.735 149.563 214.25 148.611C215.525 147.809 216.475 147.811 217.75 148.618C219.307 149.604 219.5 151.643 219.5 167.113C219.5 184.06 219.429 184.652 216.7 190.5C213.054 198.315 206.256 205.144 198.61 208.672C192.594 211.449 192.144 211.5 169.232 211.996L145.964 212.5L158.982 225.486C166.142 232.628 172 239.175 172 240.036C172 242.041 170.043 244 168.039 244C167.181 244 158.721 236.233 149.239 226.74M46 179.422C44.625 179.177 40.8 178.507 37.5 177.932C29.489 176.538 18.975 172.51 13.265 168.647C6.681 164.192 4 158.665 4 149.543C4 145.321 4.491 141.909 5.2 141.2C6.929 139.471 105.071 139.471 106.8 141.2C108.333 142.733 108.245 154.405 106.668 158.753C103.988 166.142 92.823 173.324 78.136 177.107C70.803 178.996 51.437 180.391 46 179.422M69.201 170.912C77.028 169.305 86.363 166.367 90.689 164.149C96.496 161.171 99.16 157.764 99.746 152.562L100.26 148L56 148L11.74 148L12.261 152.622C12.929 158.553 16.193 161.807 25.5 165.824C38.469 171.421 56.498 173.52 69.201 170.912M193.5 115.12C180.867 111.785 172 100.6 172 88C172 72.942 184.942 60 200 60C215.058 60 228 72.942 228 88C228 102.362 216.756 114.359 202.254 115.471C199.089 115.714 195.15 115.556 193.5 115.12M37.2 106.8C35.299 104.899 35.594 76.731 37.584 70.028C40.605 59.858 47.525 51.961 57.5 47.302C63.406 44.544 63.866 44.492 86.767 44L110.035 43.5L97.017 30.514C89.858 23.372 84 16.825 84 15.964C84 13.959 85.957 12 87.961 12C89.96 12 124 46.023 124 48.021C124 50.003 89.926 84 87.94 84C85.965 84 84 82.036 84 80.063C84 79.218 89.963 72.535 97.25 65.212L110.5 51.897L87.5 52.199L64.5 52.5L59 55.599C52.875 59.05 46.879 66.123 45.13 71.962C44.508 74.035 44 82.452 44 90.666C44 105.911 43.518 108 40 108C39.12 108 37.86 107.46 37.2 106.8M210.531 104.673C212.542 103.306 215.379 100.458 216.835 98.344C219.036 95.147 219.48 93.406 219.471 88C219.461 82.514 219.013 80.837 216.596 77.249C212.285 70.849 207.83 68.5 200 68.5C192.17 68.5 187.715 70.849 183.404 77.249C180.987 80.837 180.539 82.514 180.529 88C180.52 93.406 180.964 95.147 183.165 98.344C185.873 102.276 190.999 106.329 194.525 107.325C198.741 108.515 206.854 107.171 210.531 104.673M190 43.422C188.625 43.177 184.8 42.507 181.5 41.932C173.489 40.538 162.975 36.51 157.265 32.647C150.681 28.192 148 22.665 148 13.543C148 9.321 148.491 5.909 149.2 5.2C150.929 3.471 249.071 3.471 250.8 5.2C252.333 6.733 252.245 18.405 250.668 22.753C247.988 30.142 236.823 37.324 222.136 41.107C214.803 42.996 195.437 44.391 190 43.422M213.201 34.912C221.028 33.305 230.363 30.367 234.689 28.149C240.496 25.171 243.16 21.764 243.746 16.562L244.26 12L200 12L155.74 12L156.261 16.622C156.929 22.553 160.193 25.807 169.5 29.824C182.469 35.421 200.498 37.52 213.201 34.912" />
    <glyph glyph-name="multiple-11"
      unicode="&#xEA0C;"
      horiz-adv-x="256" d="M119.746 250.977C113.547 249.412 106.745 245.429 102.427 240.834C97.132 235.199 95.521 232.494 93.59 225.991C89.674 212.806 93.41 199.408 103.644 189.928C108.836 185.119 111.676 183.471 118.009 181.59C136.894 175.982 156.736 186.901 162.416 206.028C168.912 227.904 153.207 250.142 130.29 251.517C126.556 251.741 121.811 251.498 119.746 250.977M140.029 241.023C146.095 237.98 149.693 234.449 152.789 228.5C156.526 221.318 156.504 210.653 152.735 203.362C142.203 182.984 113.884 182.984 103.235 203.362C99.563 210.389 99.407 221.306 102.883 228C106.853 235.645 112.434 240.304 121 243.125C125.277 244.533 135.223 243.434 140.029 241.023M41.5 235.12C28.867 231.785 20 220.6 20 208C20 192.942 32.942 180 48 180C63.058 180 76 192.942 76 208C76 222.362 64.756 234.359 50.254 235.471C47.089 235.714 43.15 235.556 41.5 235.12M201.5 235.12C188.867 231.785 180 220.6 180 208C180 192.942 192.942 180 208 180C223.058 180 236 192.942 236 208C236 222.362 224.756 234.359 210.254 235.471C207.089 235.714 203.15 235.556 201.5 235.12M58.531 224.673C60.542 223.306 63.379 220.458 64.835 218.344C67.036 215.147 67.48 213.406 67.471 208C67.461 202.514 67.013 200.837 64.596 197.249C60.285 190.849 55.83 188.5 48 188.5C40.17 188.5 35.715 190.849 31.404 197.249C28.987 200.837 28.539 202.514 28.529 208C28.52 213.406 28.964 215.147 31.165 218.344C33.873 222.276 38.999 226.329 42.525 227.325C46.741 228.515 54.854 227.171 58.531 224.673M218.531 224.673C220.542 223.306 223.379 220.458 224.835 218.344C227.036 215.147 227.48 213.406 227.471 208C227.461 202.514 227.013 200.837 224.596 197.249C220.285 190.849 215.83 188.5 208 188.5C200.17 188.5 195.715 190.849 191.404 197.249C188.987 200.837 188.539 202.514 188.529 208C188.52 213.406 188.964 215.147 191.165 218.344C193.873 222.276 198.999 226.329 202.525 227.325C206.741 228.515 214.854 227.171 218.531 224.673M24.139 162.887C19.207 161.417 13.692 157.66 10.096 153.32C4.831 146.965 3.918 141.847 4.227 120.416L4.5 101.5L11.5 97.783C15.35 95.739 18.869 93.929 19.32 93.76C19.771 93.592 21.043 81.093 22.146 65.987C23.25 50.88 24.631 37.945 25.214 37.242C26.032 36.257 31.756 36.026 50.279 36.233C71.878 36.473 74.394 36.675 75.387 38.25C76.191 39.526 76.191 40.474 75.387 41.75C74.402 43.312 72.014 43.529 53.183 43.77L32.083 44.04L31.58 47.27C31.303 49.046 30.352 61.068 29.465 73.986C28.579 86.903 27.465 97.939 26.99 98.512C26.515 99.084 22.921 101.103 19.004 102.998L11.881 106.444L12.191 124.64L12.5 142.835L15.5 147.091C17.15 149.431 20.483 152.394 22.907 153.673C27.103 155.888 28.281 155.999 47.407 155.978C64.783 155.959 68.041 155.707 71.5 154.114C77.214 151.481 81.368 147.345 80.44 145.212C76.178 135.42 76.066 134.371 76.033 103.872C76.008 81.352 76.3 73.998 77.25 73.217C77.938 72.652 82.412 71.415 87.194 70.469L95.887 68.749L96.433 63.624C96.733 60.806 97.692 46.806 98.564 32.513C99.435 18.22 100.62 5.958 101.197 5.263C102.71 3.439 153.29 3.439 154.803 5.263C155.38 5.958 156.565 18.22 157.436 32.513C158.308 46.806 159.267 60.806 159.567 63.624L160.113 68.749L168.806 70.469C173.588 71.415 178.063 72.652 178.75 73.217C179.7 73.998 179.992 81.352 179.967 103.872C179.934 134.371 179.822 135.42 175.56 145.212C174.632 147.345 178.786 151.481 184.5 154.114C187.959 155.707 191.217 155.959 208.593 155.978C227.719 155.999 228.897 155.888 233.093 153.673C235.517 152.394 238.85 149.431 240.5 147.091L243.5 142.835L243.809 124.64L244.119 106.444L236.996 102.998C233.079 101.103 229.485 99.084 229.01 98.512C228.535 97.939 227.421 86.903 226.535 73.986C225.648 61.068 224.697 49.046 224.42 47.27L223.917 44.04L202.817 43.77C183.986 43.529 181.598 43.312 180.613 41.75C179.809 40.474 179.809 39.526 180.613 38.25C181.606 36.675 184.122 36.473 205.721 36.233C224.244 36.026 229.968 36.257 230.786 37.242C231.369 37.945 232.75 50.88 233.854 65.987C234.957 81.093 236.229 93.592 236.68 93.76C237.131 93.929 240.65 95.739 244.5 97.783L251.5 101.5L251.773 120.416C252.093 142.606 251.181 147.241 245.146 154.097C243.005 156.529 239.059 159.64 236.377 161.009C231.589 163.455 231.071 163.5 208 163.5C185.32 163.5 184.343 163.418 180 161.163C177.525 159.877 174.122 157.508 172.438 155.898L169.375 152.972L167.108 155.385C165.861 156.712 162.064 159.081 158.67 160.649L152.5 163.5L128 163.5L103.5 163.5L97.33 160.649C93.936 159.081 90.139 156.712 88.892 155.385L86.625 152.972L83.562 155.898C81.878 157.508 78.475 159.877 76 161.163C71.723 163.384 70.41 163.51 49.5 163.694C37.089 163.804 26.035 163.452 24.139 162.887M156.5 152.888C163.262 149.355 169.481 141.645 170.898 135.038C171.536 132.064 172 119.241 172 104.575L172 79.248L163.023 77.505C158.086 76.546 153.617 75.244 153.093 74.612C152.568 73.98 151.421 61.546 150.543 46.981C149.665 32.417 148.706 18.588 148.412 16.25L147.877 12L128 12L108.123 12L107.588 16.25C107.294 18.588 106.335 32.417 105.457 46.981C104.579 61.546 103.432 73.98 102.907 74.612C102.383 75.244 97.914 76.546 92.977 77.505L84 79.248L84 105.465C84 124.998 84.355 132.863 85.394 136.313C87.893 144.616 95.729 152.381 104.139 154.887C106.035 155.452 117.089 155.804 129.5 155.694C151.096 155.504 151.592 155.452 156.5 152.888" />
    <glyph glyph-name="alert-circle-i"
      unicode="&#xEA0D;"
      horiz-adv-x="256" d="M128 256C57.6 256 0 198.4 0 128S57.6 0 128 0S256 57.6 256 128S198.4 256 128 256zM144 64H112V144H144V64zM128 160C118.4 160 112 166.4 112 176S118.4 192 128 192S144 185.6 144 176S137.6 160 128 160z" />
    <glyph glyph-name="diag-bottom-right"
      unicode="&#xEA0E;"
      horiz-adv-x="256" d="M224 16H96V48H185.376L20.688 212.688L43.312 235.312L208 70.624V160H240V32C240 23.168 232.832 16 224 16z" />
    <glyph glyph-name="diag-top-right"
      unicode="&#xEA0F;"
      horiz-adv-x="256" d="M224 240H96V208H185.376L20.688 43.312L43.312 20.688L208 185.376V96H240V224C240 232.832 232.832 240 224 240z" />
    <glyph glyph-name="multiple"
      unicode="&#xEA10;"
      horiz-adv-x="256" d="M73.173 238.033C49.329 231.583 32.043 208.671 32.032 183.5C32.021 158.669 50.374 135.688 75.064 129.615C104.58 122.354 135.463 141.418 142.494 171.24C148.995 198.81 132.895 227.837 106 237.039C96.679 240.228 82.837 240.647 73.173 238.033M96.006 222.999C108.022 220.72 118.686 212.146 124.268 200.274C127.149 194.146 127.453 192.594 127.453 184C127.453 175.416 127.148 173.85 124.283 167.759C116.427 151.051 99.126 141.857 81.361 144.951C68.156 147.25 57.543 155.41 51.693 167.759C48.789 173.891 48.503 175.359 48.529 184C48.555 192.555 48.874 194.174 51.738 200.274C59.908 217.68 77.212 226.563 96.006 222.999M191.932 223.043C181.359 221.133 169.135 211.712 164.15 201.633C158.935 191.088 158.935 176.946 164.15 166.339C167.165 160.206 176.206 151.165 182.339 148.15C192.946 142.935 207.054 142.935 217.661 148.15C223.794 151.165 232.835 160.206 235.85 166.339C241.065 176.946 241.065 191.088 235.85 201.633C232.362 208.686 224.195 216.552 216.815 219.965C209.804 223.208 199.737 224.454 191.932 223.043M210.622 205.177C218.993 200.873 223.434 193.53 223.429 184C223.419 162.942 198.711 152.144 183.812 166.685C170.256 179.917 175.589 201.098 193.994 207.124C197.845 208.385 206.311 207.394 210.622 205.177M187.5 126.6C180.052 124.768 170.155 120.012 167.946 117.204C165.092 113.576 165.399 108.618 168.635 106.073C172.123 103.329 173.853 103.45 180.72 106.922C189.216 111.216 197.291 112.62 205.868 111.292C214.971 109.883 221.265 106.72 227.791 100.274C235.405 92.755 238.959 84.642 239.708 73.073L240.296 64L218.603 64L196.909 64L194.455 61.545C191.266 58.357 191.265 54.085 194.452 50.646L196.905 48L224 48L251.095 48L253.548 50.646C255.872 53.154 255.999 53.922 255.983 65.396C255.973 72.053 255.321 80.541 254.533 84.257C251.573 98.225 241.131 112.602 228.34 120.319C217.148 127.072 200.085 129.696 187.5 126.6M74.536 110.957C63.261 109.182 49.909 103.972 39.67 97.353C20.222 84.779 5.543 62.526 1.535 39.539C-0.726 26.575 -0.519 21.852 2.452 18.646L4.905 16L88 16L171.095 16L173.667 18.75C176.136 21.39 176.214 21.841 175.619 30C172.348 74.832 136.195 109.856 91.5 111.493C85.45 111.715 77.816 111.474 74.536 110.957M102.792 94.44C107.21 93.545 114.541 90.93 119.968 88.311C128.041 84.417 130.786 82.394 138.59 74.59C146.388 66.792 148.42 64.034 152.317 55.968C154.833 50.761 157.516 43.35 158.28 39.5L159.668 32.5L123.834 32.238C104.125 32.093 71.875 32.093 52.166 32.238L16.332 32.5L17.688 39.5C18.459 43.481 21.047 50.597 23.687 56C27.613 64.033 29.737 66.908 37.447 74.622C45.21 82.388 47.97 84.422 56.032 88.317C71.346 95.716 86.614 97.715 102.792 94.44" />
    <glyph glyph-name="clapping-hands"
      unicode="&#xEA11;"
      horiz-adv-x="256" d="M77.187 249.32C70.359 246.527 67.651 243.57 67.78 239.047C67.826 237.431 71.931 228.927 77.286 219.352C85.293 205.036 87.255 202.227 90.319 200.685C93.696 198.986 94.144 198.975 97.371 200.506C103.735 203.526 103.823 205.428 98.629 227.736C92.605 253.61 91.181 255.044 77.187 249.32M90.449 227.25C92.546 218.037 94.5 209.876 94.79 209.114C95.112 208.27 94.801 207.9 93.997 208.168C92.69 208.603 76 237.326 76 239.141C76 240.061 83.45 243.789 85.568 243.929C86.155 243.968 88.352 236.463 90.449 227.25M37.386 222.715C34.312 220.948 27.11 212.285 26.415 209.519C25.217 204.744 28.038 201.812 44.5 190.716C53.3 184.785 61.521 179.671 62.769 179.353C68.354 177.927 75.095 184.609 73.659 190.144C73.054 192.475 53.641 215.944 47.929 221.25C44.742 224.21 40.915 224.742 37.386 222.715M52.517 204C57.916 197.675 63.192 191.535 64.242 190.355C68.557 185.507 63.616 187.677 49.963 196.626C42.008 201.84 35.12 206.484 34.656 206.946C33.77 207.83 40.784 216.275 41.997 215.784C42.384 215.628 47.117 210.325 52.517 204M143.213 201.921C141.405 200.73 139.23 198.412 138.381 196.77L136.836 193.783L134.168 196.269C130.329 199.847 127.659 201 123.214 201C118.906 201 113.905 198.149 110.759 193.9C107.11 188.972 109.002 177.675 113.917 175.044C115.368 174.268 116.366 174.484 118.157 175.961C120.457 177.858 120.468 177.951 118.75 181.028C115.233 187.327 117.501 193 123.536 193C125.956 193 130.122 189.3 149.717 169.75L173.02 146.5L174.843 135.196L176.665 123.893L154.582 145.832C142.437 157.899 131.06 168.498 129.3 169.386C122.454 172.839 113.097 170.13 109.006 163.51L106.811 159.959L103.419 162.937C97.405 168.217 89.289 168.856 82.741 164.566C79.021 162.129 75.62 154.726 76.299 150.544C76.785 147.551 76.569 147.164 74.143 146.679C67.799 145.41 63 138.756 63 131.228C63 127.091 66.716 120.337 71.313 116.119L73.907 113.738L70.728 111.595C63.697 106.858 60.916 97.863 64.421 91.2C65.202 89.715 83.089 71.38 104.171 50.456C145.725 9.21 146.239 8.801 160.686 5.394C174.175 2.213 191.414 5.314 202.26 12.873C204.592 14.498 208.8 18.229 211.611 21.164C225.503 35.669 231.829 53.088 230.76 73.89C230.231 84.181 230.593 82.932 215.08 128C208.816 146.197 208.021 149.342 208.002 156C207.99 160.125 207.319 169.35 206.51 176.5C205.116 188.832 205.135 189.628 206.873 192C209.528 195.625 213.49 196.795 216.818 194.937C218.788 193.837 219.979 191.854 221.305 187.47C225.333 174.151 232.105 153.581 237.592 138C243.226 122.002 243.405 121.18 243.452 111C243.49 102.729 243.011 98.944 241.196 93.167C238.676 85.145 239.172 83 243.551 83C245.44 83 246.243 84.032 247.995 88.716C252.293 100.204 253.155 112.476 250.465 123.886C249.637 127.399 245.97 138.649 242.317 148.886C238.664 159.124 233.781 173.926 231.466 181.779C229.151 189.633 226.412 197.009 225.379 198.17C222.893 200.965 216.244 203.955 212.5 203.962C207.457 203.971 201.777 200.057 199.152 194.766C196.864 190.155 196.834 189.757 198.005 179.453C198.667 173.635 199.031 168.698 198.816 168.482C198.6 168.267 196.712 168.678 194.621 169.397C191.903 170.332 186.151 175.365 174.465 187.035L158.113 203.364L152.307 203.725C147.632 204.015 145.859 203.663 143.213 201.921M168.06 182.44L181.645 168.881L177.977 165.19C175.96 163.161 174.065 160.825 173.766 160C173.385 158.944 169.048 162.639 159.112 172.487C147.346 184.148 145 186.961 145 189.408C145 193.318 147.601 196 151.392 196C154.015 196 156.496 193.982 168.06 182.44M9.727 176.623C5.842 173.022 3.043 161.58 4.877 156.798C6.56 152.411 10.227 151.366 30.713 149.434C46.663 147.93 50.337 147.843 52.352 148.921C57.217 151.524 58.55 159.21 54.75 162.744C52.107 165.202 18.057 179 14.634 179C13.346 179 11.138 177.93 9.727 176.623M33.25 163.93C48.353 157.905 51.601 156 46.774 156C43.75 156 12.58 159.172 12.184 159.52C11.894 159.775 13.478 166.668 14.558 169.854C14.81 170.598 15.576 170.984 16.258 170.71C16.941 170.437 24.587 167.386 33.25 163.93M152 136.5C179.54 109.084 181.662 107.478 185.016 111.519C186.432 113.226 186.173 116.419 183.03 136C180.314 152.916 180.378 156.469 183.455 159.545C188.891 164.982 196.821 161.554 198.911 152.865C200.23 147.378 210.151 117.252 217.143 97.5L222.453 82.5L222.457 70C222.461 61.218 221.982 56.013 220.849 52.5C215.078 34.619 203.043 20.375 189 14.804C184.615 13.064 181.372 12.613 173 12.578C160.893 12.527 154.16 14.487 146.225 20.369C143.626 22.296 125.638 39.778 106.25 59.219C75.067 90.487 71 94.924 71 97.672C71 101.706 73.667 104.833 77.787 105.629C80.973 106.245 81.677 105.666 100.867 86.632C111.753 75.835 121.321 67 122.13 67C124.21 67 126 69.048 126 71.427C126 72.745 116.387 83.089 98.5 101.018C74.654 124.919 71 128.984 71 131.603C71 135.908 74.238 139 78.748 139C82.217 139 83.924 137.497 109.982 111.5C125.143 96.375 138.268 84 139.151 84C141.218 84 143.26 86.465 142.833 88.445C142.65 89.292 129.814 102.701 114.308 118.243C98.803 133.784 85.636 147.779 85.048 149.342C83.681 152.978 85.443 156.966 89.213 158.773C91.451 159.846 92.467 159.821 95.204 158.624C97.041 157.822 110.897 144.745 126.498 129.092C141.898 113.641 155.195 101 156.048 101C158.028 101 160 102.957 160 104.922C160 105.759 149.875 116.604 137.5 129.022C117.043 149.55 115 151.907 115 154.985C115 159.386 118.321 163 122.364 163C124.973 163 128.973 159.424 152 136.5" />
    <glyph glyph-name="time-clock"
      unicode="&#xEA12;"
      horiz-adv-x="256" d="M128 256C57.6 256 0 198.4 0 128S57.6 0 128 0S256 57.6 256 128S198.4 256 128 256zM128 32C75.2 32 32 75.2 32 128S75.2 224 128 224S224 180.8 224 128S180.8 32 128 32zM144 192L112 192L112 112L192 112L192 144L144 144z" />
    <glyph glyph-name="circle-08"
      unicode="&#xEA13;"
      horiz-adv-x="256" d="M80 144A48 48 0 0 1 176 144A48 48 0 0 1 80 144M128 256C57.6 256 0 198.4 0 128S57.6 0 128 0S256 57.6 256 128S198.4 256 128 256zM192 57.6C182.4 68.8 169.6 80 144 80H112C86.4 80 73.6 68.8 64 57.6C44.8 75.2 32 99.2 32 128C32 180.8 75.2 224 128 224S224 180.8 224 128C224 99.2 211.2 75.2 192 57.6z" />
    <glyph glyph-name="collection"
      unicode="&#xEA14;"
      horiz-adv-x="256" d="M32.358 255.058C27.05 253.772 22.112 250.047 19.241 245.163L16.5 240.5L16.5 128L16.5 15.5L19.277 10.777C21.077 7.714 23.714 5.077 26.777 3.277L31.5 0.5L128 0.5L224.5 0.5L229.223 3.277C232.286 5.077 234.923 7.714 236.723 10.777L239.5 15.5L239.5 128L239.5 240.5L236.723 245.223C234.923 248.286 232.286 250.923 229.223 252.723L224.5 255.5L130 255.66C78.025 255.748 34.086 255.477 32.358 255.058M222 238C223.975 236.025 224 234.667 224 128C224 21.333 223.975 19.975 222 18C220.029 16.029 218.667 16 128 16C37.333 16 35.971 16.029 34 18C32.025 19.975 32 21.333 32 128C32 234.667 32.025 236.025 34 238C35.971 239.971 37.333 240 128 240C218.667 240 220.029 239.971 222 238M57.45 206.593C47.361 202.199 44.978 188.787 52.882 180.882C64.117 169.647 82.528 179.71 79.572 195.471C77.82 204.807 66.462 210.519 57.45 206.593M114.455 157.545L112 155.091L112 128.191L112 101.292L114.452 98.646L116.905 96L152 96L187.095 96L189.548 98.646L192 101.292L192 128.191L192 155.091L189.545 157.545L187.091 160L152 160L116.909 160L114.455 157.545M57.45 142.593C47.361 138.199 44.978 124.787 52.882 116.882C64.117 105.647 82.528 115.71 79.572 131.471C77.82 140.807 66.462 146.519 57.45 142.593M176 128L176 112L152 112L128 112L128 128L128 144L152 144L176 144L176 128M57.45 78.593C47.361 74.199 44.978 60.787 52.882 52.882C64.117 41.647 82.528 51.71 79.572 67.471C77.82 76.807 66.462 82.519 57.45 78.593" />
    <glyph glyph-name="settings-tool-66"
      unicode="&#xEA15;"
      horiz-adv-x="256" d="M168.5 254.434C164.65 253.585 157.239 250.833 152.032 248.317C143.97 244.422 141.21 242.388 133.447 234.622C125.731 226.902 123.617 224.04 119.693 216C112.586 201.438 110.479 187.263 113.154 172C113.781 168.425 114.34 164.55 114.397 163.39C114.478 161.721 102.634 152.452 57.749 119.062C-0.422 75.787 -1.045 75.252 0.356 69.75C0.671 68.513 16.148 52.312 34.749 33.75C64.636 3.924 68.929 0 71.673 0C73.381 0 75.68 0.787 76.783 1.75C77.885 2.712 97.347 28.475 120.03 59C156.675 108.312 161.564 114.49 163.886 114.41C165.324 114.36 169.425 113.801 173 113.167C196.757 108.956 219.473 116.939 236.932 135.635C248.472 147.991 254.429 161.962 255.646 179.525C256.642 193.882 251.526 214.043 246.158 216.915C240.972 219.691 239.317 218.666 223.305 202.774L207.964 187.548L197.756 197.756L187.548 207.964L202.841 223.372C217.732 238.375 218.125 238.881 217.817 242.608C217.563 245.672 216.821 246.892 214.098 248.721C205.147 254.733 182.65 257.551 168.5 254.434M191.942 239.362L195.134 238.723L181.567 225.032C169.583 212.938 168 210.95 168 207.999C168 205.002 169.881 202.769 186.258 186.329C202.817 169.706 204.834 168 207.928 168C210.97 168 212.824 169.471 225.032 181.567L238.723 195.134L239.362 191.942C242.15 177.999 236.112 157.903 225.94 147.274C208.94 129.511 189.565 124.218 166.551 131.05C162.473 132.26 158.067 132.983 156.76 132.655C155.066 132.229 142.524 116.122 113.058 76.529C90.328 45.988 71.451 21 71.108 21C70.765 21 59.251 32.24 45.521 45.979C29.805 61.704 20.917 71.299 21.529 71.879C22.063 72.386 47.025 91.069 77 113.398C112.937 140.168 131.819 154.842 132.438 156.482C133.133 158.326 132.799 160.724 131.148 165.762C122.816 191.177 132.919 218.598 155.673 232.327C165.705 238.38 181.517 241.447 191.942 239.362" />
    <glyph glyph-name="book-bookmark"
      unicode="&#xEA16;"
      horiz-adv-x="256" d="M31.195 254.933C20.049 252.738 9.144 243.749 3.709 232.274L0.5 225.5L0.195 127C-0.034 53.11 0.19 27.051 1.092 22.699C3.332 11.896 10.522 4.277 21.144 1.449C29.116 -0.672 226.884 -0.672 234.856 1.449C245.478 4.277 252.668 11.896 254.908 22.699C255.81 27.051 256.034 53.11 255.805 127L255.5 225.5L252.291 232.274C246.66 244.162 236.004 252.724 224.006 254.999C217.511 256.231 37.473 256.169 31.195 254.933M48 187.082C48 157.977 48.28 133.435 48.621 132.545C49.358 130.624 54.102 128 56.838 128C57.903 128 66.915 134.525 76.864 142.5C86.813 150.475 95.424 157 96 157C96.576 157 105.187 150.475 115.136 142.5C135.01 126.569 136.959 125.695 141.548 130.646L144 133.292L144 186.646L144 240L181.634 240C207.816 240 220.475 239.638 223.236 238.811C225.418 238.157 229.367 235.677 232.012 233.299C240.412 225.747 240 230.54 240 140.412L240 61.181L234.75 62.579C226.964 64.651 29.036 64.651 21.25 62.579L16 61.181L16.006 140.341C16.009 194.375 16.357 220.77 17.102 223.5C18.438 228.401 26.952 237.074 32.008 238.684C33.928 239.295 38.313 239.842 41.75 239.898L48 240L48 187.082M128 196.378C128 161.631 127.746 152.952 126.75 153.721C126.063 154.252 119.489 159.482 112.142 165.343C102.377 173.133 98.035 176 96 176C93.965 176 89.623 173.133 79.858 165.343C72.511 159.482 65.938 154.252 65.25 153.721C64.254 152.952 64 161.631 64 196.378L64 240L96 240L128 240L128 196.378M231.906 46.694C237.641 44.684 239.5 41.088 239.5 32C239.5 22.912 237.641 19.316 231.906 17.306C227.004 15.589 28.996 15.589 24.094 17.306C18.359 19.316 16.5 22.912 16.5 32C16.5 41.088 18.359 44.684 24.094 46.694C28.996 48.411 227.004 48.411 231.906 46.694" />
    <glyph glyph-name="paper-2"
      unicode="&#xEA17;"
      horiz-adv-x="256" d="M66.455 253.545L64 251.091L64 189.545L64 128L34.455 128L4.909 128L2.408 125.499L-0.093 122.998L0.203 76.749L0.5 30.5L3.693 23.759C9.389 11.735 19.969 3.401 32.474 1.089C40.659 -0.424 215.341 -0.424 223.526 1.089C236.031 3.401 246.611 11.735 252.307 23.759L255.5 30.5L255.775 140.77L256.051 251.04L253.571 253.52L251.091 256L160 256L68.909 256L66.455 253.545M239.99 137.75L239.98 35.5L237.626 30.444C234.873 24.531 228.628 18.804 223.142 17.161C220.354 16.326 198.667 16 145.817 16L72.365 16L75.933 23.186L79.5 30.372L79.777 135.186L80.053 240L160.027 240L240 240L239.99 137.75M114.455 205.545C111.266 202.357 111.265 198.085 114.452 194.646L116.905 192L160 192L203.095 192L205.548 194.646C208.735 198.085 208.734 202.357 205.545 205.545L203.091 208L160 208L116.909 208L114.455 205.545M114.455 157.545C111.266 154.357 111.265 150.085 114.452 146.646L116.905 144L160 144L203.095 144L205.548 146.646C208.735 150.085 208.734 154.357 205.545 157.545L203.091 160L160 160L116.909 160L114.455 157.545M63.99 73.75C63.981 35.69 63.969 35.475 61.626 30.444C56.322 19.053 44.557 13.688 32.616 17.216C27.123 18.839 18.839 27.123 17.216 32.616C16.356 35.528 16 47.741 16 74.366L16 112L40 112L64 112L63.99 73.75M114.455 109.545C111.266 106.357 111.265 102.085 114.452 98.646L116.905 96L160 96L203.095 96L205.548 98.646C208.735 102.085 208.734 106.357 205.545 109.545L203.091 112L160 112L116.909 112L114.455 109.545M114.455 61.545C111.266 58.357 111.265 54.085 114.452 50.646L116.905 48L136 48L155.095 48L157.548 50.646C160.735 54.085 160.734 58.357 157.545 61.545C155.111 63.98 154.936 64 136 64C117.064 64 116.889 63.98 114.455 61.545" />
    <glyph glyph-name="signal"
      unicode="&#xEA18;"
      horiz-adv-x="256" d="M146.455 253.545C143.326 250.417 143.266 246.084 146.306 242.804C148.32 240.631 149.776 240.228 157.822 239.621C201.919 236.292 236.374 201.812 239.65 157.733C240.187 150.517 240.709 148.527 242.603 146.483C245.78 143.056 250.314 143.165 253.669 146.75C256.148 149.4 256.221 149.829 255.658 158.5C254.539 175.757 247.999 195.066 238.287 209.79C232.503 218.559 218.436 232.587 209.523 238.474C193.042 249.36 171.96 256 153.882 256C149.935 256 148.403 255.493 146.455 253.545M146.592 205.683C143.53 202.621 143.247 198.537 145.861 195.138C147.337 193.219 149.283 192.539 156.23 191.513C166.813 189.95 172.962 187.019 179.772 180.293C186.488 173.66 190.684 164.976 191.584 155.849C192.091 150.698 192.829 148.397 194.581 146.507C199.748 140.932 208.017 145.182 207.983 153.396C207.866 180.965 184.449 205.605 156.342 207.733C149.619 208.242 149.026 208.117 146.592 205.683M16.358 159.066C11.039 157.764 6.109 154.042 3.241 149.163L0.5 144.5L0.5 80L0.5 15.5L3.277 10.777C5.077 7.714 7.714 5.077 10.777 3.277L15.5 0.5L72 0.5L128.5 0.5L133.223 3.277C136.286 5.077 138.923 7.714 140.723 10.777L143.5 15.5L143.5 80L143.5 144.5L140.723 149.223C138.923 152.286 136.286 154.923 133.223 156.723L128.5 159.5L74 159.668C44.025 159.76 18.086 159.489 16.358 159.066M126 142C127.93 140.07 128 138.667 128 102L128 64L72 64L16 64L16 102C16 138.667 16.07 140.07 18 142C19.949 143.949 21.333 144 72 144C122.667 144 124.051 143.949 126 142M128 34C128 21.333 127.81 19.81 126 18C124.051 16.051 122.667 16 72 16C21.333 16 19.949 16.051 18 18C16.19 19.81 16 21.333 16 34L16 48L72 48L128 48L128 34" />
    <glyph glyph-name="eye-ban-18"
      unicode="&#xEA19;"
      horiz-adv-x="256" d="M219.5 233.488C217.85 232.618 208.76 224.192 199.3 214.764L182.1 197.622L173.8 201.751C130.301 223.395 86.201 214.062 45.131 174.521C28.193 158.213 11 134.824 11 128.09C11 121.344 25.204 101.84 43.98 82.804L55.516 71.108L38.884 54.304C26.661 41.955 22.068 36.651 21.557 34.297C20.008 27.162 27.162 20.008 34.297 21.557C36.666 22.071 42.222 26.926 55.631 40.2L73.763 58.148L83.181 53.628C88.361 51.142 96.626 47.869 101.549 46.355C109.867 43.796 111.739 43.601 128 43.601C144.091 43.601 146.19 43.814 154.071 46.245C170.757 51.39 184.995 59.15 199.514 71.012C212.703 81.788 230.736 102.241 240.866 117.914C246.518 126.659 246.423 129.569 240.172 139.122C232.404 150.992 220.059 165.811 209.771 175.615L200.207 184.73L216.102 200.602C224.844 209.331 232.704 217.963 233.568 219.783C235.558 223.978 234.739 227.917 231.165 231.342C227.63 234.729 223.347 235.517 219.5 233.488M141.685 190.55C149.411 188.906 158.102 186.033 162.98 183.51L166.286 181.801L157.893 173.413L149.5 165.025L143.172 167.584C138.057 169.652 135.18 170.14 128.172 170.13C115.569 170.111 106.61 166.515 98.189 158.094C89.303 149.208 85.495 139.753 85.652 126.967C85.722 121.316 86.398 117.819 88.361 112.967L90.976 106.5L81.056 96.574L71.136 86.648L66.61 90.356C60.553 95.319 47.502 109.642 40.054 119.5C36.73 123.9 34.009 127.725 34.009 128C34.009 129.213 46.818 145.285 54.208 153.345C81.386 182.986 113.347 196.579 141.685 190.55M197.403 157.724C206.667 148.311 221.982 129.795 221.989 128C221.993 126.8 209.216 110.752 201.923 102.798C174.614 73.014 142.706 59.461 114.073 65.485C106.857 67.003 91.412 72.525 90.569 73.888C90.312 74.304 93.815 78.339 98.353 82.854L106.605 91.062L111.333 88.971C118.242 85.915 126.85 84.771 134.126 85.943C161.692 90.382 178.093 119.655 167.028 144.669L164.936 149.4L174.699 159.2C180.069 164.59 184.877 169 185.385 169C185.892 169 191.3 163.926 197.403 157.724M120.486 135.977L107.5 122.953L107.198 127.966C106.506 139.466 115.866 148.927 127.986 148.977L133.471 149L120.486 135.977M147.405 119.44C143.587 111.396 136.659 107 127.797 107L122.529 107L135.514 120.023L148.5 133.047L148.802 128.034C148.995 124.828 148.491 121.73 147.405 119.44" />
    <glyph glyph-name="tail-right"
      unicode="&#xEA1A;"
      horiz-adv-x="256" d="M242.208 135.5413333333334L160 217.7493333333334L144.9173333333333 202.6666666666667L208.9173333333333 138.6666666666667H21.3333333333333C15.4346666666667 138.6666666666667 10.6666666666667 133.888 10.6666666666667 128S15.4346666666667 117.3333333333334 21.3333333333333 117.3333333333334H208.9173333333333L144.9173333333333 53.3333333333333L160 38.2506666666667L242.208 120.4586666666667C246.3786666666667 124.6293333333333 246.3786666666667 131.3706666666667 242.208 135.5413333333334z" />
    <glyph glyph-name="small-add"
      unicode="&#xEA1B;"
      horiz-adv-x="256" d="M181.3333333333333 138.6666666666667H138.6666666666667V181.3333333333334C138.6666666666667 187.7333333333334 134.4 192 128 192S117.3333333333333 187.7333333333334 117.3333333333333 181.3333333333334V138.6666666666667H74.6666666666667C68.2666666666667 138.6666666666667 64 134.4 64 128S68.2666666666667 117.3333333333334 74.6666666666667 117.3333333333334H117.3333333333333V74.6666666666667C117.3333333333333 68.2666666666667 121.6 64 128 64S138.6666666666667 68.2666666666667 138.6666666666667 74.6666666666667V117.3333333333334H181.3333333333333C187.7333333333333 117.3333333333334 192 121.6 192 128S187.7333333333334 138.6666666666667 181.3333333333333 138.6666666666667z" />
    <glyph glyph-name="check-small"
      unicode="&#xEA1C;"
      horiz-adv-x="256" d="M106.6666666666667 74.6666666666667C103.4666666666667 74.6666666666667 101.3333333333333 75.7333333333334 99.2 77.8666666666667L56.5333333333333 120.5333333333333C52.2666666666667 124.8 52.2666666666667 131.2 56.5333333333333 135.4666666666667S67.2 139.7333333333334 71.4666666666667 135.4666666666667L106.6666666666667 100.2666666666667L184.5333333333333 178.1333333333333C188.8 182.4 195.2 182.4 199.4666666666667 178.1333333333333S203.7333333333333 167.4666666666667 199.4666666666667 163.2L114.1333333333333 77.8666666666667C112 75.7333333333334 109.8666666666667 74.6666666666667 106.6666666666667 74.6666666666667z" />
    <glyph glyph-name="h-dashboard"
      unicode="&#xEA1D;"
      horiz-adv-x="256" d="M110 206.468C91.356 203.864 72.51 196.662 56 185.831C46.188 179.394 29.73 162.893 22.816 152.561C7.095 129.066 0.538 107.674 0.578 80C0.604 61.35 1.928 53.423 5.546 50.25L8.112 48L128 48L247.888 48L250.508 50.254C252.776 52.204 253.333 53.919 254.65 63.004C258.079 86.653 253.521 114.867 242.776 136.5C233.954 154.261 215.299 175.78 200 185.842C173.023 203.584 141.346 210.844 110 206.468M153 189.034C186.746 180.692 212.678 160.328 227.519 130.516C237.531 110.405 241.935 87.397 239.364 68.64L238.728 64L185.878 64L133.028 64L113.584 102.808C93.444 143.002 92.798 144 86.905 144C84.24 144 80 139.301 80 136.348C80 135.051 87.876 118.241 97.503 98.994L115.006 64L66.082 64L17.159 64L16.441 70.706C16.046 74.394 16 81.706 16.339 86.956C19.586 137.235 55.755 179.012 105 189.364C109.125 190.231 113.625 191.147 115 191.4C121.193 192.538 144.759 191.071 153 189.034" />
    <glyph glyph-name="users-mm"
      unicode="&#xEA1E;"
      horiz-adv-x="256" d="M147 254.563C130.799 250.032 124.619 243.568 129.976 236.758C132.912 233.026 135.046 232.936 143.149 236.207C152.009 239.782 158.493 240.584 166.5 239.096C179.414 236.695 190.251 228.025 196.299 215.259L199.5 208.5L199.5 187.5C199.5 166.71 199.473 166.442 196.766 160.664C192.844 152.292 188.521 147.297 180.972 142.414C170.818 135.844 171.228 137.127 173.735 119.796C176.079 103.596 177.778 99.717 183.926 96.538C185.479 95.735 197.718 92.331 211.125 88.972C228.581 84.599 236.139 82.268 237.75 80.759C239.959 78.69 240 78.224 240 55.326L240 32L218.455 32C196.912 32 196.909 32 194.455 29.545C191.266 26.357 191.265 22.085 194.452 18.646L196.905 16L224 16L251.095 16L253.6 18.702L256.105 21.405L255.802 51.952L255.5 82.5L252.733 87.207C247.84 95.531 244.431 97.116 216.341 104.132L191.181 110.415L190.091 117.748C189.491 121.782 189 125.724 189 126.508C189 127.293 191.444 129.781 194.432 132.036C204.159 139.38 211.923 151.839 214.631 164.453C216.438 172.869 216.376 202.56 214.533 211.257C210.181 231.794 192.623 249.577 171.867 254.469C164.268 256.261 153.221 256.302 147 254.563M75.284 238.49C55.3 234.148 38.323 217.193 33.508 196.769C31.601 188.68 31.51 157.11 33.369 148.453C36.077 135.839 43.841 123.38 53.568 116.036C56.556 113.781 59 111.293 59 110.508C59 109.724 58.503 105.739 57.895 101.653L56.79 94.225L34.645 87.909L12.5 81.593L7.466 76.546C0.502 69.565 0 67.26 0 42.28C0 21.388 0.011 21.28 2.452 18.646L4.905 16L88 16L171.095 16L173.548 18.646C175.989 21.28 176 21.388 176 42.28C176 67.26 175.498 69.565 168.534 76.546L163.5 81.593L141.355 87.909L119.21 94.225L118.105 101.653C117.497 105.739 117 109.724 117 110.508C117 111.293 119.444 113.781 122.432 116.036C132.705 123.792 140.622 137.062 142.994 150.5C143.807 155.102 144.08 163.838 143.791 176C143.282 197.406 141.958 202.77 134.35 214.222C121.132 234.117 98.31 243.494 75.284 238.49M95.114 222.985C110.51 220.083 123.392 207.155 126.984 190.998C127.784 187.399 128.08 179.447 127.84 167.998C127.493 151.446 127.327 150.184 124.753 144.664C120.856 136.306 116.53 131.302 108.972 126.414C98.973 119.945 99.364 121.047 101.442 105.186C103.525 89.286 105.384 84.159 110.123 81.241C111.98 80.097 123.175 76.405 135 73.035C150.283 68.68 157.006 66.311 158.25 64.843C159.751 63.072 160 60.592 160 47.389L160 32L88 32L16 32L16 47.389C16 60.558 16.253 63.089 17.75 64.934C19.048 66.532 25.272 68.757 41.851 73.548C54.144 77.101 65.456 80.9 66.987 81.991C70.921 84.792 72.465 89.536 74.538 105.186C76.639 121.046 77.03 119.943 67.028 126.414C59.475 131.299 55.151 136.298 51.24 144.664C48.628 150.249 48.496 151.3 48.164 169.118C47.89 183.821 48.156 189.079 49.428 194.118C52.708 207.111 64.164 218.841 76.791 222.135C84.713 224.201 87.88 224.348 95.114 222.985" />
    <glyph glyph-name="ranking"
      unicode="&#xEA1F;"
      horiz-adv-x="256" d="M243.191 238.25C242.074 237.288 227.819 213.107 211.513 184.516C195.207 155.925 181.673 132.34 181.437 132.104C181.202 131.868 160.639 145.249 135.743 161.838C110.847 178.427 89.716 192 88.786 192C83.367 192 82.205 190.275 66.422 158.812L50.965 128L27.937 128L4.909 128L2.455 125.545C-0.734 122.357 -0.735 118.085 2.452 114.646L4.905 112L29.208 112L53.511 112L109.006 72.304C158.389 36.98 164.918 32.605 168.294 32.577C171.972 32.546 173.369 33.829 214.044 74.57C252.082 112.67 256 116.898 256 119.843C256 124.205 252.197 128 247.825 128C244.862 128 240.985 124.429 205.897 89.385C176.087 59.611 166.885 50.967 165.708 51.635C164.869 52.111 142.142 68.244 115.205 87.486L66.229 122.472L78.661 147.321L91.092 172.169L93.796 170.409C95.283 169.44 115.744 155.824 139.264 140.151C181.811 111.799 182.048 111.659 185.764 112.577C189.46 113.49 189.852 114.114 222.773 171.5C252.716 223.696 255.997 229.85 255.553 233C254.972 237.132 251.877 240 248 240C246.472 240 244.308 239.212 243.191 238.25M32.196 86.755C30.544 85.96 25.658 77.209 14.946 55.859C6.726 39.476 0 24.992 0 23.672C0 20.85 4.481 16 7.089 16C12.629 16 13.751 17.642 29.06 48.152C37.277 64.529 44 79.004 44 80.318C44 83.47 39.698 88.018 36.798 87.932C35.534 87.895 33.463 87.365 32.196 86.755" />
    <glyph glyph-name="bookmark"
      unicode="&#xEA20;"
      horiz-adv-x="256" d="M63.195 254.933C52.049 252.738 41.144 243.749 35.709 232.274L32.5 225.5L32.225 115.423L31.95 5.346L34.427 2.673C35.865 1.121 37.975 0 39.456 0C40.86 0 63.155 10.575 89.001 23.5L135.993 47.001L183.314 23.346C233.983 -1.981 233.359 -1.752 237.998 3.228C240.046 5.426 240.05 5.68 239.775 115.466L239.5 225.5L236.291 232.274C230.66 244.162 220.004 252.724 208.006 254.999C201.545 256.224 69.448 256.164 63.195 254.933M207.236 238.811C209.418 238.157 213.367 235.677 216.012 233.299C224.518 225.652 224 232.973 224 120.32L224 20.995L181.005 42.498C157.357 54.324 137.105 64 136 64C134.895 64 114.643 54.324 90.995 42.498L48 20.995L48.006 120.248C48.009 188.792 48.349 220.738 49.102 223.5C50.438 228.401 58.952 237.074 64.008 238.684C69.133 240.316 201.82 240.434 207.236 238.811" />
    <glyph glyph-name="logout-2"
      unicode="&#xEA21;"
      horiz-adv-x="256" d="M16.008 238.684C10.952 237.074 2.438 228.401 1.102 223.5C-0.536 217.492 -0.429 22.183 1.216 16.616C2.839 11.123 11.123 2.839 16.616 1.216C19.644 0.321 36.371 0 79.914 0L139.095 0L141.548 2.646C144.735 6.085 144.734 10.357 141.545 13.545L139.091 16L79.998 16L20.905 16L18.452 18.646L16 21.292L16 120.191L16 219.091L18.455 221.545L20.909 224L80.002 224L139.095 224L141.548 226.646C144.735 230.085 144.734 234.357 141.545 237.545L139.091 240L79.295 239.898C38.444 239.828 18.394 239.444 16.008 238.684M178.455 189.545C176.866 187.957 176 185.956 176 183.874C176 181.004 178.82 177.825 202.208 154.329L228.416 128L156.662 128L84.909 128L82.455 125.545C79.266 122.357 79.265 118.085 82.452 114.646L84.905 112L156.677 112L228.45 112L202.225 85.707C179.365 62.787 176 59.02 176 56.353C176 52.049 179.969 48 184.186 48C187.164 48 190.635 51.167 221.734 82.266C253.58 114.112 256 116.777 256 120C256 123.223 253.58 125.888 221.734 157.734C190.645 188.823 187.164 192 184.188 192C182.04 192 180.063 191.154 178.455 189.545" />
    <glyph glyph-name="eye-17"
      unicode="&#xEA22;"
      horiz-adv-x="256" d="M112.5 222.558C80.69 217.609 49.427 196.584 20.966 161C9.884 147.144 0.001 131.529 0.001 127.874C0 124.138 15.709 100.875 27.398 87.302C70.655 37.072 119.421 20.77 167.645 40.42C196.197 52.054 226.007 79.216 248.89 114.447C253.117 120.956 256 126.459 256 128.019C256 130.906 243.713 150.266 235.069 161C211.468 190.307 185.772 210.091 160.455 218.447C144.91 223.578 128.243 225.007 112.5 222.558M139.678 206.953C143.98 206.378 150.425 204.979 154 203.844C162.636 201.104 177.461 193.201 186.878 186.318C201.511 175.622 224.693 150.169 235.906 132.488L238.917 127.74L235.771 123.12C221.525 102.2 201.213 80.127 186 69.035C175.612 61.46 160.221 53.785 149.5 50.832C138.101 47.692 117.899 47.692 106.5 50.832C95.779 53.785 80.388 61.46 70 69.035C54.787 80.127 34.475 102.2 20.229 123.12L17.083 127.74L20.094 132.488C31.277 150.121 54.487 175.621 69.026 186.247C92.88 203.681 115.214 210.227 139.678 206.953M117 174.638C108.207 172.727 102 169.135 94.42 161.568C86.842 154.002 83.03 147.307 81.115 138.201C77.623 121.6 82.136 106.781 94.448 94.42C104.273 84.557 114.876 80 128 80C141.124 80 151.727 84.557 161.552 94.42C173.864 106.781 178.377 121.6 174.885 138.201C172.968 147.319 169.16 154.001 161.58 161.552C149.071 174.011 134.205 178.375 117 174.638M141.375 157.061C147.366 154.16 154.168 147.341 157.126 141.27C160.587 134.168 160.466 122.561 156.852 114.852C153.624 107.966 147.378 101.525 141.149 98.659C134.581 95.636 121.419 95.636 114.851 98.659C101.718 104.702 93.838 120.692 96.917 135.05C99.128 145.359 108.143 155.294 118.296 158.612C124.404 160.608 135.601 159.856 141.375 157.061" />
    <glyph glyph-name="b-preview"
      unicode="&#xEA23;"
      horiz-adv-x="256" d="M213.943 225.421L191.286 202.842L185.53 206.524C171.492 215.504 155.438 221.171 138.433 223.147C97.985 227.849 57.157 206.248 20.966 161C9.884 147.144 0.001 131.529 0.001 127.874C-0.001 121.275 28.247 84.076 44.224 69.637L51.5 63.061L29.75 41.229C10.937 22.344 8 18.984 8 16.344C8 12.067 11.974 8 16.152 8C19.051 8 21.831 10.422 42.014 30.536L64.628 53.071L72.333 48.44C108.127 26.927 147.631 26.99 183.995 48.62C206.867 62.224 230.621 86.319 248.89 114.447C253.083 120.903 256 126.463 256 128C256 131.194 244.662 148.883 234.208 162C230.044 167.225 221.733 176.393 215.74 182.373L204.844 193.245L226.422 214.967C245.509 234.181 248 237.058 248 239.89C248 244.193 244.172 248 239.845 248C236.949 248 234.159 245.568 213.943 225.421M139.678 206.954C143.98 206.378 150.875 204.797 155 203.441C162.617 200.936 178.153 193.041 178.701 191.396C178.866 190.901 152.948 164.445 121.105 132.605L63.209 74.715L60.219 76.844C52.333 82.459 31.505 106.562 20.229 123.12L17.083 127.74L20.094 132.488C31.277 150.121 54.487 175.621 69.026 186.247C92.879 203.681 115.213 210.226 139.678 206.954M113.173 181.971C90.32 175.984 72.116 152.73 72.017 129.396C71.983 121.182 80.252 116.932 85.419 122.507C87.171 124.397 87.909 126.698 88.416 131.849C89.316 140.976 93.512 149.66 100.228 156.293C107.038 163.019 113.187 165.95 123.77 167.513C130.717 168.539 132.663 169.219 134.139 171.138C136.705 174.475 136.469 178.622 133.545 181.545C130.459 184.632 123.86 184.77 113.173 181.971M205.989 169.25C216.925 158.145 229.201 143.059 235.906 132.488L238.917 127.74L235.771 123.12C221.525 102.2 201.213 80.127 186 69.035C175.612 61.46 160.221 53.785 149.5 50.832C143.083 49.064 138.828 48.628 128 48.628C111.324 48.628 103.442 50.559 87.138 58.638L75.775 64.269L134.134 122.634C166.232 154.735 192.927 181 193.456 181C193.985 181 199.625 175.713 205.989 169.25M170.603 133.694C168.825 131.916 168.138 129.775 167.603 124.353C166.299 111.114 157.764 98.461 146.178 92.59C143.315 91.139 137.272 89.402 132.342 88.613C125.567 87.528 123.184 86.71 121.795 84.995C119.29 81.902 119.552 77.775 122.452 74.646C125.429 71.434 130.882 71.134 140.936 73.63C161.436 78.719 177.73 95.034 182.494 115.24C184.782 124.941 184.488 130.603 181.545 133.545C178.363 136.728 173.7 136.791 170.603 133.694" />
    <glyph glyph-name="tail-up"
      unicode="&#xEA24;"
      horiz-adv-x="256" d="M90.263 213.737C52.811 176.284 48 171.122 48 168.383C48 164.057 51.954 160 56.169 160C59.123 160 62.688 163.25 93.716 194.231L128 228.461L128 116.877L128 5.292L130.452 2.646C133.744 -0.906 138.256 -0.906 141.548 2.646L144 5.292L144 116.877L144 228.461L178.284 194.231C209.312 163.25 212.877 160 215.831 160C220.046 160 224 164.057 224 168.383C224 171.122 219.189 176.284 181.737 213.737C142.275 253.199 139.243 256 136 256C132.757 256 129.725 253.199 90.263 213.737" />
    <glyph glyph-name="tail-down"
      unicode="&#xEA25;"
      horiz-adv-x="256" d="M130.455 253.545L128 251.091L128 139.315L128 27.539L93.716 61.769C62.697 92.74 59.122 96 56.171 96C51.798 96 48 92.203 48 87.831C48 84.87 51.872 80.697 90.252 42.286C129.811 2.696 132.728 0 136 0C139.272 0 142.189 2.696 181.748 42.286C220.128 80.697 224 84.87 224 87.831C224 92.203 220.202 96 215.829 96C212.878 96 209.303 92.74 178.284 61.769L144 27.539L144 139.315L144 251.091L141.545 253.545C138.298 256.793 133.702 256.793 130.455 253.545" />
    <glyph glyph-name="tail-right-2"
      unicode="&#xEA26;"
      horiz-adv-x="256" d="M162.455 205.545C160.86 203.951 160 201.957 160 199.857C160 196.943 163.387 193.227 194.217 162.311L228.434 128L116.672 128L4.909 128L2.455 125.545C-0.734 122.357 -0.735 118.085 2.452 114.646L4.905 112L116.683 112L228.461 112L194.231 77.716C164.133 47.572 160 43.062 160 40.362C160 36.047 163.963 32 168.189 32C171.183 32 175.209 35.735 213.737 74.263C253.199 113.725 256 116.757 256 120C256 123.243 253.199 126.275 213.737 165.737C175.221 204.253 171.183 208 168.191 208C166.04 208 164.064 207.154 162.455 205.545" />
    <glyph glyph-name="tail-left"
      unicode="&#xEA27;"
      horiz-adv-x="256" d="M42.263 165.737C2.801 126.275 0 123.243 0 120C0 116.757 2.801 113.725 42.263 74.263C80.791 35.735 84.817 32 87.811 32C92.037 32 96 36.047 96 40.362C96 43.062 91.867 47.572 61.769 77.716L27.539 112L139.317 112L251.095 112L253.548 114.646C256.735 118.085 256.734 122.357 253.545 125.545L251.091 128L139.328 128L27.566 128L61.783 162.311C92.613 193.227 96 196.943 96 199.857C96 204.213 92.19 208 87.809 208C84.817 208 80.779 204.253 42.263 165.737" />
    <glyph glyph-name="filter"
      unicode="&#xEA28;"
      horiz-adv-x="256" d="M2.455 253.545L0 251.091L0 224.48C0 209.844 0.415 197.093 0.922 196.146C1.429 195.198 23.029 180.306 48.922 163.052L96 131.681L96 68.487L96 5.292L98.452 2.646C99.97 1.008 101.963 0 103.683 0C105.612 0 114.364 5.261 132.304 17.202C146.517 26.663 158.563 35.184 159.073 36.136C159.605 37.13 160 57.881 160 84.775L160 131.681L207.078 163.052C232.971 180.306 254.571 195.198 255.078 196.146C255.585 197.093 256 209.844 256 224.48L256 251.091L253.545 253.545L251.091 256L128 256L4.909 256L2.455 253.545M240 222.159L240 204.319L192.922 172.948C167.029 155.694 145.429 140.802 144.922 139.854C144.397 138.873 144 117.942 144 91.223L144 44.315L128 33.654L112 22.993L112 80.562C112 113.787 111.61 138.86 111.078 139.854C110.571 140.802 88.971 155.694 63.078 172.948L16 204.319L16 222.159L16 240L128 240L240 240L240 222.159" />
    <glyph glyph-name="e-remove"
      unicode="&#xEA29;"
      horiz-adv-x="256" d="M34.455 221.545C32.857 219.948 32 217.958 32 215.845C32 212.904 35.955 208.638 74.229 170.295L116.457 127.989L74.229 85.717C36.901 48.351 32 43.088 32 40.369C32 36.055 35.961 32 40.175 32C43.15 32 47.266 35.816 85.723 74.234L128 116.468L170.277 74.234C208.734 35.816 212.85 32 215.825 32C220.039 32 224 36.055 224 40.369C224 43.088 219.099 48.351 181.771 85.717L139.543 127.989L181.771 170.295C220.045 208.638 224 212.904 224 215.845C224 220.206 220.195 224 215.823 224C212.851 224 208.722 220.172 170.277 181.766L128 139.532L85.723 181.766C47.278 220.172 43.149 224 40.177 224C38.041 224 36.059 223.15 34.455 221.545" />
    <glyph glyph-name="favorite"
      unicode="&#xEA2A;"
      horiz-adv-x="256" d="M56.5 238.364C52.65 237.554 45.239 234.833 40.032 232.317C31.97 228.422 29.21 226.388 21.447 218.622C13.731 210.902 11.617 208.04 7.693 200C-2.566 178.981 -2.592 157.268 7.616 136L12.175 126.5L40.915 98C56.722 82.325 82.086 57.463 97.28 42.75C121.348 19.444 125.304 16 128.005 16C130.713 16 134.857 19.64 160.739 44.75C177.038 60.562 202.384 85.425 217.062 100C243.606 126.356 243.776 126.552 248.324 136C258.587 157.323 258.581 178.95 248.307 200C244.383 208.04 242.269 210.902 234.553 218.622C226.784 226.395 224.036 228.419 215.968 232.311C188.396 245.614 157.366 241.227 135.662 220.958L128 213.802L120.338 220.958C103.499 236.684 79.551 243.214 56.5 238.364M86.43 222.018C99.464 218.684 110.95 210.235 118.508 198.42C124.848 188.509 129.711 187.848 135.737 196.079C144.011 207.379 146.907 210.449 153.299 214.699C175.706 229.595 205.401 226.236 224.189 206.681C243.652 186.424 245.177 154.159 227.664 133.197C222.955 127.56 129.059 36 127.988 36C127.106 36 34.115 126.508 29.126 132.222C14.601 148.859 11.959 173.809 22.583 194.026C34.705 217.095 60.854 228.559 86.43 222.018" />
    <glyph glyph-name="ban"
      unicode="&#xEA2B;"
      horiz-adv-x="256" d="M108.5 254.445C52.322 244.952 9.966 202.042 1.455 146C-5.563 99.794 15.12 51.575 53.778 24.017C104.207 -11.933 172.005 -6.835 216.645 36.262C256.965 75.188 267.219 134.078 242.47 184.568C218.174 234.133 161.924 263.472 108.5 254.445M142.566 238.928C152.073 237.605 165.141 233.878 174.463 229.829C181.798 226.644 196.264 217.575 199.219 214.311C200.863 212.494 197.951 209.446 122.081 133.581L43.234 54.739L38.713 60.499C25.535 77.289 16 105.232 16 127.059C16 156.999 27.895 185.818 49 207.011C73.5 231.612 108.738 243.633 142.566 238.928M218.048 194.25C224.578 185.631 232.292 169.928 235.417 158.888C241.449 137.582 241.442 118.271 235.394 97.112C226.798 67.039 205.791 41.921 177.283 27.627C146.956 12.421 109.451 12.268 79.5 27.228C71.221 31.363 61.196 37.709 57.212 41.337L54.924 43.42L133.71 122.21C177.042 165.544 212.594 201 212.714 201C212.834 201 215.235 197.962 218.048 194.25" />
    <glyph glyph-name="bookmark-add"
      unicode="&#xEA2D;"
      horiz-adv-x="256" d="M63.195 254.933C52.049 252.738 41.144 243.749 35.709 232.274L32.5 225.5L32.225 115.423L31.95 5.346L34.427 2.673C35.865 1.121 37.975 0 39.456 0C40.86 0 63.155 10.575 89.001 23.5L135.993 47.001L183.314 23.346C233.983 -1.981 233.359 -1.752 237.998 3.228C240.046 5.426 240.05 5.68 239.775 115.466L239.5 225.5L236.291 232.274C230.66 244.162 220.004 252.724 208.006 254.999C201.545 256.224 69.448 256.164 63.195 254.933M207.236 238.811C209.418 238.157 213.367 235.677 216.012 233.299C224.518 225.652 224 232.973 224 120.32L224 20.995L181.005 42.498C157.357 54.324 137.105 64 136 64C134.895 64 114.643 54.324 90.995 42.498L48 20.995L48.006 120.248C48.009 188.792 48.349 220.738 49.102 223.5C50.438 228.401 58.952 237.074 64.008 238.684C69.133 240.316 201.82 240.434 207.236 238.811M130.455 189.545C128.09 187.181 128 186.594 128 173.545L128 160L114.455 160C101.406 160 100.819 159.91 98.455 157.545C95.266 154.357 95.265 150.085 98.452 146.646C100.872 144.036 101.086 144 114.452 144L128 144L128 130.646C128 117.857 128.104 117.18 130.452 114.646C133.744 111.094 138.256 111.094 141.548 114.646C143.896 117.18 144 117.857 144 130.646L144 144L157.548 144C170.914 144 171.128 144.036 173.548 146.646C176.735 150.085 176.734 154.357 173.545 157.545C171.181 159.91 170.594 160 157.545 160L144 160L144 173.545C144 186.594 143.91 187.181 141.545 189.545C139.998 191.093 137.948 192 136 192C134.052 192 132.002 191.093 130.455 189.545" />
    <glyph glyph-name="bookmark-delete"
      unicode="&#xEA2E;"
      horiz-adv-x="256" d="M63.195 254.933C52.049 252.738 41.144 243.749 35.709 232.274L32.5 225.5L32.225 115.423L31.95 5.346L34.427 2.673C35.865 1.121 37.975 0 39.456 0C40.86 0 63.155 10.575 89.001 23.5L135.993 47.001L183.314 23.346C233.983 -1.981 233.359 -1.752 237.998 3.228C240.046 5.426 240.05 5.68 239.775 115.466L239.5 225.5L236.291 232.274C230.66 244.162 220.004 252.724 208.006 254.999C201.545 256.224 69.448 256.164 63.195 254.933M207.236 238.811C209.418 238.157 213.367 235.677 216.012 233.299C224.518 225.652 224 232.973 224 120.32L224 20.995L181.005 42.498C157.357 54.324 137.105 64 136 64C134.895 64 114.643 54.324 90.995 42.498L48 20.995L48.006 120.248C48.009 188.792 48.349 220.738 49.102 223.5C50.438 228.401 58.952 237.074 64.008 238.684C69.133 240.316 201.82 240.434 207.236 238.811M98.455 157.545C95.266 154.357 95.265 150.085 98.452 146.646L100.905 144L136 144L171.095 144L173.548 146.646C176.735 150.085 176.734 154.357 173.545 157.545L171.091 160L136 160L100.909 160L98.455 157.545" />
    <glyph glyph-name="menu-dots"
      unicode="&#xEA2F;"
      horiz-adv-x="256" d="M24.734 158.97C15.404 156.627 7.095 149.89 2.812 141.193C0.946 137.404 0.5 134.862 0.5 128C0.5 117.879 2.692 112.466 9.579 105.579C20.752 94.406 37.733 92.939 50.421 102.051C71.042 116.86 67.331 147.659 43.744 157.47C38.969 159.456 29.609 160.195 24.734 158.97M120.734 158.97C111.404 156.627 103.095 149.89 98.812 141.193C96.946 137.404 96.5 134.862 96.5 128C96.5 117.879 98.692 112.466 105.579 105.579C116.752 94.406 133.733 92.939 146.421 102.051C167.042 116.86 163.331 147.659 139.744 157.47C134.969 159.456 125.609 160.195 120.734 158.97M216.734 158.97C207.404 156.627 199.095 149.89 194.812 141.193C192.946 137.404 192.5 134.862 192.5 128C192.5 117.879 194.692 112.466 201.579 105.579C212.752 94.406 229.733 92.939 242.421 102.051C263.042 116.86 259.331 147.659 235.744 157.47C230.969 159.456 221.609 160.195 216.734 158.97M38.655 142.359C48.696 137.595 50.921 125.206 43.194 117.084C39.075 112.753 34.43 111.321 28.259 112.479C23.492 113.373 17.351 119.614 16.435 124.493C13.956 137.707 26.761 148.003 38.655 142.359M134.655 142.359C144.696 137.595 146.921 125.206 139.194 117.084C135.075 112.753 130.43 111.321 124.259 112.479C119.492 113.373 113.351 119.614 112.435 124.493C109.956 137.707 122.761 148.003 134.655 142.359M230.655 142.359C240.696 137.595 242.921 125.206 235.194 117.084C231.075 112.753 226.43 111.321 220.259 112.479C215.492 113.373 209.351 119.614 208.435 124.493C205.956 137.707 218.761 148.003 230.655 142.359" />
  </font>
</defs>
</svg>
